<?xml version="1.0" standalone="no"?>
<!DOCTYPE svg PUBLIC "-//W3C//DTD SVG 20010904//EN"
 "http://www.w3.org/TR/2001/REC-SVG-20010904/DTD/svg10.dtd">
<svg version="1.0" xmlns="http://www.w3.org/2000/svg"
 width="570.000000pt" height="460.000000pt" viewBox="0 0 570.000000 460.000000"
 preserveAspectRatio="xMidYMid meet">
<g transform="translate(0.000000,0.000000) scale(1.000000,1.000000)"
fill="#000000" stroke="none">
<path d="M270 423 c-35 -25 -90 -81 -90 -92 0 -17 31 -41 53 -41 31 0 67 27
67 51 0 11 -11 24 -25 31 l-25 11 22 24 c14 15 33 23 53 23 40 0 89 -39 79
-63 -7 -18 -11 -19 -62 -19 -28 0 -32 -2 -26 -16 4 -9 12 -38 17 -64 11 -47
27 -65 27 -30 0 14 2 15 10 2 5 -8 10 -26 10 -39 0 -16 4 -21 15 -17 9 3 15 0
15 -9 0 -20 19 -19 26 0 4 8 12 15 20 15 16 0 18 19 5 53 -5 13 -6 29 -2 36 5
7 14 -3 24 -29 9 -24 21 -39 27 -35 7 4 7 12 0 25 -12 23 -13 30 -2 30 5 0 14
-12 20 -26 13 -27 35 -24 25 3 -7 18 -82 102 -122 137 -13 12 -32 29 -42 39
-24 22 -87 22 -119 0z m1 -69 c11 -14 10 -19 -10 -35 -28 -23 -47 -24 -55 -3
-8 20 1 34 20 34 8 0 12 5 9 10 -10 17 22 11 36 -6z m158 -79 c0 -5 -4 -3 -9
5 -5 8 -9 22 -9 30 0 16 17 -16 18 -35z m-20 -40 c0 -5 -8 6 -19 25 -11 19
-19 40 -19 45 0 6 8 -6 19 -25 11 -19 19 -39 19 -45z m28 -27 c-3 -8 -6 -5 -6
6 -1 11 2 17 5 13 3 -3 4 -12 1 -19z"/>
<path d="M220 330 c0 -6 7 -10 15 -10 8 0 15 2 15 4 0 2 -7 6 -15 10 -8 3 -15
1 -15 -4z"/>
<path d="M142 398 c-16 -21 -23 -56 -12 -63 18 -11 11 -24 -22 -39 -44 -19
-98 -72 -98 -97 0 -26 37 -39 75 -27 64 21 72 21 78 -1 8 -30 40 -26 82 10 25
22 35 27 35 16 0 -31 -19 -65 -39 -72 -27 -8 -26 -22 2 -46 32 -27 58 -25 30
2 l-22 22 22 18 c17 13 22 27 21 63 0 26 -4 49 -8 53 -3 4 -19 -7 -34 -24 -34
-39 -69 -51 -74 -26 -2 10 1 26 6 35 19 31 -1 29 -55 -7 -29 -19 -62 -35 -71
-35 -54 0 26 103 89 115 38 7 40 12 14 34 -17 15 -18 21 -7 42 9 18 19 24 44
23 18 -1 29 2 26 7 -8 13 -70 11 -82 -3z"/>
<path d="M165 360 c-3 -5 -1 -10 4 -10 6 0 11 5 11 10 0 6 -2 10 -4 10 -3 0
-8 -4 -11 -10z"/>
<path d="M366 161 c-6 -9 -46 -129 -46 -137 0 -2 6 -4 14 -4 8 0 20 26 31 71
15 65 16 95 1 70z"/>
</g>
</svg>
