<?xml version="1.0" standalone="no"?>
<!DOCTYPE svg PUBLIC "-//W3C//DTD SVG 20010904//EN"
 "http://www.w3.org/TR/2001/REC-SVG-20010904/DTD/svg10.dtd">
<svg version="1.0" xmlns="http://www.w3.org/2000/svg"
 width="10690.000000pt" height="13680.000000pt" viewBox="0 0 10690.000000 13680.000000"
 preserveAspectRatio="xMidYMid meet">
<metadata>
Created by potrace 1.12, written by Peter Selinger 2001-2015
</metadata>
<g transform="translate(0.000000,0.000000) scale(1.000000,1.000000)"
fill="#000000" stroke="none">
<path d="M5740 12679 l-95 -5 128 -2 c70 -1 127 0 127 2 0 8 -69 11 -160 5z"/>
<path d="M5510 12640 c-14 -4 121 -8 300 -8 197 0 309 4 285 9 -51 10 -552 10
-585 -1z"/>
<path d="M5370 12600 c-14 -4 189 -8 450 -8 261 0 464 4 450 8 -14 4 -216 8
-450 8 -234 0 -436 -4 -450 -8z"/>
<path d="M5255 12560 c-4 -7 182 -10 552 -10 364 0 553 4 543 10 -21 13 -1087
13 -1095 0z"/>
<path d="M5170 12520 c-10 -6 208 -10 625 -10 417 0 635 4 625 10 -9 6 -248
10 -625 10 -377 0 -616 -4 -625 -10z"/>
<path d="M5095 12480 c-4 -7 228 -10 690 -10 462 0 694 3 690 10 -4 7 -245 10
-690 10 -445 0 -686 -3 -690 -10z"/>
<path d="M5045 12440 c-4 -7 242 -10 730 -10 488 0 734 3 730 10 -4 7 -258 10
-730 10 -472 0 -726 -3 -730 -10z"/>
<path d="M4995 12400 c-4 -7 255 -10 770 -10 515 0 774 3 770 10 -4 7 -272 10
-770 10 -498 0 -766 -3 -770 -10z"/>
<path d="M4930 12360 c-10 -6 278 -10 823 -10 556 0 836 3 832 10 -8 13 -1634
13 -1655 0z"/>
<path d="M4870 12320 c-10 -6 298 -10 878 -10 593 0 891 3 887 10 -8 13 -1744
13 -1765 0z"/>
<path d="M4810 12280 c-10 -6 320 -10 940 -10 620 0 950 4 940 10 -9 6 -360
10 -940 10 -580 0 -931 -4 -940 -10z"/>
<path d="M4750 12240 c-10 -6 337 -10 988 -10 666 0 1001 3 997 10 -8 14
-1964 14 -1985 0z"/>
<path d="M4705 12200 c-4 -7 342 -10 1030 -10 688 0 1034 3 1030 10 -4 7 -358
10 -1030 10 -672 0 -1026 -3 -1030 -10z"/>
<path d="M4660 12160 c0 -7 363 -10 1070 -10 707 0 1070 3 1070 10 0 7 -363
10 -1070 10 -707 0 -1070 -3 -1070 -10z"/>
<path d="M4625 12120 c-4 -7 365 -10 1100 -10 735 0 1104 3 1100 10 -4 7 -382
10 -1100 10 -718 0 -1096 -3 -1100 -10z"/>
<path d="M4595 12080 c-4 -7 373 -10 1124 -10 747 0 1131 3 1131 10 0 7 -381
10 -1124 10 -739 0 -1127 -3 -1131 -10z"/>
<path d="M4560 12040 c0 -7 394 -10 1161 -10 771 0 1158 3 1154 10 -4 7 -402
10 -1161 10 -763 0 -1154 -3 -1154 -10z"/>
<path d="M4525 12000 c-4 -7 393 -10 1184 -10 787 0 1191 3 1191 10 0 7 -401
10 -1184 10 -779 0 -1187 -3 -1191 -10z"/>
<path d="M4495 11960 c-4 -7 405 -10 1220 -10 815 0 1224 3 1220 10 -4 7 -422
10 -1220 10 -798 0 -1216 -3 -1220 -10z"/>
<path d="M4465 11920 c-4 -7 417 -10 1255 -10 838 0 1259 3 1255 10 -4 7 -433
10 -1255 10 -822 0 -1251 -3 -1255 -10z"/>
<path d="M4450 11880 c0 -7 434 -10 1281 -10 851 0 1278 3 1274 10 -4 7 -442
10 -1281 10 -843 0 -1274 -3 -1274 -10z"/>
<path d="M4425 11840 c-4 -7 433 -10 1305 -10 872 0 1309 3 1305 10 -4 7 -450
10 -1305 10 -855 0 -1301 -3 -1305 -10z"/>
<path d="M4410 11800 c0 -7 450 -10 1331 -10 884 0 1328 3 1324 10 -4 7 -458
10 -1331 10 -876 0 -1324 -3 -1324 -10z"/>
<path d="M4395 11760 c-4 -7 448 -10 1350 -10 902 0 1354 3 1350 10 -4 7 -465
10 -1350 10 -885 0 -1346 -3 -1350 -10z"/>
<path d="M4380 11720 c0 -7 465 -10 1375 -10 910 0 1375 3 1375 10 0 7 -465
10 -1375 10 -910 0 -1375 -3 -1375 -10z"/>
<path d="M4370 11680 c0 -7 472 -10 1395 -10 923 0 1395 3 1395 10 0 7 -472
10 -1395 10 -923 0 -1395 -3 -1395 -10z"/>
<path d="M4350 11640 c0 -7 482 -10 1426 -10 947 0 1423 3 1419 10 -4 7 -490
10 -1426 10 -939 0 -1419 -3 -1419 -10z"/>
<path d="M4340 11600 c0 -7 489 -10 1446 -10 961 0 1443 3 1439 10 -4 7 -497
10 -1446 10 -953 0 -1439 -3 -1439 -10z"/>
<path d="M4330 11560 c0 -7 495 -10 1466 -10 974 0 1463 3 1459 10 -4 7 -503
10 -1466 10 -966 0 -1459 -3 -1459 -10z"/>
<path d="M4320 11520 c0 -7 500 -10 1481 -10 984 0 1478 3 1474 10 -4 7 -508
10 -1481 10 -976 0 -1474 -3 -1474 -10z"/>
<path d="M4300 11480 c0 -7 507 -10 1501 -10 997 0 1498 3 1494 10 -4 7 -515
10 -1501 10 -989 0 -1494 -3 -1494 -10z"/>
<path d="M4285 11440 c-4 -7 503 -10 1515 -10 1012 0 1519 3 1515 10 -4 7
-520 10 -1515 10 -995 0 -1511 -3 -1515 -10z"/>
<path d="M4265 11400 c-4 -7 508 -10 1529 -10 1017 0 1536 3 1536 10 0 14
-3056 14 -3065 0z"/>
<path d="M4245 11360 c-4 -7 515 -10 1549 -10 1031 0 1556 3 1556 10 0 14
-3096 14 -3105 0z"/>
<path d="M4230 11320 c0 -7 530 -10 1571 -10 1044 0 1568 3 1564 10 -4 7 -538
10 -1571 10 -1036 0 -1564 -3 -1564 -10z"/>
<path d="M4215 11280 c-4 -7 525 -10 1579 -10 1051 0 1586 3 1586 10 0 14
-3156 14 -3165 0z"/>
<path d="M4200 11240 c0 -7 540 -10 1600 -10 1060 0 1600 3 1600 10 0 7 -540
10 -1600 10 -1060 0 -1600 -3 -1600 -10z"/>
<path d="M4200 11200 c0 -7 544 -10 1611 -10 1071 0 1608 3 1604 10 -4 7 -552
10 -1611 10 -1063 0 -1604 -3 -1604 -10z"/>
<path d="M4200 11160 c0 -7 547 -10 1620 -10 1073 0 1620 3 1620 10 0 7 -547
10 -1620 10 -1073 0 -1620 -3 -1620 -10z"/>
<path d="M4200 11120 c0 -7 550 -10 1630 -10 1080 0 1630 3 1630 10 0 7 -550
10 -1630 10 -1080 0 -1630 -3 -1630 -10z"/>
<path d="M4190 11080 c0 -7 555 -10 1646 -10 1094 0 1643 3 1639 10 -4 7 -563
10 -1646 10 -1086 0 -1639 -3 -1639 -10z"/>
<path d="M4180 11040 c0 -7 557 -10 1651 -10 1097 0 1648 3 1644 10 -4 7 -565
10 -1651 10 -1089 0 -1644 -3 -1644 -10z"/>
<path d="M4160 11000 c0 -7 562 -10 1665 -10 1103 0 1665 3 1665 10 0 7 -562
10 -1665 10 -1103 0 -1665 -3 -1665 -10z"/>
<path d="M4140 10960 c0 -7 565 -10 1675 -10 1110 0 1675 3 1675 10 0 7 -565
10 -1675 10 -1110 0 -1675 -3 -1675 -10z"/>
<path d="M4110 10920 c0 -7 572 -10 1696 -10 1127 0 1693 3 1689 10 -4 7 -580
10 -1696 10 -1119 0 -1689 -3 -1689 -10z"/>
<path d="M4075 10880 c-4 -7 568 -10 1709 -10 1137 0 1716 3 1716 10 0 14
-3416 14 -3425 0z"/>
<path d="M4050 10840 c0 -7 607 -10 1803 -9 991 1 1782 5 1757 10 -68 12
-3560 11 -3560 -1z"/>
<path d="M4015 10800 c-4 -7 629 -10 1892 -9 1044 1 1885 5 1868 9 -47 12
-3753 12 -3760 0z"/>
<path d="M3985 10760 c-4 -7 655 -10 1972 -9 1088 1 1965 5 1948 9 -47 12
-3913 12 -3920 0z"/>
<path d="M3935 10720 c-4 -7 686 -10 2062 -9 1163 0 2059 4 2048 9 -29 13
-4102 13 -4110 0z"/>
<path d="M3875 10680 c-4 -7 709 -10 2132 -10 1384 0 2133 4 2123 10 -21 14
-4247 14 -4255 0z"/>
<path d="M3825 10640 c-4 -7 728 -10 2190 -10 1462 0 2194 3 2190 10 -4 7
-745 10 -2190 10 -1445 0 -2186 -3 -2190 -10z"/>
<path d="M3765 10600 c-4 -7 745 -10 2240 -10 1495 0 2244 3 2240 10 -4 7
-762 10 -2240 10 -1478 0 -2236 -3 -2240 -10z"/>
<path d="M3710 10560 c-10 -6 792 -10 2273 -10 1518 0 2287 3 2287 10 0 14
-4539 14 -4560 0z"/>
<path d="M3660 10520 c0 -7 779 -10 2316 -10 1541 0 2313 3 2309 10 -4 7 -787
10 -2316 10 -1533 0 -2309 -3 -2309 -10z"/>
<path d="M3635 10480 c-4 -7 773 -10 2324 -10 1547 0 2331 3 2331 10 0 7 -781
10 -2324 10 -1539 0 -2327 -3 -2331 -10z"/>
<path d="M3610 10440 c0 -7 785 -10 2335 -10 1550 0 2335 3 2335 10 0 7 -785
10 -2335 10 -1550 0 -2335 -3 -2335 -10z"/>
<path d="M3585 10400 c-4 -7 295 -10 890 -10 595 0 894 3 890 10 -4 7 -312 10
-890 10 -578 0 -886 -3 -890 -10z"/>
<path d="M5905 10400 c47 -12 2355 -12 2355 0 0 7 -403 10 -1192 9 -656 -1
-1179 -5 -1163 -9z"/>
<path d="M3555 10360 c-4 -7 312 -10 942 -10 616 0 943 4 933 10 -21 14 -1867
14 -1875 0z"/>
<path d="M5980 10360 c0 -7 381 -10 1124 -10 739 0 1127 3 1131 10 4 7 -373
10 -1124 10 -747 0 -1131 -3 -1131 -10z"/>
<path d="M3525 10320 c-8 -13 1351 -13 1380 0 11 5 -279 9 -677 9 -454 1 -699
-2 -703 -9z"/>
<path d="M5095 10320 c46 -12 385 -12 385 0 0 6 -75 10 -207 9 -118 -1 -195
-5 -178 -9z"/>
<path d="M5965 10320 c-4 -7 368 -10 1109 -10 732 0 1117 3 1121 10 4 7 -368
10 -1109 10 -732 0 -1117 -3 -1121 -10z"/>
<path d="M3505 10280 c-8 -13 1261 -13 1290 0 11 5 -259 9 -632 9 -424 1 -654
-2 -658 -9z"/>
<path d="M5140 10280 c0 -6 65 -10 175 -10 110 0 175 4 175 10 0 6 -65 10
-175 10 -110 0 -175 -4 -175 -10z"/>
<path d="M5935 10280 c-4 -7 366 -10 1104 -10 729 0 1112 3 1116 10 4 7 -366
10 -1104 10 -729 0 -1112 -3 -1116 -10z"/>
<path d="M3490 10240 c0 -13 1169 -13 1190 0 10 6 -195 10 -587 10 -396 0
-603 -3 -603 -10z"/>
<path d="M5055 10240 c-12 -5 64 -9 192 -9 131 -1 214 3 218 9 8 13 -381 13
-410 0z"/>
<path d="M5865 10240 c-4 -7 370 -10 1114 -10 736 0 1122 3 1126 10 4 7 -370
10 -1114 10 -736 0 -1122 -3 -1126 -10z"/>
<path d="M3480 10200 c0 -7 200 -10 579 -10 376 0 582 4 586 10 4 7 -192 10
-579 10 -384 0 -586 -3 -586 -10z"/>
<path d="M4970 10200 c-10 -6 43 -10 160 -10 96 0 182 5 190 10 10 6 -43 10
-160 10 -96 0 -182 -5 -190 -10z"/>
<path d="M5845 10200 c-4 -7 365 -10 1099 -10 726 0 1107 3 1111 10 4 7 -365
10 -1099 10 -726 0 -1107 -3 -1111 -10z"/>
<path d="M3495 10160 c4 -6 203 -10 565 -10 362 0 561 4 565 10 4 7 -187 10
-565 10 -378 0 -569 -3 -565 -10z"/>
<path d="M4890 10160 c-10 -6 55 -10 193 -10 131 0 207 4 207 10 0 13 -380 13
-400 0z"/>
<path d="M5840 10160 c0 -12 386 -12 415 0 12 5 -67 9 -197 9 -139 1 -218 -3
-218 -9z"/>
<path d="M6285 10160 c-4 -7 283 -10 854 -10 562 0 862 3 866 10 4 7 -283 10
-854 10 -562 0 -862 -3 -866 -10z"/>
<path d="M3535 10120 c4 -6 192 -10 530 -10 338 0 526 4 530 10 4 7 -175 10
-530 10 -355 0 -534 -3 -530 -10z"/>
<path d="M4810 10120 c-10 -6 73 -10 243 -10 170 0 256 3 252 10 -8 13 -475
13 -495 0z"/>
<path d="M5840 10120 c0 -13 348 -12 356 1 3 5 -70 9 -175 9 -117 0 -181 -4
-181 -10z"/>
<path d="M6245 10120 c-8 -14 1684 -14 1705 0 10 6 -285 10 -842 10 -561 0
-859 -3 -863 -10z"/>
<path d="M3565 10080 c4 -6 180 -10 495 -10 315 0 491 4 495 10 4 7 -163 10
-495 10 -332 0 -499 -3 -495 -10z"/>
<path d="M4745 10080 c-4 -7 100 -10 305 -10 205 0 309 3 305 10 -4 6 -117 10
-305 10 -188 0 -301 -4 -305 -10z"/>
<path d="M5840 10080 c0 -6 45 -10 115 -10 70 0 115 4 115 10 0 6 -45 10 -115
10 -70 0 -115 -4 -115 -10z"/>
<path d="M6195 10080 c-4 -7 280 -10 844 -10 556 0 852 3 856 10 4 7 -280 10
-844 10 -556 0 -852 -3 -856 -10z"/>
<path d="M3605 10040 c4 -6 170 -10 466 -10 299 0 459 3 459 10 0 7 -162 10
-466 10 -307 0 -463 -3 -459 -10z"/>
<path d="M4740 10040 c0 -6 117 -10 331 -10 217 0 328 3 324 10 -4 6 -125 10
-331 10 -209 0 -324 -4 -324 -10z"/>
<path d="M5850 10040 c0 -6 40 -10 99 -10 56 0 103 4 106 10 4 6 -32 10 -99
10 -64 0 -106 -4 -106 -10z"/>
<path d="M6150 10040 c-11 -7 -1 -10 35 -10 28 0 57 5 65 10 11 7 1 10 -35 10
-27 0 -57 -5 -65 -10z"/>
<path d="M6335 10040 c8 -13 1484 -13 1505 0 10 6 -252 10 -748 10 -506 0
-761 -3 -757 -10z"/>
<path d="M3650 10000 c21 -13 870 -13 870 0 0 7 -154 10 -442 10 -290 0 -438
-4 -428 -10z"/>
<path d="M4780 10000 c20 -13 197 -13 205 0 4 6 -34 10 -107 10 -77 0 -108 -3
-98 -10z"/>
<path d="M5035 9999 c8 -12 307 -10 340 2 11 4 -62 8 -163 8 -127 1 -181 -2
-177 -10z"/>
<path d="M5850 10000 c0 -6 38 -10 95 -10 57 0 95 4 95 10 0 6 -38 10 -95 10
-57 0 -95 -4 -95 -10z"/>
<path d="M6110 10000 c0 -13 50 -13 70 0 11 7 4 10 -27 10 -24 0 -43 -4 -43
-10z"/>
<path d="M6375 10000 c8 -13 1394 -13 1415 0 10 6 -236 10 -703 10 -476 0
-716 -3 -712 -10z"/>
<path d="M3695 9960 c4 -6 150 -10 405 -10 255 0 401 4 405 10 4 7 -133 10
-405 10 -272 0 -409 -3 -405 -10z"/>
<path d="M4840 9960 c20 -13 97 -13 105 0 4 6 -17 10 -57 10 -44 0 -59 -3 -48
-10z"/>
<path d="M5065 9960 c3 -5 42 -10 85 -10 43 0 82 5 85 10 4 6 -27 10 -85 10
-58 0 -89 -4 -85 -10z"/>
<path d="M5850 9960 c0 -6 40 -10 101 -10 64 0 98 4 94 10 -3 6 -48 10 -101
10 -56 0 -94 -4 -94 -10z"/>
<path d="M6565 9960 c-4 -7 191 -10 579 -10 379 0 587 4 591 10 4 7 -191 10
-579 10 -379 0 -587 -4 -591 -10z"/>
<path d="M3740 9920 c21 -13 760 -13 760 0 0 6 -136 10 -387 10 -254 0 -383
-4 -373 -10z"/>
<path d="M5860 9920 c0 -6 40 -10 101 -10 64 0 98 4 94 10 -3 6 -48 10 -101
10 -56 0 -94 -4 -94 -10z"/>
<path d="M6530 9920 c0 -7 196 -10 569 -10 369 0 572 4 576 10 4 7 -188 10
-569 10 -377 0 -576 -3 -576 -10z"/>
<path d="M3795 9880 c4 -6 133 -10 356 -10 226 0 349 4 349 10 0 6 -125 10
-356 10 -234 0 -353 -3 -349 -10z"/>
<path d="M5860 9880 c0 -6 44 -10 111 -10 71 0 108 4 104 10 -3 6 -52 10 -111
10 -63 0 -104 -4 -104 -10z"/>
<path d="M6500 9880 c0 -13 1089 -13 1110 0 10 6 -181 10 -547 10 -369 0 -563
-3 -563 -10z"/>
<path d="M7675 9880 c-3 -5 -1 -10 4 -10 6 0 11 5 11 10 0 6 -2 10 -4 10 -3 0
-8 -4 -11 -10z"/>
<path d="M3840 9840 c21 -13 647 -13 655 0 4 7 -109 10 -332 10 -222 0 -333
-4 -323 -10z"/>
<path d="M5860 9840 c0 -6 45 -10 115 -10 70 0 115 4 115 10 0 6 -45 10 -115
10 -70 0 -115 -4 -115 -10z"/>
<path d="M6485 9840 c-8 -13 1034 -13 1055 0 10 6 -170 10 -517 10 -344 0
-534 -4 -538 -10z"/>
<path d="M3905 9800 c4 -6 115 -10 301 -10 194 0 293 3 289 10 -4 6 -115 10
-301 10 -194 0 -293 -3 -289 -10z"/>
<path d="M5855 9800 c-4 -6 38 -10 119 -10 77 0 126 4 126 10 0 6 -46 10 -119
10 -69 0 -122 -4 -126 -10z"/>
<path d="M6495 9800 c8 -13 954 -13 975 0 10 6 -158 10 -483 10 -330 0 -496
-3 -492 -10z"/>
<path d="M7520 9800 c-9 -6 -10 -10 -3 -10 6 0 15 5 18 10 8 12 4 12 -15 0z"/>
<path d="M3960 9760 c21 -13 540 -13 540 0 0 6 -99 10 -277 10 -183 0 -273 -4
-263 -10z"/>
<path d="M5850 9760 c0 -6 52 -10 136 -10 87 0 133 4 129 10 -4 6 -60 10 -136
10 -79 0 -129 -4 -129 -10z"/>
<path d="M6815 9760 c8 -13 545 -13 565 0 10 6 -85 10 -278 10 -193 0 -291 -3
-287 -10z"/>
<path d="M4025 9720 c4 -6 97 -10 246 -10 153 0 239 4 239 10 0 6 -89 10 -246
10 -161 0 -243 -3 -239 -10z"/>
<path d="M5840 9720 c0 -6 55 -10 145 -10 90 0 145 4 145 10 0 6 -55 10 -145
10 -90 0 -145 -4 -145 -10z"/>
<path d="M6820 9720 c0 -6 85 -10 234 -10 146 0 237 4 241 10 4 7 -77 10 -234
10 -154 0 -241 -4 -241 -10z"/>
<path d="M4075 9680 c4 -6 90 -10 226 -10 139 0 219 4 219 10 0 6 -82 10 -226
10 -147 0 -223 -3 -219 -10z"/>
<path d="M5835 9680 c-4 -7 48 -10 149 -10 97 0 156 4 156 10 0 6 -56 10 -149
10 -89 0 -152 -4 -156 -10z"/>
<path d="M6805 9680 c-4 -7 75 -10 229 -10 146 0 237 4 241 10 4 7 -75 10
-229 10 -146 0 -237 -4 -241 -10z"/>
<path d="M4140 9640 c20 -13 380 -13 380 0 0 6 -72 10 -197 10 -132 0 -193 -4
-183 -10z"/>
<path d="M5830 9640 c0 -6 60 -10 160 -10 100 0 160 4 160 10 0 6 -60 10 -160
10 -100 0 -160 -4 -160 -10z"/>
<path d="M6785 9640 c-4 -7 77 -10 234 -10 154 0 241 4 241 10 0 6 -85 10
-234 10 -146 0 -237 -4 -241 -10z"/>
<path d="M4225 9600 c29 -12 295 -12 295 0 0 6 -59 10 -157 9 -98 0 -150 -4
-138 -9z"/>
<path d="M5830 9600 c0 -6 60 -10 160 -10 100 0 160 4 160 10 0 6 -60 10 -160
10 -100 0 -160 -4 -160 -10z"/>
<path d="M6755 9600 c-4 -7 80 -10 244 -10 161 0 251 4 251 10 0 6 -88 10
-244 10 -153 0 -247 -4 -251 -10z"/>
<path d="M4435 9560 c28 -12 95 -12 95 0 0 6 -25 10 -57 9 -42 0 -52 -3 -38
-9z"/>
<path d="M5825 9560 c4 -6 70 -10 166 -10 99 0 159 4 159 10 0 6 -62 10 -166
10 -107 0 -163 -3 -159 -10z"/>
<path d="M6745 9560 c-4 -7 83 -10 254 -10 167 0 261 4 261 10 0 6 -91 10
-254 10 -159 0 -257 -4 -261 -10z"/>
<path d="M4505 9520 c3 -5 15 -10 26 -10 10 0 19 5 19 10 0 6 -12 10 -26 10
-14 0 -23 -4 -19 -10z"/>
<path d="M5845 9520 c4 -6 70 -10 166 -10 99 0 159 4 159 10 0 6 -62 10 -166
10 -107 0 -163 -3 -159 -10z"/>
<path d="M6730 9520 c0 -6 95 -10 265 -10 170 0 265 4 265 10 0 6 -95 10 -265
10 -170 0 -265 -4 -265 -10z"/>
<path d="M4530 9480 c0 -5 9 -10 20 -10 11 0 20 5 20 10 0 6 -9 10 -20 10 -11
0 -20 -4 -20 -10z"/>
<path d="M5870 9480 c0 -6 60 -10 161 -10 104 0 158 3 154 10 -4 6 -68 10
-161 10 -96 0 -154 -4 -154 -10z"/>
<path d="M6720 9480 c0 -6 97 -10 270 -10 173 0 270 4 270 10 0 6 -97 10 -270
10 -173 0 -270 -4 -270 -10z"/>
<path d="M4540 9440 c0 -5 11 -10 25 -10 14 0 25 5 25 10 0 6 -11 10 -25 10
-14 0 -25 -4 -25 -10z"/>
<path d="M5880 9440 c0 -6 60 -10 160 -10 100 0 160 4 160 10 0 6 -60 10 -160
10 -100 0 -160 -4 -160 -10z"/>
<path d="M6685 9440 c-4 -7 93 -10 284 -10 187 0 291 4 291 10 0 6 -101 10
-284 10 -179 0 -287 -4 -291 -10z"/>
<path d="M4535 9400 c-4 -6 12 -10 39 -10 25 0 46 5 46 10 0 6 -18 10 -39 10
-22 0 -43 -4 -46 -10z"/>
<path d="M5880 9400 c0 -6 64 -10 171 -10 111 0 168 3 164 10 -4 6 -72 10
-171 10 -103 0 -164 -4 -164 -10z"/>
<path d="M6660 9400 c0 -6 107 -10 300 -10 193 0 300 4 300 10 0 6 -107 10
-300 10 -193 0 -300 -4 -300 -10z"/>
<path d="M4520 9360 c0 -6 27 -10 60 -10 33 0 60 4 60 10 0 6 -27 10 -60 10
-33 0 -60 -4 -60 -10z"/>
<path d="M5875 9360 c-4 -7 60 -10 185 -10 125 0 189 3 185 10 -4 6 -77 10
-185 10 -108 0 -181 -4 -185 -10z"/>
<path d="M6645 9360 c-4 -7 100 -10 304 -10 201 0 311 4 311 10 0 6 -108 10
-304 10 -193 0 -307 -4 -311 -10z"/>
<path d="M4485 9320 c-4 -6 28 -10 90 -10 62 0 94 4 90 10 -3 6 -44 10 -90 10
-46 0 -87 -4 -90 -10z"/>
<path d="M5865 9320 c-4 -7 67 -10 205 -10 138 0 209 3 205 10 -4 6 -83 10
-205 10 -122 0 -201 -4 -205 -10z"/>
<path d="M6635 9320 c-4 -7 102 -10 309 -10 204 0 316 4 316 10 0 6 -110 10
-309 10 -196 0 -312 -4 -316 -10z"/>
<path d="M4360 9280 c-51 -4 -11 -6 123 -7 112 -1 197 3 197 8 0 10 -198 9
-320 -1z"/>
<path d="M5845 9280 c-4 -7 77 -10 235 -10 158 0 239 3 235 10 -4 6 -93 10
-235 10 -142 0 -231 -4 -235 -10z"/>
<path d="M6600 9280 c0 -6 117 -10 330 -10 213 0 330 4 330 10 0 6 -117 10
-330 10 -213 0 -330 -4 -330 -10z"/>
<path d="M4216 9242 c-3 -5 8 -6 25 -4 16 2 29 6 29 8 0 8 -49 4 -54 -4z"/>
<path d="M4590 9240 c0 -5 25 -10 56 -10 34 0 53 4 49 10 -3 6 -28 10 -56 10
-27 0 -49 -4 -49 -10z"/>
<path d="M5820 9240 c0 -6 95 -10 265 -10 170 0 265 4 265 10 0 6 -95 10 -265
10 -170 0 -265 -4 -265 -10z"/>
<path d="M6575 9240 c-4 -7 112 -10 339 -10 224 0 346 4 346 10 0 6 -120 10
-339 10 -216 0 -342 -4 -346 -10z"/>
<path d="M4590 9200 c0 -5 25 -10 55 -10 30 0 55 5 55 10 0 6 -25 10 -55 10
-30 0 -55 -4 -55 -10z"/>
<path d="M5790 9200 c-10 -6 90 -10 293 -10 203 0 306 3 302 10 -8 13 -574 13
-595 0z"/>
<path d="M6555 9200 c-4 -7 115 -10 349 -10 231 0 356 4 356 10 0 6 -123 10
-349 10 -223 0 -352 -4 -356 -10z"/>
<path d="M4580 9160 c0 -6 28 -10 65 -10 37 0 65 4 65 10 0 6 -28 10 -65 10
-37 0 -65 -4 -65 -10z"/>
<path d="M5725 9160 c-4 -7 117 -10 357 -10 238 0 358 4 348 10 -21 13 -697
13 -705 0z"/>
<path d="M6490 9160 c-10 -6 120 -10 378 -10 255 0 392 4 392 10 0 13 -749 13
-770 0z"/>
<path d="M3685 9120 c-8 -13 15 -13 35 0 12 8 11 10 -7 10 -12 0 -25 -4 -28
-10z"/>
<path d="M4560 9120 c0 -6 33 -10 80 -10 47 0 80 4 80 10 0 6 -33 10 -80 10
-47 0 -80 -4 -80 -10z"/>
<path d="M5700 9120 c0 -7 268 -10 785 -10 517 0 785 3 785 10 0 7 -268 10
-785 10 -517 0 -785 -3 -785 -10z"/>
<path d="M4540 9080 c0 -6 39 -10 96 -10 61 0 93 4 89 10 -3 6 -46 10 -96 10
-53 0 -89 -4 -89 -10z"/>
<path d="M5725 9080 c4 -7 273 -10 776 -10 506 0 769 3 769 10 0 7 -265 10
-776 10 -514 0 -773 -3 -769 -10z"/>
<path d="M3575 9040 c-3 -5 -2 -10 4 -10 5 0 13 5 16 10 3 6 2 10 -4 10 -5 0
-13 -4 -16 -10z"/>
<path d="M4520 9040 c0 -6 43 -10 110 -10 67 0 110 4 110 10 0 6 -43 10 -110
10 -67 0 -110 -4 -110 -10z"/>
<path d="M5795 9040 c29 -13 1465 -13 1465 0 0 7 -254 10 -742 9 -424 0 -734
-4 -723 -9z"/>
<path d="M4505 9000 c-4 -6 38 -10 120 -10 82 0 124 4 120 10 -4 6 -55 10
-120 10 -65 0 -116 -4 -120 -10z"/>
<path d="M5865 9000 c4 -7 248 -10 701 -10 456 0 694 3 694 10 0 7 -240 10
-701 10 -464 0 -698 -3 -694 -10z"/>
<path d="M4490 8960 c0 -6 50 -10 130 -10 80 0 130 4 130 10 0 6 -50 10 -130
10 -80 0 -130 -4 -130 -10z"/>
<path d="M5915 8960 c4 -7 240 -10 676 -10 439 0 669 3 669 10 0 7 -232 10
-676 10 -447 0 -673 -3 -669 -10z"/>
<path d="M4480 8920 c0 -6 53 -10 140 -10 87 0 140 4 140 10 0 6 -53 10 -140
10 -87 0 -140 -4 -140 -10z"/>
<path d="M5975 8920 c4 -6 228 -10 640 -10 412 0 636 4 640 10 4 7 -212 10
-640 10 -428 0 -644 -3 -640 -10z"/>
<path d="M4465 8880 c-4 -7 50 -10 155 -10 105 0 159 3 155 10 -4 6 -67 10
-155 10 -88 0 -151 -4 -155 -10z"/>
<path d="M6045 8880 c4 -6 217 -10 606 -10 393 0 599 3 599 10 0 7 -209 10
-606 10 -401 0 -603 -3 -599 -10z"/>
<path d="M4450 8840 c0 -6 64 -10 171 -10 111 0 168 3 164 10 -4 6 -72 10
-171 10 -103 0 -164 -4 -164 -10z"/>
<path d="M6045 8840 c-11 -5 248 -9 588 -9 402 -1 607 2 607 9 0 12 -1165 13
-1195 0z"/>
<path d="M4435 8800 c-4 -7 58 -10 179 -10 117 0 186 4 186 10 0 6 -66 10
-179 10 -109 0 -182 -4 -186 -10z"/>
<path d="M5820 8800 c-10 -6 58 -10 203 -10 138 0 217 4 217 10 0 13 -400 13
-420 0z"/>
<path d="M6300 8800 c0 -7 165 -10 476 -10 314 0 473 3 469 10 -4 6 -173 10
-476 10 -306 0 -469 -3 -469 -10z"/>
<path d="M5618 8793 c12 -2 32 -2 45 0 12 2 2 4 -23 4 -25 0 -35 -2 -22 -4z"/>
<path d="M3350 8760 c0 -5 5 -10 10 -10 6 0 10 5 10 10 0 6 -4 10 -10 10 -5 0
-10 -4 -10 -10z"/>
<path d="M4420 8760 c0 -6 72 -10 195 -10 123 0 195 4 195 10 0 6 -72 10 -195
10 -123 0 -195 -4 -195 -10z"/>
<path d="M5520 8760 c-10 -6 302 -10 878 -10 590 0 891 3 887 10 -8 13 -1744
13 -1765 0z"/>
<path d="M4405 8720 c-4 -7 68 -10 209 -10 137 0 216 4 216 10 0 6 -76 10
-209 10 -129 0 -212 -4 -216 -10z"/>
<path d="M5575 8720 c29 -12 1794 -12 1775 0 -9 6 -346 9 -905 9 -506 0 -881
-4 -870 -9z"/>
<path d="M4385 8680 c-4 -7 75 -10 229 -10 151 0 236 4 236 10 0 6 -83 10
-229 10 -143 0 -232 -4 -236 -10z"/>
<path d="M5965 8680 c154 -12 333 -11 340 0 4 7 -70 9 -217 8 -186 -1 -207 -2
-123 -8z"/>
<path d="M6370 8680 c21 -13 1033 -13 1025 0 -4 6 -189 10 -523 10 -338 0
-512 -4 -502 -10z"/>
<path d="M4360 8640 c0 -6 92 -10 255 -10 163 0 255 4 255 10 0 6 -92 10 -255
10 -163 0 -255 -4 -255 -10z"/>
<path d="M6125 8640 c-4 -6 23 -10 74 -10 47 0 81 4 81 10 0 6 -31 10 -74 10
-41 0 -78 -4 -81 -10z"/>
<path d="M6420 8640 c0 -7 182 -10 526 -10 347 0 523 3 519 10 -4 6 -190 10
-526 10 -339 0 -519 -3 -519 -10z"/>
<path d="M3300 8600 c0 -5 5 -10 10 -10 6 0 10 5 10 10 0 6 -4 10 -10 10 -5 0
-10 -4 -10 -10z"/>
<path d="M4340 8600 c0 -6 100 -10 281 -10 184 0 278 3 274 10 -4 6 -108 10
-281 10 -176 0 -274 -4 -274 -10z"/>
<path d="M6050 8600 c-10 -7 32 -10 128 -10 93 0 141 4 137 10 -8 13 -245 13
-265 0z"/>
<path d="M6440 8600 c0 -7 187 -10 543 -10 353 0 537 4 527 10 -21 13 -1070
13 -1070 0z"/>
<path d="M3300 8559 c0 -5 5 -7 10 -4 6 3 10 8 10 11 0 2 -4 4 -10 4 -5 0 -10
-5 -10 -11z"/>
<path d="M4320 8560 c0 -6 109 -10 306 -10 201 0 303 3 299 10 -4 6 -117 10
-306 10 -193 0 -299 -4 -299 -10z"/>
<path d="M5990 8560 c-10 -6 44 -10 163 -10 111 0 177 4 177 10 0 13 -320 13
-340 0z"/>
<path d="M6425 8560 c-4 -7 189 -10 572 -10 377 0 573 4 563 10 -21 13 -1127
13 -1135 0z"/>
<path d="M3290 8520 c0 -5 5 -10 10 -10 6 0 10 5 10 10 0 6 -4 10 -10 10 -5 0
-10 -4 -10 -10z"/>
<path d="M4295 8520 c-4 -7 107 -10 324 -10 214 0 331 4 331 10 0 6 -115 10
-324 10 -206 0 -327 -4 -331 -10z"/>
<path d="M5875 8520 c-12 -5 78 -9 223 -9 155 -1 242 3 242 9 0 12 -436 12
-465 0z"/>
<path d="M6415 8520 c-4 -7 197 -10 595 -10 398 0 599 3 595 10 -4 6 -213 10
-595 10 -382 0 -591 -4 -595 -10z"/>
<path d="M3280 8480 c0 -5 7 -10 15 -10 8 0 15 5 15 10 0 6 -7 10 -15 10 -8 0
-15 -4 -15 -10z"/>
<path d="M4280 8480 c0 -6 124 -10 351 -10 231 0 348 3 344 10 -4 6 -132 10
-351 10 -223 0 -344 -4 -344 -10z"/>
<path d="M5725 8480 c4 -7 339 -10 971 -10 641 0 963 3 959 10 -4 7 -339 10
-971 10 -641 0 -963 -3 -959 -10z"/>
<path d="M3265 8440 c-3 -5 3 -10 14 -10 12 0 21 5 21 10 0 6 -6 10 -14 10 -8
0 -18 -4 -21 -10z"/>
<path d="M4255 8440 c-4 -7 123 -10 375 -10 252 0 379 3 375 10 -4 6 -140 10
-375 10 -235 0 -371 -4 -375 -10z"/>
<path d="M6090 8439 c68 -12 1613 -11 1605 1 -4 7 -290 10 -828 9 -452 -1
-802 -5 -777 -10z"/>
<path d="M3260 8400 c0 -5 9 -10 20 -10 11 0 20 5 20 10 0 6 -9 10 -20 10 -11
0 -20 -4 -20 -10z"/>
<path d="M4240 8400 c0 -6 138 -10 395 -10 257 0 395 4 395 10 0 6 -138 10
-395 10 -257 0 -395 -4 -395 -10z"/>
<path d="M6210 8400 c0 -7 264 -10 771 -10 511 0 768 3 764 10 -4 7 -272 10
-771 10 -503 0 -764 -3 -764 -10z"/>
<path d="M3260 8360 c0 -5 9 -10 20 -10 11 0 20 5 20 10 0 6 -9 10 -20 10 -11
0 -20 -4 -20 -10z"/>
<path d="M4220 8360 c0 -7 145 -10 415 -10 270 0 415 3 415 10 0 7 -145 10
-415 10 -270 0 -415 -3 -415 -10z"/>
<path d="M6210 8360 c0 -7 270 -10 791 -10 524 0 788 3 784 10 -4 7 -278 10
-791 10 -516 0 -784 -3 -784 -10z"/>
<path d="M3260 8320 c0 -5 7 -10 15 -10 8 0 15 5 15 10 0 6 -7 10 -15 10 -8 0
-15 -4 -15 -10z"/>
<path d="M4210 8320 c0 -7 145 -10 415 -10 270 0 415 3 415 10 0 7 -145 10
-415 10 -270 0 -415 -3 -415 -10z"/>
<path d="M6210 8320 c0 -7 275 -10 806 -10 534 0 803 3 799 10 -4 7 -283 10
-806 10 -526 0 -799 -3 -799 -10z"/>
<path d="M3260 8280 c0 -5 7 -10 15 -10 8 0 15 5 15 10 0 6 -7 10 -15 10 -8 0
-15 -4 -15 -10z"/>
<path d="M4195 8280 c-4 -7 133 -10 404 -10 262 0 412 4 416 10 4 7 -133 10
-404 10 -262 0 -412 -4 -416 -10z"/>
<path d="M6190 8280 c0 -7 285 -10 836 -10 554 0 833 3 829 10 -4 7 -293 10
-836 10 -546 0 -829 -3 -829 -10z"/>
<path d="M3260 8240 c0 -5 7 -10 15 -10 8 0 15 5 15 10 0 6 -7 10 -15 10 -8 0
-15 -4 -15 -10z"/>
<path d="M4180 8240 c0 -7 142 -10 405 -10 263 0 405 3 405 10 0 7 -142 10
-405 10 -263 0 -405 -3 -405 -10z"/>
<path d="M6135 8240 c-4 -7 290 -10 875 -10 585 0 879 3 875 10 -4 7 -307 10
-875 10 -568 0 -871 -3 -875 -10z"/>
<path d="M3260 8200 c0 -5 7 -10 15 -10 8 0 15 5 15 10 0 6 -7 10 -15 10 -8 0
-15 -4 -15 -10z"/>
<path d="M4160 8200 c0 -6 140 -10 399 -10 256 0 402 4 406 10 4 7 -132 10
-399 10 -264 0 -406 -3 -406 -10z"/>
<path d="M6095 8200 c-4 -7 300 -10 905 -10 605 0 909 3 905 10 -4 7 -317 10
-905 10 -588 0 -901 -3 -905 -10z"/>
<path d="M3270 8160 c0 -5 5 -10 10 -10 6 0 10 5 10 10 0 6 -4 10 -10 10 -5 0
-10 -4 -10 -10z"/>
<path d="M4150 8160 c0 -6 111 -10 314 -10 199 0 317 4 321 10 4 7 -103 10
-314 10 -207 0 -321 -4 -321 -10z"/>
<path d="M4860 8160 c0 -5 20 -10 45 -10 25 0 45 5 45 10 0 6 -20 10 -45 10
-25 0 -45 -4 -45 -10z"/>
<path d="M6050 8160 c-10 -6 315 -10 928 -10 621 0 942 3 942 10 0 14 -1849
14 -1870 0z"/>
<path d="M4130 8120 c0 -6 110 -10 309 -10 196 0 312 4 316 10 4 7 -102 10
-309 10 -204 0 -316 -4 -316 -10z"/>
<path d="M4860 8120 c0 -5 18 -10 40 -10 22 0 40 5 40 10 0 6 -18 10 -40 10
-22 0 -40 -4 -40 -10z"/>
<path d="M6005 8120 c-4 -7 322 -10 970 -10 648 0 974 3 970 10 -4 7 -338 10
-970 10 -632 0 -966 -3 -970 -10z"/>
<path d="M4115 8080 c-4 -7 100 -10 304 -10 201 0 311 4 311 10 0 6 -108 10
-304 10 -193 0 -307 -4 -311 -10z"/>
<path d="M4870 8080 c0 -5 16 -10 35 -10 19 0 35 5 35 10 0 6 -16 10 -35 10
-19 0 -35 -4 -35 -10z"/>
<path d="M5965 8080 c-4 -7 333 -10 1005 -10 672 0 1009 3 1005 10 -4 7 -350
10 -1005 10 -655 0 -1001 -3 -1005 -10z"/>
<path d="M3280 8040 c0 -5 5 -10 10 -10 6 0 10 5 10 10 0 6 -4 10 -10 10 -5 0
-10 -4 -10 -10z"/>
<path d="M4095 8040 c-4 -7 100 -10 304 -10 196 0 312 4 316 10 4 7 -100 10
-304 10 -196 0 -312 -4 -316 -10z"/>
<path d="M4890 8040 c0 -5 9 -10 20 -10 11 0 20 5 20 10 0 6 -9 10 -20 10 -11
0 -20 -4 -20 -10z"/>
<path d="M5855 8040 c-22 -4 452 -8 1053 -8 685 -1 1090 3 1087 9 -7 11 -2078
10 -2140 -1z"/>
<path d="M4075 8000 c-4 -7 102 -10 309 -10 204 0 316 4 316 10 0 6 -110 10
-309 10 -196 0 -312 -4 -316 -10z"/>
<path d="M4905 8000 c3 -5 10 -10 16 -10 5 0 9 5 9 10 0 6 -7 10 -16 10 -8 0
-12 -4 -9 -10z"/>
<path d="M5625 8000 c-11 -5 320 -9 770 -9 494 0 796 3 805 9 19 12 -1546 12
-1575 0z"/>
<path d="M7420 8000 c21 -13 600 -13 600 0 0 6 -109 10 -307 10 -203 0 -303
-4 -293 -10z"/>
<path d="M4060 7960 c0 -6 112 -10 315 -10 203 0 315 4 315 10 0 6 -112 10
-315 10 -203 0 -315 -4 -315 -10z"/>
<path d="M5590 7960 c0 -7 265 -10 774 -10 506 0 777 3 781 10 4 7 -257 10
-774 10 -514 0 -781 -3 -781 -10z"/>
<path d="M7440 7960 c0 -6 105 -10 295 -10 190 0 295 4 295 10 0 6 -105 10
-295 10 -190 0 -295 -4 -295 -10z"/>
<path d="M4045 7920 c-4 -7 105 -10 319 -10 211 0 326 4 326 10 0 6 -113 10
-319 10 -203 0 -322 -4 -326 -10z"/>
<path d="M5615 7920 c8 -13 65 -13 85 0 11 7 0 10 -38 10 -33 0 -51 -4 -47
-10z"/>
<path d="M5770 7920 c21 -13 1327 -13 1335 0 4 7 -222 10 -672 10 -441 0 -673
-4 -663 -10z"/>
<path d="M7450 7920 c0 -6 103 -10 290 -10 187 0 290 4 290 10 0 6 -103 10
-290 10 -187 0 -290 -4 -290 -10z"/>
<path d="M3290 7880 c0 -5 5 -10 10 -10 6 0 10 5 10 10 0 6 -4 10 -10 10 -5 0
-10 -4 -10 -10z"/>
<path d="M4025 7880 c-4 -7 108 -10 329 -10 217 0 336 4 336 10 0 6 -116 10
-329 10 -209 0 -332 -4 -336 -10z"/>
<path d="M5825 7880 c4 -6 222 -10 620 -10 398 0 616 4 620 10 4 7 -205 10
-620 10 -415 0 -624 -3 -620 -10z"/>
<path d="M7460 7880 c0 -6 105 -10 296 -10 194 0 293 3 289 10 -4 6 -113 10
-296 10 -186 0 -289 -4 -289 -10z"/>
<path d="M3290 7840 c0 -5 5 -10 10 -10 6 0 10 5 10 10 0 6 -4 10 -10 10 -5 0
-10 -4 -10 -10z"/>
<path d="M4010 7840 c0 -6 120 -10 340 -10 220 0 340 4 340 10 0 6 -120 10
-340 10 -220 0 -340 -4 -340 -10z"/>
<path d="M5845 7840 c4 -6 212 -10 590 -10 378 0 586 4 590 10 4 7 -195 10
-590 10 -395 0 -594 -3 -590 -10z"/>
<path d="M7470 7840 c0 -6 107 -10 301 -10 197 0 298 3 294 10 -4 6 -115 10
-301 10 -189 0 -294 -4 -294 -10z"/>
<path d="M3290 7800 c0 -5 5 -10 10 -10 6 0 10 5 10 10 0 6 -4 10 -10 10 -5 0
-10 -4 -10 -10z"/>
<path d="M3995 7800 c-4 -7 115 -10 349 -10 231 0 356 4 356 10 0 6 -123 10
-349 10 -223 0 -352 -4 -356 -10z"/>
<path d="M5870 7800 c0 -7 191 -10 554 -10 359 0 557 4 561 10 4 7 -183 10
-554 10 -367 0 -561 -3 -561 -10z"/>
<path d="M7495 7800 c4 -6 115 -10 301 -10 194 0 293 3 289 10 -4 6 -115 10
-301 10 -194 0 -293 -3 -289 -10z"/>
<path d="M3290 7760 c0 -5 7 -10 15 -10 8 0 15 5 15 10 0 6 -7 10 -15 10 -8 0
-15 -4 -15 -10z"/>
<path d="M3980 7760 c0 -6 127 -10 360 -10 233 0 360 4 360 10 0 6 -127 10
-360 10 -233 0 -360 -4 -360 -10z"/>
<path d="M5905 7760 c8 -13 1032 -14 1040 0 4 7 -166 10 -520 10 -332 0 -524
-4 -520 -10z"/>
<path d="M7500 7760 c0 -6 109 -10 306 -10 201 0 303 3 299 10 -4 6 -117 10
-306 10 -193 0 -299 -4 -299 -10z"/>
<path d="M3290 7720 c0 -5 7 -10 15 -10 8 0 15 5 15 10 0 6 -7 10 -15 10 -8 0
-15 -4 -15 -10z"/>
<path d="M3960 7720 c0 -6 134 -10 381 -10 251 0 378 3 374 10 -4 6 -142 10
-381 10 -243 0 -374 -4 -374 -10z"/>
<path d="M6105 7720 c8 -13 764 -13 785 0 10 6 -124 10 -388 10 -266 0 -401
-3 -397 -10z"/>
<path d="M7525 7720 c4 -6 117 -10 306 -10 198 0 298 3 294 10 -4 6 -117 10
-306 10 -198 0 -298 -3 -294 -10z"/>
<path d="M3280 7680 c0 -5 12 -10 26 -10 14 0 23 4 19 10 -3 6 -15 10 -26 10
-10 0 -19 -4 -19 -10z"/>
<path d="M3945 7680 c-4 -7 128 -10 390 -10 262 0 394 3 390 10 -4 6 -145 10
-390 10 -245 0 -386 -4 -390 -10z"/>
<path d="M6145 7680 c4 -6 130 -10 345 -10 215 0 341 4 345 10 4 7 -113 10
-345 10 -232 0 -349 -3 -345 -10z"/>
<path d="M7565 7680 c29 -13 588 -13 580 0 -4 6 -115 10 -303 9 -175 0 -289
-4 -277 -9z"/>
<path d="M3280 7640 c0 -5 9 -10 19 -10 11 0 23 5 26 10 4 6 -5 10 -19 10 -14
0 -26 -4 -26 -10z"/>
<path d="M3930 7640 c0 -7 142 -10 405 -10 263 0 405 3 405 10 0 7 -142 10
-405 10 -263 0 -405 -3 -405 -10z"/>
<path d="M6150 7640 c0 -13 619 -13 640 0 10 6 -97 10 -312 10 -212 0 -328 -4
-328 -10z"/>
<path d="M7595 7640 c4 -6 112 -10 291 -10 188 0 283 3 279 10 -4 6 -112 10
-291 10 -188 0 -283 -3 -279 -10z"/>
<path d="M3300 7600 c0 -5 5 -10 10 -10 6 0 10 5 10 10 0 6 -4 10 -10 10 -5 0
-10 -4 -10 -10z"/>
<path d="M3915 7600 c-4 -7 138 -10 420 -10 282 0 424 3 420 10 -4 6 -155 10
-420 10 -265 0 -416 -4 -420 -10z"/>
<path d="M6125 7600 c-4 -7 100 -10 304 -10 196 0 312 4 316 10 4 7 -100 10
-304 10 -196 0 -312 -4 -316 -10z"/>
<path d="M7625 7600 c4 -6 110 -10 286 -10 184 0 278 3 274 10 -4 6 -110 10
-286 10 -184 0 -278 -3 -274 -10z"/>
<path d="M3305 7560 c3 -5 8 -10 11 -10 2 0 4 5 4 10 0 6 -5 10 -11 10 -5 0
-7 -4 -4 -10z"/>
<path d="M3900 7560 c0 -7 152 -10 435 -10 283 0 435 3 435 10 0 7 -152 10
-435 10 -283 0 -435 -3 -435 -10z"/>
<path d="M6100 7560 c0 -6 45 -10 114 -10 66 0 117 4 121 10 4 6 -37 10 -114
10 -74 0 -121 -4 -121 -10z"/>
<path d="M6355 7560 c4 -6 75 -10 180 -10 105 0 176 4 180 10 4 7 -58 10 -180
10 -122 0 -184 -3 -180 -10z"/>
<path d="M7640 7560 c0 -6 102 -10 286 -10 187 0 283 3 279 10 -4 6 -110 10
-286 10 -179 0 -279 -4 -279 -10z"/>
<path d="M3310 7520 c0 -5 5 -10 10 -10 6 0 10 5 10 10 0 6 -4 10 -10 10 -5 0
-10 -4 -10 -10z"/>
<path d="M3880 7520 c0 -7 155 -10 445 -10 290 0 445 3 445 10 0 7 -155 10
-445 10 -290 0 -445 -3 -445 -10z"/>
<path d="M6075 7520 c-4 -6 33 -10 104 -10 62 0 112 4 116 10 4 6 -33 10 -104
10 -62 0 -112 -4 -116 -10z"/>
<path d="M6360 7520 c0 -6 60 -10 159 -10 96 0 162 4 166 10 4 7 -52 10 -159
10 -104 0 -166 -4 -166 -10z"/>
<path d="M7695 7520 c4 -6 103 -10 266 -10 166 0 259 4 259 10 0 6 -95 10
-266 10 -174 0 -263 -3 -259 -10z"/>
<path d="M3320 7480 c0 -5 5 -10 10 -10 6 0 10 5 10 10 0 6 -4 10 -10 10 -5 0
-10 -4 -10 -10z"/>
<path d="M3860 7480 c0 -7 157 -10 450 -10 293 0 450 3 450 10 0 7 -157 10
-450 10 -293 0 -450 -3 -450 -10z"/>
<path d="M6050 7480 c0 -6 41 -10 104 -10 59 0 108 4 111 10 4 6 -33 10 -104
10 -67 0 -111 -4 -111 -10z"/>
<path d="M6350 7480 c0 -6 58 -10 155 -10 97 0 155 4 155 10 0 6 -58 10 -155
10 -97 0 -155 -4 -155 -10z"/>
<path d="M7715 7480 c4 -6 103 -10 266 -10 166 0 259 4 259 10 0 6 -95 10
-266 10 -174 0 -263 -3 -259 -10z"/>
<path d="M3320 7440 c0 -5 5 -10 10 -10 6 0 10 5 10 10 0 6 -4 10 -10 10 -5 0
-10 -4 -10 -10z"/>
<path d="M3840 7440 c0 -7 156 -10 449 -10 289 0 452 4 456 10 4 7 -148 10
-449 10 -297 0 -456 -3 -456 -10z"/>
<path d="M6020 7440 c0 -6 40 -10 99 -10 56 0 103 4 106 10 4 6 -32 10 -99 10
-64 0 -106 -4 -106 -10z"/>
<path d="M6340 7440 c0 -6 57 -10 150 -10 93 0 150 4 150 10 0 6 -57 10 -150
10 -93 0 -150 -4 -150 -10z"/>
<path d="M7745 7440 c4 -6 100 -10 256 -10 159 0 249 4 249 10 0 6 -92 10
-256 10 -167 0 -253 -3 -249 -10z"/>
<path d="M3320 7400 c0 -5 7 -10 15 -10 8 0 15 5 15 10 0 6 -7 10 -15 10 -8 0
-15 -4 -15 -10z"/>
<path d="M3815 7400 c-4 -7 150 -10 454 -10 301 0 461 3 461 10 0 7 -158 10
-454 10 -293 0 -457 -4 -461 -10z"/>
<path d="M5985 7400 c-8 -13 175 -13 195 0 10 7 -17 10 -87 10 -57 0 -105 -4
-108 -10z"/>
<path d="M6340 7400 c0 -6 53 -10 140 -10 87 0 140 4 140 10 0 6 -53 10 -140
10 -87 0 -140 -4 -140 -10z"/>
<path d="M7775 7400 c4 -6 98 -10 251 -10 156 0 244 4 244 10 0 6 -90 10 -251
10 -164 0 -248 -3 -244 -10z"/>
<path d="M3330 7360 c0 -5 4 -10 9 -10 6 0 13 5 16 10 3 6 -1 10 -9 10 -9 0
-16 -4 -16 -10z"/>
<path d="M3775 7360 c-4 -7 155 -10 469 -10 311 0 476 3 476 10 0 7 -163 10
-469 10 -303 0 -472 -4 -476 -10z"/>
<path d="M5965 7360 c-8 -13 125 -13 145 0 10 7 -9 10 -62 10 -42 0 -80 -4
-83 -10z"/>
<path d="M6330 7360 c0 -6 51 -10 134 -10 79 0 137 4 141 10 4 6 -43 10 -134
10 -87 0 -141 -4 -141 -10z"/>
<path d="M7790 7360 c0 -6 88 -10 245 -10 157 0 245 4 245 10 0 6 -88 10 -245
10 -157 0 -245 -4 -245 -10z"/>
<path d="M3330 7320 c0 -5 7 -10 15 -10 8 0 15 5 15 10 0 6 -7 10 -15 10 -8 0
-15 -4 -15 -10z"/>
<path d="M3740 7320 c0 -7 166 -10 479 -10 309 0 482 4 486 10 4 7 -158 10
-479 10 -317 0 -486 -3 -486 -10z"/>
<path d="M6330 7320 c0 -6 48 -10 124 -10 73 0 127 4 131 10 4 6 -40 10 -124
10 -81 0 -131 -4 -131 -10z"/>
<path d="M7795 7320 c4 -6 100 -10 256 -10 164 0 248 3 244 10 -4 6 -100 10
-256 10 -164 0 -248 -3 -244 -10z"/>
<path d="M3330 7280 c0 -5 9 -10 20 -10 11 0 20 5 20 10 0 6 -9 10 -20 10 -11
0 -20 -4 -20 -10z"/>
<path d="M3740 7280 c0 -7 165 -10 474 -10 306 0 477 4 481 10 4 7 -157 10
-474 10 -314 0 -481 -3 -481 -10z"/>
<path d="M6320 7280 c0 -6 48 -10 125 -10 77 0 125 4 125 10 0 6 -48 10 -125
10 -77 0 -125 -4 -125 -10z"/>
<path d="M7800 7280 c0 -6 92 -10 255 -10 163 0 255 4 255 10 0 6 -92 10 -255
10 -163 0 -255 -4 -255 -10z"/>
<path d="M3330 7240 c0 -5 6 -10 14 -10 8 0 18 5 21 10 3 6 -3 10 -14 10 -12
0 -21 -4 -21 -10z"/>
<path d="M3730 7240 c0 -7 165 -10 475 -10 310 0 475 3 475 10 0 7 -165 10
-475 10 -310 0 -475 -3 -475 -10z"/>
<path d="M6320 7240 c0 -6 47 -10 120 -10 73 0 120 4 120 10 0 6 -47 10 -120
10 -73 0 -120 -4 -120 -10z"/>
<path d="M7820 7240 c0 -6 92 -10 256 -10 167 0 253 3 249 10 -4 6 -100 10
-256 10 -159 0 -249 -4 -249 -10z"/>
<path d="M3330 7200 c0 -5 9 -10 20 -10 11 0 20 5 20 10 0 6 -9 10 -20 10 -11
0 -20 -4 -20 -10z"/>
<path d="M3730 7200 c0 -7 161 -10 464 -10 299 0 467 4 471 10 4 7 -153 10
-464 10 -307 0 -471 -3 -471 -10z"/>
<path d="M6310 7200 c0 -6 47 -10 120 -10 73 0 120 4 120 10 0 6 -47 10 -120
10 -73 0 -120 -4 -120 -10z"/>
<path d="M7840 7200 c0 -6 90 -10 250 -10 160 0 250 4 250 10 0 6 -90 10 -250
10 -160 0 -250 -4 -250 -10z"/>
<path d="M3330 7160 c0 -5 11 -10 25 -10 14 0 25 5 25 10 0 6 -11 10 -25 10
-14 0 -25 -4 -25 -10z"/>
<path d="M3720 7160 c0 -7 162 -10 465 -10 303 0 465 3 465 10 0 7 -162 10
-465 10 -303 0 -465 -3 -465 -10z"/>
<path d="M6300 7160 c0 -6 46 -10 119 -10 69 0 122 4 126 10 4 6 -38 10 -119
10 -77 0 -126 -4 -126 -10z"/>
<path d="M7870 7160 c0 -6 87 -10 240 -10 153 0 240 4 240 10 0 6 -87 10 -240
10 -153 0 -240 -4 -240 -10z"/>
<path d="M3330 7120 c0 -5 11 -10 25 -10 14 0 25 5 25 10 0 6 -11 10 -25 10
-14 0 -25 -4 -25 -10z"/>
<path d="M3705 7120 c-4 -7 153 -10 464 -10 307 0 471 3 471 10 0 7 -161 10
-464 10 -299 0 -467 -4 -471 -10z"/>
<path d="M6300 7120 c0 -6 47 -10 120 -10 73 0 120 4 120 10 0 6 -47 10 -120
10 -73 0 -120 -4 -120 -10z"/>
<path d="M7870 7120 c0 -6 88 -10 245 -10 157 0 245 4 245 10 0 6 -88 10 -245
10 -157 0 -245 -4 -245 -10z"/>
<path d="M3330 7080 c0 -5 11 -10 25 -10 14 0 25 5 25 10 0 6 -11 10 -25 10
-14 0 -25 -4 -25 -10z"/>
<path d="M3685 7080 c-4 -7 153 -10 464 -10 302 0 472 4 476 10 4 7 -153 10
-464 10 -302 0 -472 -4 -476 -10z"/>
<path d="M6285 7080 c-4 -6 38 -10 119 -10 77 0 126 4 126 10 0 6 -46 10 -119
10 -69 0 -122 -4 -126 -10z"/>
<path d="M7910 7080 c21 -13 473 -13 465 0 -4 6 -96 10 -243 10 -157 0 -232
-4 -222 -10z"/>
<path d="M3340 7040 c0 -5 9 -10 20 -10 11 0 20 5 20 10 0 6 -9 10 -20 10 -11
0 -20 -4 -20 -10z"/>
<path d="M3670 7040 c0 -7 163 -10 470 -10 307 0 470 3 470 10 0 7 -163 10
-470 10 -307 0 -470 -3 -470 -10z"/>
<path d="M6255 7040 c-4 -6 41 -10 129 -10 79 0 137 4 141 10 4 6 -41 10 -129
10 -79 0 -137 -4 -141 -10z"/>
<path d="M7935 7040 c4 -6 92 -10 231 -10 148 0 223 3 219 10 -4 6 -92 10
-231 10 -148 0 -223 -3 -219 -10z"/>
<path d="M3340 7000 c0 -5 7 -10 15 -10 8 0 15 5 15 10 0 6 -7 10 -15 10 -8 0
-15 -4 -15 -10z"/>
<path d="M3655 7000 c-4 -7 155 -10 469 -10 311 0 476 3 476 10 0 7 -163 10
-469 10 -303 0 -472 -4 -476 -10z"/>
<path d="M6195 7000 c-4 -7 52 -10 159 -10 104 0 166 4 166 10 0 6 -60 10
-159 10 -96 0 -162 -4 -166 -10z"/>
<path d="M7970 7000 c0 -6 78 -10 215 -10 137 0 215 4 215 10 0 6 -78 10 -215
10 -137 0 -215 -4 -215 -10z"/>
<path d="M3340 6960 c0 -5 9 -10 20 -10 11 0 20 5 20 10 0 6 -9 10 -20 10 -11
0 -20 -4 -20 -10z"/>
<path d="M3645 6960 c-4 -7 155 -10 469 -10 311 0 476 3 476 10 0 7 -163 10
-469 10 -303 0 -472 -4 -476 -10z"/>
<path d="M6130 6960 c-10 -6 51 -10 182 -10 121 0 199 4 203 10 8 13 -365 13
-385 0z"/>
<path d="M7985 6960 c4 -6 89 -10 221 -10 141 0 213 3 209 10 -4 6 -89 10
-221 10 -141 0 -213 -3 -209 -10z"/>
<path d="M3350 6920 c0 -5 5 -10 10 -10 6 0 10 5 10 10 0 6 -4 10 -10 10 -5 0
-10 -4 -10 -10z"/>
<path d="M3630 6920 c0 -7 165 -10 475 -10 310 0 475 3 475 10 0 7 -165 10
-475 10 -310 0 -475 -3 -475 -10z"/>
<path d="M6060 6920 c-10 -6 64 -10 218 -10 148 0 232 4 232 10 0 13 -430 13
-450 0z"/>
<path d="M8025 6920 c4 -6 83 -10 206 -10 126 0 199 4 199 10 0 6 -75 10 -206
10 -134 0 -203 -3 -199 -10z"/>
<path d="M3350 6880 c0 -5 7 -10 15 -10 8 0 15 5 15 10 0 6 -7 10 -15 10 -8 0
-15 -4 -15 -10z"/>
<path d="M3610 6880 c0 -7 167 -10 480 -10 313 0 480 3 480 10 0 7 -167 10
-480 10 -313 0 -480 -3 -480 -10z"/>
<path d="M6040 6880 c0 -6 85 -10 235 -10 150 0 235 4 235 10 0 6 -85 10 -235
10 -150 0 -235 -4 -235 -10z"/>
<path d="M8050 6880 c0 -6 74 -10 201 -10 131 0 198 3 194 10 -4 6 -82 10
-201 10 -123 0 -194 -4 -194 -10z"/>
<path d="M3360 6840 c0 -5 5 -10 10 -10 6 0 10 5 10 10 0 6 -4 10 -10 10 -5 0
-10 -4 -10 -10z"/>
<path d="M3590 6840 c0 -7 168 -10 485 -10 317 0 485 3 485 10 0 7 -168 10
-485 10 -317 0 -485 -3 -485 -10z"/>
<path d="M6085 6840 c46 -12 435 -12 435 0 0 6 -83 10 -232 9 -130 -1 -220 -5
-203 -9z"/>
<path d="M8060 6840 c0 -6 75 -10 206 -10 134 0 203 3 199 10 -4 6 -83 10
-206 10 -126 0 -199 -4 -199 -10z"/>
<path d="M3360 6800 c0 -5 5 -10 10 -10 6 0 10 5 10 10 0 6 -4 10 -10 10 -5 0
-10 -4 -10 -10z"/>
<path d="M3575 6800 c-4 -7 160 -10 484 -10 321 0 491 3 491 10 0 7 -168 10
-484 10 -313 0 -487 -4 -491 -10z"/>
<path d="M6250 6800 c0 -6 52 -10 135 -10 83 0 135 4 135 10 0 6 -52 10 -135
10 -83 0 -135 -4 -135 -10z"/>
<path d="M8105 6800 c4 -6 80 -10 196 -10 124 0 188 3 184 10 -4 6 -80 10
-196 10 -124 0 -188 -3 -184 -10z"/>
<path d="M3360 6760 c0 -5 7 -10 16 -10 8 0 12 5 9 10 -3 6 -10 10 -16 10 -5
0 -9 -4 -9 -10z"/>
<path d="M3560 6760 c0 -7 170 -10 490 -10 320 0 490 3 490 10 0 7 -170 10
-490 10 -320 0 -490 -3 -490 -10z"/>
<path d="M6250 6760 c0 -6 53 -10 140 -10 87 0 140 4 140 10 0 6 -53 10 -140
10 -87 0 -140 -4 -140 -10z"/>
<path d="M8125 6760 c-4 -7 63 -10 195 -10 132 0 199 3 195 10 -4 6 -80 10
-195 10 -115 0 -191 -4 -195 -10z"/>
<path d="M3360 6720 c0 -5 7 -10 16 -10 8 0 12 5 9 10 -3 6 -10 10 -16 10 -5
0 -9 -4 -9 -10z"/>
<path d="M3545 6720 c-4 -7 161 -10 489 -10 319 0 497 4 501 10 4 7 -161 10
-489 10 -319 0 -497 -4 -501 -10z"/>
<path d="M6250 6720 c0 -6 55 -10 145 -10 90 0 145 4 145 10 0 6 -55 10 -145
10 -90 0 -145 -4 -145 -10z"/>
<path d="M8145 6720 c4 -6 82 -10 201 -10 128 0 193 3 189 10 -4 6 -82 10
-201 10 -128 0 -193 -3 -189 -10z"/>
<path d="M3360 6680 c0 -5 5 -10 10 -10 6 0 10 5 10 10 0 6 -4 10 -10 10 -5 0
-10 -4 -10 -10z"/>
<path d="M3525 6680 c-4 -7 165 -10 499 -10 331 0 506 3 506 10 0 7 -173 10
-499 10 -323 0 -502 -4 -506 -10z"/>
<path d="M6250 6680 c0 -6 55 -10 145 -10 90 0 145 4 145 10 0 6 -55 10 -145
10 -90 0 -145 -4 -145 -10z"/>
<path d="M8150 6680 c0 -6 75 -10 205 -10 130 0 205 4 205 10 0 6 -75 10 -205
10 -130 0 -205 -4 -205 -10z"/>
<path d="M3360 6640 c0 -5 7 -10 16 -10 8 0 12 5 9 10 -3 6 -10 10 -16 10 -5
0 -9 -4 -9 -10z"/>
<path d="M3510 6640 c0 -7 175 -10 505 -10 330 0 505 3 505 10 0 7 -175 10
-505 10 -330 0 -505 -3 -505 -10z"/>
<path d="M6240 6640 c0 -6 58 -10 155 -10 97 0 155 4 155 10 0 6 -58 10 -155
10 -97 0 -155 -4 -155 -10z"/>
<path d="M8180 6640 c0 -6 75 -10 206 -10 134 0 203 3 199 10 -4 6 -83 10
-206 10 -126 0 -199 -4 -199 -10z"/>
<path d="M3360 6600 c0 -5 5 -10 10 -10 6 0 10 5 10 10 0 6 -4 10 -10 10 -5 0
-10 -4 -10 -10z"/>
<path d="M3490 6600 c0 -7 176 -10 509 -10 329 0 512 4 516 10 4 7 -168 10
-509 10 -337 0 -516 -3 -516 -10z"/>
<path d="M6230 6600 c0 -6 63 -10 170 -10 107 0 170 4 170 10 0 6 -63 10 -170
10 -107 0 -170 -4 -170 -10z"/>
<path d="M8170 6600 c0 -6 80 -10 220 -10 140 0 220 4 220 10 0 6 -80 10 -220
10 -140 0 -220 -4 -220 -10z"/>
<path d="M3360 6560 c0 -5 5 -10 10 -10 6 0 10 5 10 10 0 6 -4 10 -10 10 -5 0
-10 -4 -10 -10z"/>
<path d="M3475 6560 c-4 -7 170 -10 514 -10 341 0 521 3 521 10 0 7 -178 10
-514 10 -333 0 -517 -4 -521 -10z"/>
<path d="M6230 6560 c0 -6 67 -10 180 -10 113 0 180 4 180 10 0 6 -67 10 -180
10 -113 0 -180 -4 -180 -10z"/>
<path d="M8195 6560 c4 -6 88 -10 221 -10 136 0 214 4 214 10 0 6 -80 10 -221
10 -144 0 -218 -3 -214 -10z"/>
<path d="M3350 6520 c0 -5 9 -10 20 -10 11 0 20 5 20 10 0 6 -9 10 -20 10 -11
0 -20 -4 -20 -10z"/>
<path d="M3455 6520 c-4 -7 172 -10 519 -10 344 0 526 3 526 10 0 7 -180 10
-519 10 -336 0 -522 -4 -526 -10z"/>
<path d="M6220 6520 c0 -6 72 -10 195 -10 123 0 195 4 195 10 0 6 -72 10 -195
10 -123 0 -195 -4 -195 -10z"/>
<path d="M8225 6520 c4 -6 89 -10 221 -10 141 0 213 3 209 10 -4 6 -89 10
-221 10 -141 0 -213 -3 -209 -10z"/>
<path d="M3340 6480 c0 -5 9 -10 19 -10 11 0 23 5 26 10 4 6 -5 10 -19 10 -14
0 -26 -4 -26 -10z"/>
<path d="M3445 6480 c-4 -7 173 -10 524 -10 347 0 531 3 531 10 0 7 -181 10
-524 10 -339 0 -527 -4 -531 -10z"/>
<path d="M6210 6480 c0 -6 79 -10 216 -10 141 0 213 3 209 10 -4 6 -87 10
-216 10 -133 0 -209 -4 -209 -10z"/>
<path d="M8240 6480 c0 -6 80 -10 221 -10 144 0 218 3 214 10 -4 6 -88 10
-221 10 -136 0 -214 -4 -214 -10z"/>
<path d="M3325 6440 c-4 -6 7 -10 24 -10 17 0 31 5 31 10 0 6 -11 10 -24 10
-14 0 -28 -4 -31 -10z"/>
<path d="M3425 6440 c-4 -7 175 -10 529 -10 351 0 536 3 536 10 0 7 -183 10
-529 10 -343 0 -532 -4 -536 -10z"/>
<path d="M6210 6440 c0 -6 82 -10 226 -10 147 0 223 3 219 10 -4 6 -90 10
-226 10 -139 0 -219 -4 -219 -10z"/>
<path d="M8255 6440 c4 -6 90 -10 226 -10 139 0 219 4 219 10 0 6 -82 10 -226
10 -147 0 -223 -3 -219 -10z"/>
<path d="M3310 6400 c0 -6 213 -10 585 -10 388 0 585 3 585 10 0 7 -197 10
-585 10 -372 0 -585 -4 -585 -10z"/>
<path d="M6200 6400 c0 -6 87 -10 241 -10 157 0 238 3 234 10 -4 6 -95 10
-241 10 -149 0 -234 -4 -234 -10z"/>
<path d="M8260 6400 c0 -6 85 -10 236 -10 154 0 233 3 229 10 -4 6 -93 10
-236 10 -146 0 -229 -4 -229 -10z"/>
<path d="M3310 6360 c0 -7 200 -10 579 -10 376 0 582 4 586 10 4 7 -192 10
-579 10 -384 0 -586 -3 -586 -10z"/>
<path d="M6190 6360 c0 -6 92 -10 255 -10 163 0 255 4 255 10 0 6 -92 10 -255
10 -163 0 -255 -4 -255 -10z"/>
<path d="M8285 6360 c4 -6 93 -10 236 -10 146 0 229 4 229 10 0 6 -85 10 -236
10 -154 0 -233 -3 -229 -10z"/>
<path d="M3310 6320 c0 -7 200 -10 580 -10 380 0 580 3 580 10 0 7 -200 10
-580 10 -380 0 -580 -3 -580 -10z"/>
<path d="M6180 6320 c0 -6 97 -10 270 -10 173 0 270 4 270 10 0 6 -97 10 -270
10 -173 0 -270 -4 -270 -10z"/>
<path d="M8315 6320 c4 -6 92 -10 231 -10 143 0 224 4 224 10 0 6 -84 10 -231
10 -151 0 -228 -3 -224 -10z"/>
<path d="M3310 6280 c0 -7 198 -10 575 -10 377 0 575 3 575 10 0 7 -198 10
-575 10 -377 0 -575 -3 -575 -10z"/>
<path d="M6180 6280 c0 -6 58 -10 155 -10 97 0 155 4 155 10 0 6 -58 10 -155
10 -97 0 -155 -4 -155 -10z"/>
<path d="M6500 6280 c0 -6 47 -10 120 -10 73 0 120 4 120 10 0 6 -47 10 -120
10 -73 0 -120 -4 -120 -10z"/>
<path d="M8320 6280 c0 -6 87 -10 241 -10 157 0 238 3 234 10 -4 6 -95 10
-241 10 -149 0 -234 -4 -234 -10z"/>
<path d="M3295 6240 c-4 -7 190 -10 574 -10 376 0 582 4 586 10 4 7 -190 10
-574 10 -376 0 -582 -4 -586 -10z"/>
<path d="M6170 6240 c0 -6 60 -10 160 -10 100 0 160 4 160 10 0 6 -60 10 -160
10 -100 0 -160 -4 -160 -10z"/>
<path d="M6510 6240 c0 -6 48 -10 125 -10 77 0 125 4 125 10 0 6 -48 10 -125
10 -77 0 -125 -4 -125 -10z"/>
<path d="M8365 6240 c29 -12 455 -12 455 0 0 6 -85 10 -237 9 -142 0 -230 -4
-218 -9z"/>
<path d="M3280 6200 c0 -7 202 -10 585 -10 383 0 585 3 585 10 0 7 -202 10
-585 10 -383 0 -585 -3 -585 -10z"/>
<path d="M6160 6200 c0 -6 62 -10 165 -10 103 0 165 4 165 10 0 6 -62 10 -165
10 -103 0 -165 -4 -165 -10z"/>
<path d="M6510 6200 c0 -6 52 -10 135 -10 83 0 135 4 135 10 0 6 -52 10 -135
10 -83 0 -135 -4 -135 -10z"/>
<path d="M8405 6200 c4 -6 90 -10 226 -10 139 0 219 4 219 10 0 6 -82 10 -226
10 -147 0 -223 -3 -219 -10z"/>
<path d="M3260 6160 c0 -7 203 -10 590 -10 387 0 590 3 590 10 0 7 -203 10
-590 10 -387 0 -590 -3 -590 -10z"/>
<path d="M6160 6160 c0 -6 62 -10 166 -10 107 0 163 3 159 10 -4 6 -70 10
-166 10 -99 0 -159 -4 -159 -10z"/>
<path d="M6510 6160 c0 -6 55 -10 146 -10 94 0 143 4 139 10 -4 6 -63 10 -146
10 -86 0 -139 -4 -139 -10z"/>
<path d="M8425 6160 c4 -6 94 -10 236 -10 151 0 228 3 224 10 -4 6 -94 10
-236 10 -151 0 -228 -3 -224 -10z"/>
<path d="M3235 6120 c-4 -7 197 -10 594 -10 394 0 601 3 601 10 0 7 -205 10
-594 10 -386 0 -597 -4 -601 -10z"/>
<path d="M6150 6120 c0 -6 62 -10 165 -10 103 0 165 4 165 10 0 6 -62 10 -165
10 -103 0 -165 -4 -165 -10z"/>
<path d="M6515 6120 c4 -6 67 -10 156 -10 93 0 149 4 149 10 0 6 -59 10 -156
10 -101 0 -153 -3 -149 -10z"/>
<path d="M8430 6120 c0 -6 87 -10 241 -10 157 0 238 3 234 10 -4 6 -95 10
-241 10 -149 0 -234 -4 -234 -10z"/>
<path d="M3210 6080 c0 -7 208 -10 605 -10 397 0 605 3 605 10 0 7 -208 10
-605 10 -397 0 -605 -3 -605 -10z"/>
<path d="M6145 6080 c-4 -7 53 -10 164 -10 107 0 171 4 171 10 0 6 -61 10
-164 10 -99 0 -167 -4 -171 -10z"/>
<path d="M6520 6080 c0 -6 60 -10 161 -10 104 0 158 3 154 10 -4 6 -68 10
-161 10 -96 0 -154 -4 -154 -10z"/>
<path d="M8445 6080 c4 -6 97 -10 246 -10 153 0 239 4 239 10 0 6 -89 10 -246
10 -161 0 -243 -3 -239 -10z"/>
<path d="M3185 6040 c-4 -7 200 -10 604 -10 396 0 612 4 616 10 4 7 -200 10
-604 10 -396 0 -612 -4 -616 -10z"/>
<path d="M6140 6040 c0 -6 63 -10 170 -10 107 0 170 4 170 10 0 6 -63 10 -170
10 -107 0 -170 -4 -170 -10z"/>
<path d="M6520 6040 c0 -6 65 -10 175 -10 110 0 175 4 175 10 0 6 -65 10 -175
10 -110 0 -175 -4 -175 -10z"/>
<path d="M8460 6040 c0 -6 90 -10 251 -10 164 0 248 3 244 10 -4 6 -98 10
-251 10 -156 0 -244 -4 -244 -10z"/>
<path d="M3190 6000 c0 -5 9 -10 19 -10 11 0 23 5 26 10 4 6 -5 10 -19 10 -14
0 -26 -4 -26 -10z"/>
<path d="M3260 6000 c0 -7 195 -10 565 -10 370 0 565 3 565 10 0 7 -195 10
-565 10 -370 0 -565 -3 -565 -10z"/>
<path d="M6130 6000 c0 -6 65 -10 175 -10 110 0 175 4 175 10 0 6 -65 10 -175
10 -110 0 -175 -4 -175 -10z"/>
<path d="M6530 6000 c0 -6 70 -10 191 -10 124 0 188 3 184 10 -4 6 -78 10
-191 10 -116 0 -184 -4 -184 -10z"/>
<path d="M8475 6000 c4 -6 102 -10 261 -10 168 0 253 3 249 10 -4 6 -102 10
-261 10 -168 0 -253 -3 -249 -10z"/>
<path d="M3260 5960 c0 -7 191 -10 554 -10 359 0 557 4 561 10 4 7 -183 10
-554 10 -367 0 -561 -3 -561 -10z"/>
<path d="M6125 5960 c-4 -7 57 -10 174 -10 114 0 181 4 181 10 0 6 -65 10
-174 10 -106 0 -177 -4 -181 -10z"/>
<path d="M6535 5960 c4 -6 87 -10 216 -10 133 0 209 4 209 10 0 6 -79 10 -216
10 -141 0 -213 -3 -209 -10z"/>
<path d="M8545 5960 c4 -6 94 -10 236 -10 151 0 228 3 224 10 -4 6 -94 10
-236 10 -151 0 -228 -3 -224 -10z"/>
<path d="M3250 5920 c0 -7 190 -10 549 -10 356 0 552 4 556 10 4 7 -182 10
-549 10 -364 0 -556 -3 -556 -10z"/>
<path d="M6120 5920 c0 -6 65 -10 175 -10 110 0 175 4 175 10 0 6 -65 10 -175
10 -110 0 -175 -4 -175 -10z"/>
<path d="M6540 5920 c0 -6 84 -10 231 -10 151 0 228 3 224 10 -4 6 -92 10
-231 10 -143 0 -224 -4 -224 -10z"/>
<path d="M8550 5920 c0 -6 87 -10 240 -10 153 0 240 4 240 10 0 6 -87 10 -240
10 -153 0 -240 -4 -240 -10z"/>
<path d="M3240 5880 c0 -7 188 -10 544 -10 353 0 547 4 551 10 4 7 -180 10
-544 10 -361 0 -551 -3 -551 -10z"/>
<path d="M6115 5880 c-4 -7 58 -10 179 -10 117 0 186 4 186 10 0 6 -66 10
-179 10 -109 0 -182 -4 -186 -10z"/>
<path d="M6545 5880 c4 -6 98 -10 251 -10 156 0 244 4 244 10 0 6 -90 10 -251
10 -164 0 -248 -3 -244 -10z"/>
<path d="M8575 5880 c4 -6 97 -10 246 -10 158 0 238 3 234 10 -4 6 -97 10
-246 10 -158 0 -238 -3 -234 -10z"/>
<path d="M3225 5840 c-4 -7 178 -10 539 -10 357 0 546 3 546 10 0 7 -186 10
-539 10 -349 0 -542 -4 -546 -10z"/>
<path d="M6110 5840 c0 -6 67 -10 180 -10 113 0 180 4 180 10 0 6 -67 10 -180
10 -113 0 -180 -4 -180 -10z"/>
<path d="M6550 5840 c0 -6 95 -10 266 -10 174 0 263 3 259 10 -4 6 -103 10
-266 10 -166 0 -259 -4 -259 -10z"/>
<path d="M8580 5840 c0 -6 90 -10 250 -10 160 0 250 4 250 10 0 6 -90 10 -250
10 -160 0 -250 -4 -250 -10z"/>
<path d="M3210 5800 c0 -7 187 -10 540 -10 353 0 540 3 540 10 0 7 -187 10
-540 10 -353 0 -540 -3 -540 -10z"/>
<path d="M6100 5800 c0 -6 68 -10 185 -10 117 0 185 4 185 10 0 6 -68 10 -185
10 -117 0 -185 -4 -185 -10z"/>
<path d="M6560 5800 c0 -6 98 -10 275 -10 177 0 275 4 275 10 0 6 -98 10 -275
10 -177 0 -275 -4 -275 -10z"/>
<path d="M8585 5800 c4 -6 104 -10 266 -10 171 0 258 3 254 10 -4 6 -104 10
-266 10 -171 0 -258 -3 -254 -10z"/>
<path d="M3195 5760 c-4 -7 175 -10 529 -10 346 0 537 4 541 10 4 7 -175 10
-529 10 -346 0 -537 -4 -541 -10z"/>
<path d="M6100 5760 c0 -6 68 -10 185 -10 117 0 185 4 185 10 0 6 -68 10 -185
10 -117 0 -185 -4 -185 -10z"/>
<path d="M6570 5760 c0 -6 102 -10 286 -10 187 0 283 3 279 10 -4 6 -110 10
-286 10 -179 0 -279 -4 -279 -10z"/>
<path d="M8625 5760 c4 -6 100 -10 256 -10 159 0 249 4 249 10 0 6 -92 10
-256 10 -167 0 -253 -3 -249 -10z"/>
<path d="M3180 5720 c0 -13 370 -13 390 0 10 6 -53 10 -187 10 -129 0 -203 -4
-203 -10z"/>
<path d="M3620 5720 c21 -13 617 -13 625 0 4 7 -104 10 -317 10 -212 0 -318
-4 -308 -10z"/>
<path d="M6090 5720 c0 -6 70 -10 190 -10 120 0 190 4 190 10 0 6 -70 10 -190
10 -120 0 -190 -4 -190 -10z"/>
<path d="M6580 5720 c0 -6 105 -10 296 -10 194 0 293 3 289 10 -4 6 -113 10
-296 10 -186 0 -289 -4 -289 -10z"/>
<path d="M8640 5720 c0 -6 94 -10 261 -10 171 0 258 3 254 10 -4 6 -102 10
-261 10 -163 0 -254 -4 -254 -10z"/>
<path d="M3165 5680 c-4 -7 58 -10 179 -10 112 0 187 4 191 10 4 7 -58 10
-179 10 -112 0 -187 -4 -191 -10z"/>
<path d="M3640 5680 c0 -6 103 -10 290 -10 187 0 290 4 290 10 0 6 -103 10
-290 10 -187 0 -290 -4 -290 -10z"/>
<path d="M6080 5680 c0 -6 72 -10 195 -10 123 0 195 4 195 10 0 6 -72 10 -195
10 -123 0 -195 -4 -195 -10z"/>
<path d="M6585 5680 c4 -6 117 -10 306 -10 193 0 299 4 299 10 0 6 -109 10
-306 10 -201 0 -303 -3 -299 -10z"/>
<path d="M8630 5680 c0 -6 99 -10 276 -10 181 0 273 3 269 10 -4 6 -107 10
-276 10 -173 0 -269 -4 -269 -10z"/>
<path d="M3150 5640 c0 -6 67 -10 180 -10 113 0 180 4 180 10 0 6 -67 10 -180
10 -113 0 -180 -4 -180 -10z"/>
<path d="M3645 5640 c4 -6 108 -10 281 -10 176 0 274 4 274 10 0 6 -100 10
-281 10 -184 0 -278 -3 -274 -10z"/>
<path d="M6080 5640 c0 -6 70 -10 190 -10 120 0 190 4 190 10 0 6 -70 10 -190
10 -120 0 -190 -4 -190 -10z"/>
<path d="M6590 5640 c0 -6 112 -10 316 -10 207 0 313 3 309 10 -4 6 -120 10
-316 10 -199 0 -309 -4 -309 -10z"/>
<path d="M8635 5640 c4 -6 110 -10 286 -10 179 0 279 4 279 10 0 6 -102 10
-286 10 -187 0 -283 -3 -279 -10z"/>
<path d="M2945 5600 c-3 -5 -1 -10 4 -10 6 0 11 5 11 10 0 6 -2 10 -4 10 -3 0
-8 -4 -11 -10z"/>
<path d="M3135 5600 c-4 -7 55 -10 169 -10 106 0 177 4 181 10 4 7 -55 10
-169 10 -106 0 -177 -4 -181 -10z"/>
<path d="M3650 5600 c0 -6 97 -10 270 -10 173 0 270 4 270 10 0 6 -97 10 -270
10 -173 0 -270 -4 -270 -10z"/>
<path d="M6070 5600 c0 -6 72 -10 195 -10 123 0 195 4 195 10 0 6 -72 10 -195
10 -123 0 -195 -4 -195 -10z"/>
<path d="M6600 5600 c0 -6 113 -10 320 -10 207 0 320 4 320 10 0 6 -113 10
-320 10 -207 0 -320 -4 -320 -10z"/>
<path d="M8675 5600 c4 -6 109 -10 281 -10 181 0 273 3 269 10 -4 6 -109 10
-281 10 -181 0 -273 -3 -269 -10z"/>
<path d="M2905 5560 c-3 -5 3 -10 14 -10 12 0 21 5 21 10 0 6 -6 10 -14 10 -8
0 -18 -4 -21 -10z"/>
<path d="M3120 5560 c0 -6 65 -10 175 -10 110 0 175 4 175 10 0 6 -65 10 -175
10 -110 0 -175 -4 -175 -10z"/>
<path d="M3650 5560 c0 -6 95 -10 265 -10 170 0 265 4 265 10 0 6 -95 10 -265
10 -170 0 -265 -4 -265 -10z"/>
<path d="M5230 5560 c0 -5 18 -10 41 -10 24 0 38 4 34 10 -3 6 -22 10 -41 10
-19 0 -34 -4 -34 -10z"/>
<path d="M6060 5560 c0 -6 73 -10 200 -10 127 0 200 4 200 10 0 6 -73 10 -200
10 -127 0 -200 -4 -200 -10z"/>
<path d="M6600 5560 c0 -6 119 -10 336 -10 221 0 333 3 329 10 -4 6 -127 10
-336 10 -213 0 -329 -4 -329 -10z"/>
<path d="M8680 5560 c0 -6 104 -10 291 -10 191 0 288 3 284 10 -4 6 -112 10
-291 10 -183 0 -284 -4 -284 -10z"/>
<path d="M2865 5520 c-3 -6 5 -10 19 -10 14 0 28 5 31 10 3 6 -5 10 -19 10
-14 0 -28 -4 -31 -10z"/>
<path d="M3105 5520 c-4 -7 55 -10 169 -10 111 0 176 4 176 10 0 6 -63 10
-169 10 -103 0 -172 -4 -176 -10z"/>
<path d="M3665 5520 c4 -6 102 -10 261 -10 163 0 254 4 254 10 0 6 -94 10
-261 10 -171 0 -258 -3 -254 -10z"/>
<path d="M5220 5520 c0 -6 27 -10 61 -10 37 0 58 4 54 10 -3 6 -31 10 -61 10
-30 0 -54 -4 -54 -10z"/>
<path d="M6060 5520 c0 -6 73 -10 200 -10 127 0 200 4 200 10 0 6 -73 10 -200
10 -127 0 -200 -4 -200 -10z"/>
<path d="M6600 5520 c0 -6 122 -10 346 -10 227 0 343 3 339 10 -4 6 -130 10
-346 10 -219 0 -339 -4 -339 -10z"/>
<path d="M8680 5520 c0 -6 107 -10 301 -10 197 0 298 3 294 10 -4 6 -115 10
-301 10 -189 0 -294 -4 -294 -10z"/>
<path d="M2825 5480 c-4 -6 8 -10 29 -10 19 0 38 5 41 10 4 6 -8 10 -29 10
-19 0 -38 -4 -41 -10z"/>
<path d="M3090 5480 c0 -6 61 -10 164 -10 99 0 167 4 171 10 4 7 -53 10 -164
10 -107 0 -171 -4 -171 -10z"/>
<path d="M3670 5480 c0 -6 92 -10 255 -10 163 0 255 4 255 10 0 6 -92 10 -255
10 -163 0 -255 -4 -255 -10z"/>
<path d="M5205 5480 c-4 -6 22 -10 69 -10 44 0 76 4 76 10 0 6 -30 10 -69 10
-39 0 -73 -4 -76 -10z"/>
<path d="M6050 5480 c0 -6 75 -10 205 -10 130 0 205 4 205 10 0 6 -75 10 -205
10 -130 0 -205 -4 -205 -10z"/>
<path d="M6600 5480 c0 -6 127 -10 360 -10 233 0 360 4 360 10 0 6 -127 10
-360 10 -233 0 -360 -4 -360 -10z"/>
<path d="M8680 5480 c0 -6 110 -10 311 -10 204 0 308 3 304 10 -4 6 -118 10
-311 10 -196 0 -304 -4 -304 -10z"/>
<path d="M2805 5440 c-4 -6 8 -10 29 -10 20 0 36 5 36 10 0 6 -13 10 -29 10
-17 0 -33 -4 -36 -10z"/>
<path d="M3080 5440 c0 -6 60 -10 160 -10 100 0 160 4 160 10 0 6 -60 10 -160
10 -100 0 -160 -4 -160 -10z"/>
<path d="M3670 5440 c0 -6 93 -10 260 -10 167 0 260 4 260 10 0 6 -93 10 -260
10 -167 0 -260 -4 -260 -10z"/>
<path d="M5175 5440 c-4 -6 30 -10 94 -10 61 0 101 4 101 10 0 6 -38 10 -94
10 -53 0 -98 -4 -101 -10z"/>
<path d="M6040 5440 c0 -6 77 -10 210 -10 133 0 210 4 210 10 0 6 -77 10 -210
10 -133 0 -210 -4 -210 -10z"/>
<path d="M6595 5440 c-4 -7 122 -10 369 -10 244 0 376 4 376 10 0 6 -130 10
-369 10 -236 0 -372 -4 -376 -10z"/>
<path d="M8688 5443 c7 -3 16 -2 19 1 4 3 -2 6 -13 5 -11 0 -14 -3 -6 -6z"/>
<path d="M8735 5440 c4 -6 114 -10 296 -10 191 0 288 3 284 10 -4 6 -114 10
-296 10 -191 0 -288 -3 -284 -10z"/>
<path d="M2775 5400 c-4 -6 10 -10 34 -10 23 0 41 5 41 10 0 6 -15 10 -34 10
-19 0 -38 -4 -41 -10z"/>
<path d="M3070 5400 c0 -6 58 -10 154 -10 93 0 157 4 161 10 4 7 -50 10 -154
10 -101 0 -161 -4 -161 -10z"/>
<path d="M3675 5400 c4 -6 103 -10 266 -10 166 0 259 4 259 10 0 6 -95 10
-266 10 -174 0 -263 -3 -259 -10z"/>
<path d="M5155 5400 c-4 -6 35 -10 109 -10 71 0 116 4 116 10 0 6 -43 10 -109
10 -63 0 -112 -4 -116 -10z"/>
<path d="M6035 5400 c-4 -7 67 -10 204 -10 134 0 211 4 211 10 0 6 -75 10
-204 10 -126 0 -207 -4 -211 -10z"/>
<path d="M6570 5400 c0 -6 138 -10 395 -10 257 0 395 4 395 10 0 6 -138 10
-395 10 -257 0 -395 -4 -395 -10z"/>
<path d="M8790 5400 c21 -13 553 -13 545 0 -4 6 -109 10 -283 10 -183 0 -272
-4 -262 -10z"/>
<path d="M2755 5360 c-4 -6 8 -10 29 -10 19 0 38 5 41 10 4 6 -8 10 -29 10
-19 0 -38 -4 -41 -10z"/>
<path d="M3065 5360 c-4 -6 46 -10 144 -10 89 0 152 4 156 10 4 6 -46 10 -144
10 -89 0 -152 -4 -156 -10z"/>
<path d="M3690 5360 c0 -6 95 -10 266 -10 174 0 263 3 259 10 -4 6 -103 10
-266 10 -166 0 -259 -4 -259 -10z"/>
<path d="M5130 5360 c0 -6 50 -10 130 -10 80 0 130 4 130 10 0 6 -50 10 -130
10 -80 0 -130 -4 -130 -10z"/>
<path d="M6030 5360 c0 -6 77 -10 210 -10 133 0 210 4 210 10 0 6 -77 10 -210
10 -133 0 -210 -4 -210 -10z"/>
<path d="M6545 5360 c-4 -7 138 -10 420 -10 282 0 424 3 420 10 -4 6 -155 10
-420 10 -265 0 -416 -4 -420 -10z"/>
<path d="M8820 5360 c0 -6 97 -10 271 -10 177 0 268 3 264 10 -4 6 -105 10
-271 10 -169 0 -264 -4 -264 -10z"/>
<path d="M2740 5320 c0 -5 14 -10 30 -10 17 0 30 5 30 10 0 6 -13 10 -30 10
-16 0 -30 -4 -30 -10z"/>
<path d="M3025 5320 c-4 -7 50 -10 154 -10 101 0 161 4 161 10 0 6 -58 10
-154 10 -93 0 -157 -4 -161 -10z"/>
<path d="M3690 5320 c0 -6 99 -10 276 -10 181 0 273 3 269 10 -4 6 -107 10
-276 10 -173 0 -269 -4 -269 -10z"/>
<path d="M5095 5320 c-4 -7 48 -10 149 -10 97 0 156 4 156 10 0 6 -56 10 -149
10 -89 0 -152 -4 -156 -10z"/>
<path d="M6020 5320 c0 -6 76 -10 209 -10 129 0 212 4 216 10 4 7 -68 10 -209
10 -137 0 -216 -4 -216 -10z"/>
<path d="M6515 5320 c-4 -7 147 -10 445 -10 298 0 449 3 445 10 -4 6 -163 10
-445 10 -282 0 -441 -4 -445 -10z"/>
<path d="M8825 5320 c4 -6 109 -10 281 -10 181 0 273 3 269 10 -4 6 -109 10
-281 10 -181 0 -273 -3 -269 -10z"/>
<path d="M2720 5280 c0 -5 14 -10 30 -10 17 0 30 5 30 10 0 6 -13 10 -30 10
-16 0 -30 -4 -30 -10z"/>
<path d="M2995 5280 c-4 -6 27 -10 84 -10 54 0 91 4 91 10 0 6 -35 10 -84 10
-47 0 -88 -4 -91 -10z"/>
<path d="M3195 5280 c3 -5 30 -10 60 -10 30 0 57 5 60 10 4 6 -18 10 -60 10
-42 0 -64 -4 -60 -10z"/>
<path d="M3690 5280 c0 -6 102 -10 286 -10 187 0 283 3 279 10 -4 6 -110 10
-286 10 -179 0 -279 -4 -279 -10z"/>
<path d="M5045 5280 c-4 -7 57 -10 174 -10 114 0 181 4 181 10 0 6 -65 10
-174 10 -106 0 -177 -4 -181 -10z"/>
<path d="M6015 5280 c-4 -7 246 -10 710 -10 475 0 714 3 710 10 -8 14 -1412
13 -1420 0z"/>
<path d="M8865 5280 c-4 -7 87 -10 265 -10 178 0 269 3 265 10 -4 6 -103 10
-265 10 -162 0 -261 -4 -265 -10z"/>
<path d="M2710 5240 c0 -5 9 -10 19 -10 11 0 23 5 26 10 4 6 -5 10 -19 10 -14
0 -26 -4 -26 -10z"/>
<path d="M2970 5240 c0 -6 40 -10 100 -10 60 0 100 4 100 10 0 6 -40 10 -100
10 -60 0 -100 -4 -100 -10z"/>
<path d="M3235 5240 c3 -5 17 -10 30 -10 13 0 27 5 30 10 4 6 -8 10 -30 10
-22 0 -34 -4 -30 -10z"/>
<path d="M3680 5240 c0 -6 107 -10 300 -10 193 0 300 4 300 10 0 6 -107 10
-300 10 -193 0 -300 -4 -300 -10z"/>
<path d="M5045 5240 c4 -6 75 -10 181 -10 109 0 174 4 174 10 0 6 -67 10 -181
10 -117 0 -178 -3 -174 -10z"/>
<path d="M6010 5240 c0 -7 249 -10 726 -10 481 0 723 3 719 10 -4 7 -257 10
-726 10 -473 0 -719 -3 -719 -10z"/>
<path d="M8885 5240 c4 -6 105 -10 271 -10 174 0 263 3 259 10 -4 6 -105 10
-271 10 -174 0 -263 -3 -259 -10z"/>
<path d="M2690 5200 c0 -5 9 -10 20 -10 11 0 20 5 20 10 0 6 -9 10 -20 10 -11
0 -20 -4 -20 -10z"/>
<path d="M2955 5200 c-4 -6 32 -10 99 -10 64 0 106 4 106 10 0 6 -40 10 -99
10 -56 0 -103 -4 -106 -10z"/>
<path d="M3245 5200 c-3 -5 -1 -10 4 -10 6 0 11 5 11 10 0 6 -2 10 -4 10 -3 0
-8 -4 -11 -10z"/>
<path d="M3645 5200 c4 -6 127 -10 336 -10 218 0 328 3 324 10 -4 6 -127 10
-336 10 -218 0 -328 -3 -324 -10z"/>
<path d="M5010 5200 c-10 -6 53 -10 188 -10 128 0 202 4 202 10 0 13 -370 13
-390 0z"/>
<path d="M6000 5200 c0 -7 254 -10 741 -10 491 0 738 3 734 10 -4 7 -262 10
-741 10 -483 0 -734 -3 -734 -10z"/>
<path d="M8895 5200 c-4 -7 88 -10 270 -10 182 0 274 3 270 10 -4 6 -105 10
-270 10 -165 0 -266 -4 -270 -10z"/>
<path d="M2670 5160 c0 -5 6 -10 14 -10 8 0 18 5 21 10 3 6 -3 10 -14 10 -12
0 -21 -4 -21 -10z"/>
<path d="M2940 5160 c0 -6 45 -10 116 -10 74 0 113 4 109 10 -4 6 -53 10 -116
10 -66 0 -109 -4 -109 -10z"/>
<path d="M3205 5160 c-4 -6 12 -10 40 -10 28 0 44 4 40 10 -3 6 -21 10 -40 10
-19 0 -37 -4 -40 -10z"/>
<path d="M3645 5160 c-4 -7 112 -10 339 -10 224 0 346 4 346 10 0 6 -120 10
-339 10 -216 0 -342 -4 -346 -10z"/>
<path d="M4975 5160 c-4 -7 67 -10 204 -10 134 0 211 4 211 10 0 6 -75 10
-204 10 -126 0 -207 -4 -211 -10z"/>
<path d="M5995 5160 c-4 -7 248 -10 749 -10 497 0 756 3 756 10 0 7 -256 10
-749 10 -489 0 -752 -3 -756 -10z"/>
<path d="M8925 5160 c4 -6 105 -10 271 -10 174 0 263 3 259 10 -4 6 -105 10
-271 10 -174 0 -263 -3 -259 -10z"/>
<path d="M2645 5120 c-3 -5 3 -10 14 -10 12 0 21 5 21 10 0 6 -6 10 -14 10 -8
0 -18 -4 -21 -10z"/>
<path d="M2920 5120 c0 -6 70 -10 190 -10 120 0 190 4 190 10 0 6 -70 10 -190
10 -120 0 -190 -4 -190 -10z"/>
<path d="M3630 5120 c0 -6 130 -10 371 -10 244 0 368 3 364 10 -4 6 -138 10
-371 10 -236 0 -364 -4 -364 -10z"/>
<path d="M4915 5120 c-4 -7 73 -10 224 -10 142 0 232 4 236 10 4 7 -73 10
-224 10 -142 0 -232 -4 -236 -10z"/>
<path d="M5990 5120 c0 -7 264 -10 771 -10 511 0 768 3 764 10 -4 7 -272 10
-771 10 -503 0 -764 -3 -764 -10z"/>
<path d="M8930 5120 c0 -6 100 -10 281 -10 184 0 278 3 274 10 -4 6 -108 10
-281 10 -176 0 -274 -4 -274 -10z"/>
<path d="M2615 5080 c-3 -5 3 -10 14 -10 11 0 23 5 26 10 3 6 -3 10 -14 10
-11 0 -23 -4 -26 -10z"/>
<path d="M2905 5080 c-4 -7 60 -10 184 -10 116 0 192 4 196 10 4 7 -60 10
-184 10 -116 0 -192 -4 -196 -10z"/>
<path d="M3610 5080 c0 -6 139 -10 396 -10 261 0 393 3 389 10 -4 6 -147 10
-396 10 -253 0 -389 -4 -389 -10z"/>
<path d="M4850 5080 c-10 -6 76 -10 253 -10 171 0 267 4 267 10 0 13 -499 13
-520 0z"/>
<path d="M5980 5080 c0 -7 270 -10 791 -10 524 0 788 3 784 10 -4 7 -278 10
-791 10 -516 0 -784 -3 -784 -10z"/>
<path d="M8970 5080 c38 -12 540 -12 540 0 0 6 -100 10 -282 9 -158 -1 -272
-5 -258 -9z"/>
<path d="M2590 5040 c0 -5 9 -10 19 -10 11 0 23 5 26 10 4 6 -5 10 -19 10 -14
0 -26 -4 -26 -10z"/>
<path d="M2890 5040 c0 -6 65 -10 174 -10 106 0 177 4 181 10 4 7 -57 10 -174
10 -114 0 -181 -4 -181 -10z"/>
<path d="M3610 5040 c0 -7 145 -10 416 -10 274 0 413 3 409 10 -4 6 -153 10
-416 10 -266 0 -409 -3 -409 -10z"/>
<path d="M4805 5040 c-4 -7 90 -10 274 -10 181 0 281 4 281 10 0 6 -98 10
-274 10 -173 0 -277 -4 -281 -10z"/>
<path d="M5980 5040 c0 -7 272 -10 795 -10 523 0 795 3 795 10 0 7 -272 10
-795 10 -523 0 -795 -3 -795 -10z"/>
<path d="M9005 5040 c4 -6 103 -10 266 -10 166 0 259 4 259 10 0 6 -95 10
-266 10 -174 0 -263 -3 -259 -10z"/>
<path d="M2570 5000 c0 -5 9 -10 20 -10 11 0 20 5 20 10 0 6 -9 10 -20 10 -11
0 -20 -4 -20 -10z"/>
<path d="M2875 5000 c-4 -7 58 -10 179 -10 117 0 186 4 186 10 0 6 -66 10
-179 10 -109 0 -182 -4 -186 -10z"/>
<path d="M3565 5000 c-12 -5 183 -9 460 -9 313 -1 475 3 465 9 -19 12 -897 12
-925 0z"/>
<path d="M4740 5000 c-10 -6 92 -10 298 -10 201 0 312 4 312 10 0 13 -589 13
-610 0z"/>
<path d="M5970 5000 c0 -7 278 -10 815 -10 537 0 815 3 815 10 0 7 -278 10
-815 10 -537 0 -815 -3 -815 -10z"/>
<path d="M9040 5000 c0 -6 92 -10 256 -10 167 0 253 3 249 10 -4 6 -100 10
-256 10 -159 0 -249 -4 -249 -10z"/>
<path d="M2545 4960 c-3 -5 3 -10 14 -10 11 0 23 5 26 10 3 6 -3 10 -14 10
-11 0 -23 -4 -26 -10z"/>
<path d="M2865 4960 c-4 -7 56 -10 174 -10 109 0 182 4 186 10 4 7 -56 10
-174 10 -109 0 -182 -4 -186 -10z"/>
<path d="M3505 4960 c-4 -7 310 -10 919 -10 592 0 926 3 926 10 0 13 -1837 13
-1845 0z"/>
<path d="M5960 4960 c0 -7 282 -10 825 -10 543 0 825 3 825 10 0 7 -282 10
-825 10 -543 0 -825 -3 -825 -10z"/>
<path d="M9040 4960 c0 -6 95 -10 266 -10 174 0 263 3 259 10 -4 6 -103 10
-266 10 -166 0 -259 -4 -259 -10z"/>
<path d="M2520 4920 c0 -5 6 -10 14 -10 8 0 18 5 21 10 3 6 -3 10 -14 10 -12
0 -21 -4 -21 -10z"/>
<path d="M2850 4920 c0 -6 65 -10 174 -10 106 0 177 4 181 10 4 7 -57 10 -174
10 -114 0 -181 -4 -181 -10z"/>
<path d="M3475 4920 c-4 -7 310 -10 934 -10 621 0 941 3 941 10 0 7 -318 10
-934 10 -613 0 -937 -3 -941 -10z"/>
<path d="M5935 4920 c-4 -7 282 -10 849 -10 564 0 856 3 856 10 0 7 -290 10
-849 10 -556 0 -852 -3 -856 -10z"/>
<path d="M9050 4920 c0 -6 95 -10 265 -10 170 0 265 4 265 10 0 6 -95 10 -265
10 -170 0 -265 -4 -265 -10z"/>
<path d="M2495 4880 c-4 -6 5 -10 19 -10 14 0 26 5 26 10 0 6 -9 10 -19 10
-11 0 -23 -4 -26 -10z"/>
<path d="M2840 4880 c0 -6 63 -10 169 -10 103 0 172 4 176 10 4 7 -55 10 -169
10 -111 0 -176 -4 -176 -10z"/>
<path d="M3445 4880 c-4 -7 315 -10 949 -10 631 0 956 3 956 10 0 7 -323 10
-949 10 -623 0 -952 -3 -956 -10z"/>
<path d="M5860 4880 c-10 -6 303 -10 893 -10 603 0 906 3 902 10 -8 13 -1774
13 -1795 0z"/>
<path d="M9040 4880 c0 -6 102 -10 286 -10 187 0 283 3 279 10 -4 6 -110 10
-286 10 -179 0 -279 -4 -279 -10z"/>
<path d="M2470 4840 c0 -5 9 -10 19 -10 11 0 23 5 26 10 4 6 -5 10 -19 10 -14
0 -26 -4 -26 -10z"/>
<path d="M2825 4840 c-4 -7 55 -10 169 -10 111 0 176 4 176 10 0 6 -63 10
-169 10 -103 0 -172 -4 -176 -10z"/>
<path d="M3385 4840 c-11 -5 412 -9 978 -9 658 -1 997 2 997 9 0 13 -1946 13
-1975 0z"/>
<path d="M5765 4840 c-11 -5 398 -9 948 -9 638 -1 967 2 967 9 0 13 -1886 13
-1915 0z"/>
<path d="M9045 4840 c4 -6 114 -10 296 -10 191 0 288 3 284 10 -4 6 -114 10
-296 10 -191 0 -288 -3 -284 -10z"/>
<path d="M2440 4800 c0 -5 11 -10 24 -10 14 0 28 5 31 10 4 6 -7 10 -24 10
-17 0 -31 -4 -31 -10z"/>
<path d="M2815 4800 c-4 -7 53 -10 164 -10 107 0 171 4 171 10 0 6 -61 10
-164 10 -99 0 -167 -4 -171 -10z"/>
<path d="M3330 4800 c0 -7 347 -10 1020 -10 673 0 1020 3 1020 10 0 7 -347 10
-1020 10 -673 0 -1020 -3 -1020 -10z"/>
<path d="M5655 4800 c-11 -5 429 -9 1018 -9 685 -1 1037 2 1037 9 0 13 -2026
13 -2055 0z"/>
<path d="M9075 4800 c4 -6 112 -10 291 -10 183 0 284 4 284 10 0 6 -104 10
-291 10 -191 0 -288 -3 -284 -10z"/>
<path d="M2420 4760 c0 -5 9 -10 19 -10 11 0 23 5 26 10 4 6 -5 10 -19 10 -14
0 -26 -4 -26 -10z"/>
<path d="M2800 4760 c0 -6 62 -10 165 -10 103 0 165 4 165 10 0 6 -62 10 -165
10 -103 0 -165 -4 -165 -10z"/>
<path d="M3290 4760 c-10 -6 358 -10 1048 -10 706 0 1061 3 1057 10 -8 14
-2084 14 -2105 0z"/>
<path d="M5550 4760 c-14 -4 469 -8 1073 -9 725 -1 1097 2 1097 9 0 12 -2132
12 -2170 0z"/>
<path d="M9065 4760 c-4 -7 98 -10 299 -10 197 0 306 4 306 10 0 6 -106 10
-299 10 -189 0 -302 -4 -306 -10z"/>
<path d="M2400 4720 c0 -5 9 -10 19 -10 11 0 23 5 26 10 4 6 -5 10 -19 10 -14
0 -26 -4 -26 -10z"/>
<path d="M2790 4720 c0 -6 60 -10 160 -10 100 0 160 4 160 10 0 6 -60 10 -160
10 -100 0 -160 -4 -160 -10z"/>
<path d="M3205 4720 c-4 -7 753 -10 2264 -10 1507 0 2271 3 2271 10 0 14
-4526 14 -4535 0z"/>
<path d="M9065 4720 c4 -6 120 -10 316 -10 204 0 308 3 304 10 -4 6 -120 10
-316 10 -204 0 -308 -3 -304 -10z"/>
<path d="M2375 4680 c-3 -5 3 -10 14 -10 11 0 23 5 26 10 3 6 -3 10 -14 10
-11 0 -23 -4 -26 -10z"/>
<path d="M2775 4680 c-4 -7 52 -10 159 -10 104 0 166 4 166 10 0 6 -60 10
-159 10 -96 0 -162 -4 -166 -10z"/>
<path d="M3160 4680 c-10 -6 801 -10 2298 -10 1540 0 2311 3 2307 10 -8 14
-4584 14 -4605 0z"/>
<path d="M9075 4680 c4 -6 120 -10 316 -10 199 0 309 4 309 10 0 6 -112 10
-316 10 -207 0 -313 -3 -309 -10z"/>
<path d="M2350 4640 c0 -5 9 -10 20 -10 11 0 20 5 20 10 0 6 -9 10 -20 10 -11
0 -20 -4 -20 -10z"/>
<path d="M2765 4640 c-4 -7 851 -10 2504 -10 1675 0 2511 3 2511 10 0 14
-5007 14 -5015 0z"/>
<path d="M9105 4640 c4 -6 118 -10 311 -10 196 0 304 4 304 10 0 6 -110 10
-311 10 -204 0 -308 -3 -304 -10z"/>
<path d="M2325 4600 c-3 -5 3 -10 14 -10 11 0 23 5 26 10 3 6 -3 10 -14 10
-11 0 -23 -4 -26 -10z"/>
<path d="M2750 4600 c0 -7 849 -10 2526 -10 1681 0 2523 3 2519 10 -4 7 -857
10 -2526 10 -1673 0 -2519 -3 -2519 -10z"/>
<path d="M9160 4600 c0 -6 103 -10 290 -10 187 0 290 4 290 10 0 6 -103 10
-290 10 -187 0 -290 -4 -290 -10z"/>
<path d="M2295 4560 c-3 -6 5 -10 19 -10 14 0 28 5 31 10 3 6 -5 10 -19 10
-14 0 -28 -4 -31 -10z"/>
<path d="M2740 4560 c0 -7 853 -10 2540 -10 1687 0 2540 3 2540 10 0 7 -853
10 -2540 10 -1687 0 -2540 -3 -2540 -10z"/>
<path d="M9160 4560 c0 -6 107 -10 300 -10 193 0 300 4 300 10 0 6 -107 10
-300 10 -193 0 -300 -4 -300 -10z"/>
<path d="M540 4520 c0 -5 21 -10 48 -9 35 0 42 3 27 9 -28 12 -75 12 -75 0z"/>
<path d="M2265 4520 c-4 -6 7 -10 24 -10 17 0 31 5 31 10 0 6 -11 10 -24 10
-14 0 -28 -4 -31 -10z"/>
<path d="M2730 4520 c0 -7 858 -10 2555 -10 1697 0 2555 3 2555 10 0 7 -858
10 -2555 10 -1697 0 -2555 -3 -2555 -10z"/>
<path d="M9190 4520 c0 -6 105 -10 296 -10 194 0 293 3 289 10 -4 6 -113 10
-296 10 -186 0 -289 -4 -289 -10z"/>
<path d="M530 4480 c0 -6 37 -10 93 -10 63 0 87 3 77 10 -20 13 -170 13 -170
0z"/>
<path d="M2210 4480 c0 -5 18 -10 39 -10 22 0 43 5 46 10 4 6 -12 10 -39 10
-25 0 -46 -4 -46 -10z"/>
<path d="M2715 4480 c-4 -7 855 -10 2569 -10 1711 0 2576 3 2576 10 0 7 -863
10 -2569 10 -1703 0 -2572 -3 -2576 -10z"/>
<path d="M9200 4480 c0 -6 107 -10 300 -10 193 0 300 4 300 10 0 6 -107 10
-300 10 -193 0 -300 -4 -300 -10z"/>
<path d="M515 4440 c-4 -6 42 -10 132 -9 86 0 131 4 118 9 -28 12 -242 12
-250 0z"/>
<path d="M2175 4440 c-4 -6 12 -10 39 -10 25 0 46 5 46 10 0 6 -18 10 -39 10
-22 0 -43 -4 -46 -10z"/>
<path d="M2705 4440 c-4 -7 862 -10 2590 -10 1728 0 2594 3 2590 10 -4 7 -878
10 -2590 10 -1712 0 -2586 -3 -2590 -10z"/>
<path d="M9200 4440 c0 -6 110 -10 311 -10 204 0 308 3 304 10 -4 6 -118 10
-311 10 -196 0 -304 -4 -304 -10z"/>
<path d="M495 4400 c-4 -7 64 -10 197 -9 123 0 195 4 183 9 -29 12 -372 12
-380 0z"/>
<path d="M1800 4400 c-14 -5 75 -8 208 -9 148 -1 232 3 232 9 0 12 -402 12
-440 0z"/>
<path d="M2690 4400 c0 -7 875 -10 2605 -10 1730 0 2605 3 2605 10 0 7 -875
10 -2605 10 -1730 0 -2605 -3 -2605 -10z"/>
<path d="M9195 4400 c4 -6 124 -10 326 -10 211 0 318 3 314 10 -4 6 -124 10
-326 10 -211 0 -318 -3 -314 -10z"/>
<path d="M480 4360 c0 -6 89 -10 246 -10 161 0 243 3 239 10 -4 6 -97 10 -246
10 -153 0 -239 -4 -239 -10z"/>
<path d="M1745 4360 c-8 -13 75 -13 95 0 11 7 0 10 -37 10 -28 0 -55 -4 -58
-10z"/>
<path d="M2015 4360 c3 -6 48 -10 101 -10 56 0 94 4 94 10 0 6 -40 10 -101 10
-64 0 -98 -4 -94 -10z"/>
<path d="M2675 4360 c-4 -6 903 -10 2620 -10 1758 0 2625 3 2625 10 0 14
-5236 14 -5245 0z"/>
<path d="M9225 4360 c4 -6 120 -10 316 -10 199 0 309 4 309 10 0 6 -112 10
-316 10 -207 0 -313 -3 -309 -10z"/>
<path d="M455 4320 c-4 -7 76 -10 234 -10 149 0 242 4 246 10 4 7 -76 10 -234
10 -149 0 -242 -4 -246 -10z"/>
<path d="M1715 4320 c-4 -6 10 -10 34 -10 22 0 43 5 46 10 4 6 -10 10 -34 10
-22 0 -43 -4 -46 -10z"/>
<path d="M2030 4320 c0 -6 33 -10 80 -10 47 0 80 4 80 10 0 6 -33 10 -80 10
-47 0 -80 -4 -80 -10z"/>
<path d="M2655 4320 c-4 -6 16 -10 54 -10 33 0 63 5 66 10 4 6 -16 10 -54 10
-33 0 -63 -4 -66 -10z"/>
<path d="M2910 4320 c0 -7 845 -10 2515 -10 1670 0 2515 3 2515 10 0 7 -845
10 -2515 10 -1670 0 -2515 -3 -2515 -10z"/>
<path d="M9230 4320 c0 -6 114 -10 321 -10 211 0 318 3 314 10 -4 6 -122 10
-321 10 -203 0 -314 -4 -314 -10z"/>
<path d="M460 4280 c20 -13 427 -13 435 0 4 7 -72 10 -222 10 -151 0 -223 -4
-213 -10z"/>
<path d="M1670 4280 c-11 -7 0 -10 37 -10 28 0 55 5 58 10 8 13 -75 13 -95 0z"/>
<path d="M2000 4280 c0 -6 51 -10 133 -10 89 0 127 3 117 10 -20 13 -250 13
-250 0z"/>
<path d="M2635 4280 c-4 -6 17 -10 54 -10 34 0 61 4 61 10 0 6 -24 10 -54 10
-30 0 -58 -4 -61 -10z"/>
<path d="M2905 4280 c-4 -7 840 -10 2524 -10 1681 0 2531 3 2531 10 0 14
-5046 14 -5055 0z"/>
<path d="M9245 4280 c4 -6 124 -10 326 -10 211 0 318 3 314 10 -4 6 -124 10
-326 10 -211 0 -318 -3 -314 -10z"/>
<path d="M520 4240 c20 -13 327 -13 335 0 4 7 -56 10 -172 10 -119 0 -173 -4
-163 -10z"/>
<path d="M1610 4240 c20 -13 97 -13 105 0 4 6 -17 10 -57 10 -44 0 -59 -3 -48
-10z"/>
<path d="M1975 4240 c-4 -7 56 -10 172 -10 119 0 173 4 163 10 -20 13 -327 13
-335 0z"/>
<path d="M2610 4240 c0 -6 28 -10 65 -10 37 0 65 4 65 10 0 6 -28 10 -65 10
-37 0 -65 -4 -65 -10z"/>
<path d="M2890 4240 c0 -7 857 -10 2551 -10 1697 0 2548 3 2544 10 -9 14
-5095 14 -5095 0z"/>
<path d="M9250 4240 c0 -6 117 -10 330 -10 213 0 330 4 330 10 0 6 -117 10
-330 10 -213 0 -330 -4 -330 -10z"/>
<path d="M595 4200 c4 -6 53 -10 116 -10 66 0 109 4 109 10 0 6 -45 10 -116
10 -74 0 -113 -4 -109 -10z"/>
<path d="M1955 4200 c-4 -7 72 -10 222 -9 137 0 220 4 208 9 -29 12 -422 12
-430 0z"/>
<path d="M2575 4200 c-4 -6 23 -10 74 -10 47 0 81 4 81 10 0 6 -31 10 -74 10
-41 0 -78 -4 -81 -10z"/>
<path d="M2880 4200 c0 -7 862 -10 2565 -10 1703 0 2565 3 2565 10 0 7 -862
10 -2565 10 -1703 0 -2565 -3 -2565 -10z"/>
<path d="M9250 4200 c0 -6 120 -10 341 -10 224 0 338 3 334 10 -4 6 -128 10
-341 10 -216 0 -334 -4 -334 -10z"/>
<path d="M670 4160 c20 -13 107 -13 115 0 4 6 -19 10 -62 10 -48 0 -63 -3 -53
-10z"/>
<path d="M1630 4160 c0 -5 11 -10 25 -10 14 0 25 5 25 10 0 6 -11 10 -25 10
-14 0 -25 -4 -25 -10z"/>
<path d="M1940 4160 c0 -6 138 -10 395 -10 257 0 395 4 395 10 0 6 -138 10
-395 10 -257 0 -395 -4 -395 -10z"/>
<path d="M2880 4160 c0 -7 865 -10 2576 -10 1714 0 2573 3 2569 10 -4 7 -873
10 -2576 10 -1706 0 -2569 -3 -2569 -10z"/>
<path d="M9245 4160 c4 -6 130 -10 346 -10 219 0 339 4 339 10 0 6 -122 10
-346 10 -227 0 -343 -3 -339 -10z"/>
<path d="M1635 4120 c3 -5 13 -10 21 -10 8 0 14 5 14 10 0 6 -9 10 -21 10 -11
0 -17 -4 -14 -10z"/>
<path d="M1925 4120 c-4 -7 135 -10 409 -10 271 0 416 3 416 10 0 7 -143 10
-409 10 -263 0 -412 -4 -416 -10z"/>
<path d="M2865 4120 c-4 -7 863 -10 2595 -10 1732 0 2599 3 2595 10 -9 14
-5181 14 -5190 0z"/>
<path d="M9270 4120 c0 -6 118 -10 335 -10 217 0 335 4 335 10 0 6 -118 10
-335 10 -217 0 -335 -4 -335 -10z"/>
<path d="M1458 4113 c7 -3 16 -2 19 1 4 3 -2 6 -13 5 -11 0 -14 -3 -6 -6z"/>
<path d="M1415 4080 c-4 -6 30 -10 97 -9 69 1 93 4 73 9 -45 11 -163 11 -170
0z"/>
<path d="M1910 4080 c0 -7 1060 -10 3086 -10 2055 0 3083 3 3079 10 -9 14
-6165 14 -6165 0z"/>
<path d="M9305 4080 c4 -6 123 -10 326 -10 206 0 319 4 319 10 0 6 -115 10
-326 10 -214 0 -323 -3 -319 -10z"/>
<path d="M1808 4073 c7 -3 16 -2 19 1 4 3 -2 6 -13 5 -11 0 -14 -3 -6 -6z"/>
<path d="M1375 4040 c-4 -6 45 -10 139 -10 91 0 146 4 146 10 0 6 -53 10 -139
10 -83 0 -142 -4 -146 -10z"/>
<path d="M1715 4040 c-4 -6 22 -10 70 -10 48 0 74 4 70 10 -3 6 -35 10 -70 10
-35 0 -67 -4 -70 -10z"/>
<path d="M1895 4040 c-4 -7 546 -10 1644 -10 1089 0 1652 3 1656 10 4 7 -546
10 -1644 10 -1089 0 -1652 -3 -1656 -10z"/>
<path d="M5220 4040 c21 -14 2883 -14 2875 0 -4 7 -497 10 -1448 10 -935 0
-1437 -4 -1427 -10z"/>
<path d="M9300 4040 c0 -6 119 -10 336 -10 221 0 333 3 329 10 -4 6 -127 10
-336 10 -213 0 -329 -4 -329 -10z"/>
<path d="M1335 4000 c-4 -7 646 -10 1909 -10 1270 0 1917 3 1921 10 4 7 -630
10 -1909 10 -1254 0 -1917 -4 -1921 -10z"/>
<path d="M5275 4000 c4 -7 490 -10 1426 -10 939 0 1419 3 1419 10 0 7 -482 10
-1426 10 -947 0 -1423 -3 -1419 -10z"/>
<path d="M9295 4000 c4 -6 130 -10 346 -10 219 0 339 4 339 10 0 6 -122 10
-346 10 -227 0 -343 -3 -339 -10z"/>
<path d="M1295 3960 c-4 -7 631 -10 1899 -10 1259 0 1907 3 1911 10 4 7 -631
10 -1899 10 -1259 0 -1907 -3 -1911 -10z"/>
<path d="M5310 3960 c21 -14 2843 -14 2835 0 -4 7 -491 10 -1428 10 -922 0
-1417 -4 -1407 -10z"/>
<path d="M9285 3960 c-4 -7 115 -10 349 -10 231 0 356 4 356 10 0 6 -123 10
-349 10 -223 0 -352 -4 -356 -10z"/>
<path d="M1255 3920 c-4 -7 635 -10 1909 -10 1271 0 1916 3 1916 10 0 14
-3816 14 -3825 0z"/>
<path d="M5365 3920 c4 -7 487 -10 1416 -10 938 0 1408 3 1404 10 -4 7 -487
10 -1416 10 -938 0 -1408 -3 -1404 -10z"/>
<path d="M9265 3920 c-4 -7 120 -10 364 -10 241 0 371 4 371 10 0 6 -128 10
-364 10 -233 0 -367 -4 -371 -10z"/>
<path d="M1215 3880 c-8 -13 15 -13 35 0 12 8 11 10 -7 10 -12 0 -25 -4 -28
-10z"/>
<path d="M1320 3880 c0 -7 637 -10 1891 -10 1257 0 1888 3 1884 10 -9 14
-3775 14 -3775 0z"/>
<path d="M5405 3880 c4 -7 485 -10 1411 -10 929 0 1404 3 1404 10 0 7 -477 10
-1411 10 -937 0 -1408 -3 -1404 -10z"/>
<path d="M9275 3880 c4 -6 140 -10 376 -10 244 0 368 3 364 10 -4 6 -140 10
-376 10 -244 0 -368 -3 -364 -10z"/>
<path d="M1335 3840 c4 -7 652 -10 1913 -10 1235 0 1902 4 1892 10 -21 14
-3813 14 -3805 0z"/>
<path d="M5455 3840 c4 -7 482 -10 1401 -10 928 0 1393 3 1389 10 -4 7 -482
10 -1401 10 -928 0 -1393 -3 -1389 -10z"/>
<path d="M9315 3840 c47 -12 717 -12 710 0 -4 6 -138 10 -373 9 -202 -1 -353
-5 -337 -9z"/>
<path d="M1520 3800 c10 -6 682 -10 1850 -10 1188 0 1830 4 1820 10 -10 6
-682 10 -1850 10 -1188 0 -1830 -4 -1820 -10z"/>
<path d="M5500 3800 c0 -7 470 -10 1391 -10 924 0 1388 3 1384 10 -4 7 -478
10 -1391 10 -916 0 -1384 -3 -1384 -10z"/>
<path d="M9330 3800 c0 -6 125 -10 356 -10 234 0 353 3 349 10 -4 6 -133 10
-356 10 -226 0 -349 -4 -349 -10z"/>
<path d="M1560 3760 c0 -7 624 -10 1851 -10 1231 0 1848 3 1844 10 -9 14
-3695 14 -3695 0z"/>
<path d="M5515 3760 c3 -5 44 -10 90 -10 46 0 87 5 90 10 4 6 -28 10 -90 10
-62 0 -94 -4 -90 -10z"/>
<path d="M5730 3760 c0 -7 435 -10 1285 -10 850 0 1285 3 1285 10 0 7 -435 10
-1285 10 -850 0 -1285 -3 -1285 -10z"/>
<path d="M9330 3760 c0 -6 125 -10 355 -10 230 0 355 4 355 10 0 6 -125 10
-355 10 -230 0 -355 -4 -355 -10z"/>
<path d="M1188 3753 c7 -3 16 -2 19 1 4 3 -2 6 -13 5 -11 0 -14 -3 -6 -6z"/>
<path d="M1160 3720 c0 -5 14 -10 30 -10 17 0 30 5 30 10 0 6 -13 10 -30 10
-16 0 -30 -4 -30 -10z"/>
<path d="M1580 3720 c0 -7 632 -10 1878 -10 1215 0 1872 4 1862 10 -21 14
-3740 14 -3740 0z"/>
<path d="M5535 3720 c3 -5 33 -10 65 -10 32 0 62 5 65 10 4 6 -20 10 -65 10
-45 0 -69 -4 -65 -10z"/>
<path d="M5730 3720 c0 -7 440 -10 1301 -10 864 0 1298 3 1294 10 -4 7 -448
10 -1301 10 -856 0 -1294 -3 -1294 -10z"/>
<path d="M9280 3720 c0 -6 135 -10 385 -10 250 0 385 4 385 10 0 6 -135 10
-385 10 -250 0 -385 -4 -385 -10z"/>
<path d="M1180 3680 c0 -5 9 -10 20 -10 11 0 20 5 20 10 0 6 -9 10 -20 10 -11
0 -20 -4 -20 -10z"/>
<path d="M1580 3680 c0 -7 646 -10 1918 -10 1241 0 1912 4 1902 10 -21 14
-3820 14 -3820 0z"/>
<path d="M5560 3680 c0 -5 18 -10 40 -10 22 0 40 5 40 10 0 6 -18 10 -40 10
-22 0 -40 -4 -40 -10z"/>
<path d="M5720 3680 c0 -7 447 -10 1321 -10 877 0 1318 3 1314 10 -4 7 -455
10 -1321 10 -869 0 -1314 -3 -1314 -10z"/>
<path d="M9340 3680 c0 -6 127 -10 360 -10 233 0 360 4 360 10 0 6 -127 10
-360 10 -233 0 -360 -4 -360 -10z"/>
<path d="M975 3640 c-3 -5 1 -10 9 -10 9 0 16 5 16 10 0 6 -4 10 -9 10 -6 0
-13 -4 -16 -10z"/>
<path d="M1170 3640 c0 -5 16 -10 35 -10 19 0 35 5 35 10 0 6 -16 10 -35 10
-19 0 -35 -4 -35 -10z"/>
<path d="M1590 3640 c0 -7 659 -10 1958 -9 1101 0 1948 4 1937 9 -29 13 -3895
13 -3895 0z"/>
<path d="M5720 3640 c0 -7 452 -10 1336 -10 887 0 1333 3 1329 10 -4 7 -460
10 -1336 10 -879 0 -1329 -3 -1329 -10z"/>
<path d="M9350 3640 c0 -6 127 -10 360 -10 233 0 360 4 360 10 0 6 -127 10
-360 10 -233 0 -360 -4 -360 -10z"/>
<path d="M955 3600 c3 -5 17 -10 31 -10 14 0 22 4 19 10 -3 6 -17 10 -31 10
-14 0 -22 -4 -19 -10z"/>
<path d="M1175 3600 c3 -5 24 -10 46 -10 21 0 39 5 39 10 0 6 -21 10 -46 10
-27 0 -43 -4 -39 -10z"/>
<path d="M1580 3600 c0 -7 677 -10 2011 -10 1337 0 2008 3 2004 10 -4 7 -685
10 -2011 10 -1329 0 -2004 -3 -2004 -10z"/>
<path d="M5705 3600 c-4 -7 453 -10 1365 -10 912 0 1369 3 1365 10 -4 7 -470
10 -1365 10 -895 0 -1361 -3 -1365 -10z"/>
<path d="M9325 3600 c-4 -7 123 -10 374 -10 247 0 381 4 381 10 0 6 -131 10
-374 10 -239 0 -377 -4 -381 -10z"/>
<path d="M985 3560 c3 -5 15 -10 26 -10 10 0 19 5 19 10 0 6 -12 10 -26 10
-14 0 -23 -4 -19 -10z"/>
<path d="M1190 3560 c0 -5 20 -10 45 -10 25 0 45 5 45 10 0 6 -20 10 -45 10
-25 0 -45 -4 -45 -10z"/>
<path d="M1495 3560 c-4 -7 1158 -10 3480 -10 2322 0 3484 3 3480 10 -9 14
-6951 14 -6960 0z"/>
<path d="M9310 3560 c0 -6 137 -10 390 -10 253 0 390 4 390 10 0 6 -137 10
-390 10 -253 0 -390 -4 -390 -10z"/>
<path d="M1010 3520 c0 -5 5 -10 11 -10 5 0 7 5 4 10 -3 6 -8 10 -11 10 -2 0
-4 -4 -4 -10z"/>
<path d="M1215 3520 c3 -5 22 -10 41 -10 19 0 34 5 34 10 0 6 -18 10 -41 10
-24 0 -38 -4 -34 -10z"/>
<path d="M1420 3520 c0 -7 1184 -10 3531 -10 2351 0 3528 3 3524 10 -9 14
-7055 14 -7055 0z"/>
<path d="M9380 3520 c0 -6 127 -10 360 -10 233 0 360 4 360 10 0 6 -127 10
-360 10 -233 0 -360 -4 -360 -10z"/>
<path d="M1020 3480 c0 -5 5 -10 10 -10 6 0 10 5 10 10 0 6 -4 10 -10 10 -5 0
-10 -4 -10 -10z"/>
<path d="M1240 3480 c0 -5 14 -10 30 -10 17 0 30 5 30 10 0 6 -13 10 -30 10
-16 0 -30 -4 -30 -10z"/>
<path d="M1410 3480 c0 -14 5469 -13 5490 0 9 6 -1054 10 -2737 10 -1881 0
-2753 -3 -2753 -10z"/>
<path d="M6958 3483 c6 -2 18 -2 25 0 6 3 1 5 -13 5 -14 0 -19 -2 -12 -5z"/>
<path d="M7118 3483 c18 -2 45 -2 60 0 15 2 0 4 -33 4 -33 0 -45 -2 -27 -4z"/>
<path d="M7300 3480 c21 -13 1223 -13 1215 0 -4 6 -221 10 -618 10 -399 0
-607 -4 -597 -10z"/>
<path d="M9375 3480 c-4 -7 120 -10 365 -10 245 0 369 3 365 10 -4 6 -137 10
-365 10 -228 0 -361 -4 -365 -10z"/>
<path d="M1035 3440 c3 -5 13 -10 21 -10 8 0 12 5 9 10 -3 6 -13 10 -21 10 -8
0 -12 -4 -9 -10z"/>
<path d="M1250 3440 c0 -5 16 -10 35 -10 19 0 35 5 35 10 0 6 -16 10 -35 10
-19 0 -35 -4 -35 -10z"/>
<path d="M1410 3440 c0 -5 15 -10 34 -10 19 0 38 5 41 10 4 6 -10 10 -34 10
-23 0 -41 -4 -41 -10z"/>
<path d="M1505 3440 c4 -7 820 -10 2416 -10 1599 0 2409 3 2409 10 0 7 -812
10 -2416 10 -1607 0 -2413 -3 -2409 -10z"/>
<path d="M7265 3440 c-22 -4 258 -8 623 -9 435 -1 662 2 662 9 0 12 -1220 12
-1285 0z"/>
<path d="M9330 3440 c0 -6 139 -10 396 -10 261 0 393 3 389 10 -4 6 -147 10
-396 10 -253 0 -389 -4 -389 -10z"/>
<path d="M1040 3400 c0 -5 14 -10 31 -10 17 0 28 4 24 10 -3 6 -17 10 -31 10
-13 0 -24 -4 -24 -10z"/>
<path d="M1245 3400 c-4 -6 15 -10 50 -10 35 0 54 4 50 10 -3 6 -26 10 -50 10
-24 0 -47 -4 -50 -10z"/>
<path d="M1410 3400 c0 -7 851 -10 2455 -10 1642 0 2455 3 2455 10 0 7 -813
10 -2455 10 -1604 0 -2455 -4 -2455 -10z"/>
<path d="M7100 3400 c0 -7 255 -10 746 -10 494 0 743 3 739 10 -4 7 -263 10
-746 10 -486 0 -739 -3 -739 -10z"/>
<path d="M9365 3400 c4 -6 144 -10 386 -10 251 0 378 3 374 10 -4 6 -144 10
-386 10 -251 0 -378 -3 -374 -10z"/>
<path d="M1056 3358 c3 -4 77 -8 165 -8 101 0 158 4 154 10 -3 5 -71 9 -165 8
-87 -1 -157 -5 -154 -10z"/>
<path d="M1410 3360 c0 -7 825 -10 2455 -10 1630 0 2455 3 2455 10 0 7 -825
10 -2455 10 -1630 0 -2455 -3 -2455 -10z"/>
<path d="M7090 3360 c0 -7 260 -10 761 -10 504 0 758 3 754 10 -4 7 -268 10
-761 10 -496 0 -754 -3 -754 -10z"/>
<path d="M9380 3360 c0 -6 134 -10 381 -10 251 0 378 3 374 10 -4 6 -142 10
-381 10 -243 0 -374 -4 -374 -10z"/>
<path d="M1075 3320 c4 -6 70 -10 166 -10 104 0 158 3 154 10 -4 6 -70 10
-166 10 -104 0 -158 -3 -154 -10z"/>
<path d="M1410 3320 c0 -7 823 -10 2450 -10 1627 0 2450 3 2450 10 0 7 -823
10 -2450 10 -1627 0 -2450 -3 -2450 -10z"/>
<path d="M7090 3320 c0 -7 267 -10 781 -10 517 0 778 3 774 10 -4 7 -275 10
-781 10 -509 0 -774 -3 -774 -10z"/>
<path d="M9360 3320 c0 -6 139 -10 396 -10 261 0 393 3 389 10 -4 6 -147 10
-396 10 -253 0 -389 -4 -389 -10z"/>
<path d="M1090 3280 c0 -7 877 -10 2610 -10 1733 0 2610 3 2610 10 0 7 -877
10 -2610 10 -1733 0 -2610 -3 -2610 -10z"/>
<path d="M7090 3280 c0 -7 270 -10 791 -10 524 0 788 3 784 10 -4 7 -278 10
-791 10 -516 0 -784 -3 -784 -10z"/>
<path d="M9370 3280 c0 -6 137 -10 390 -10 253 0 390 4 390 10 0 6 -137 10
-390 10 -253 0 -390 -4 -390 -10z"/>
<path d="M1090 3240 c0 -7 877 -10 2610 -10 1733 0 2610 3 2610 10 0 7 -877
10 -2610 10 -1733 0 -2610 -3 -2610 -10z"/>
<path d="M7100 3240 c0 -7 268 -10 785 -10 517 0 785 3 785 10 0 7 -268 10
-785 10 -517 0 -785 -3 -785 -10z"/>
<path d="M9340 3240 c0 -7 143 -10 410 -10 267 0 410 3 410 10 0 7 -143 10
-410 10 -267 0 -410 -3 -410 -10z"/>
<path d="M1075 3200 c-4 -7 877 -10 2635 -10 1758 0 2639 3 2635 10 -9 14
-5261 14 -5270 0z"/>
<path d="M7100 3200 c0 -7 268 -10 785 -10 517 0 785 3 785 10 0 7 -268 10
-785 10 -517 0 -785 -3 -785 -10z"/>
<path d="M9335 3200 c-4 -7 135 -10 409 -10 271 0 416 3 416 10 0 7 -143 10
-409 10 -263 0 -412 -4 -416 -10z"/>
<path d="M1050 3160 c0 -7 899 -10 2676 -10 1781 0 2673 3 2669 10 -9 14
-5345 14 -5345 0z"/>
<path d="M7085 3160 c-4 -7 273 -10 825 -10 552 0 829 3 825 10 -4 7 -290 10
-825 10 -535 0 -821 -3 -825 -10z"/>
<path d="M9330 3160 c0 -7 147 -10 420 -10 273 0 420 3 420 10 0 7 -147 10
-420 10 -273 0 -420 -3 -420 -10z"/>
<path d="M1005 3120 c-4 -7 902 -10 2710 -10 1808 0 2714 3 2710 10 -9 14
-5411 14 -5420 0z"/>
<path d="M6930 3120 c-30 -4 371 -7 892 -8 622 -1 949 1 953 8 7 11 -1753 11
-1845 0z"/>
<path d="M9340 3120 c0 -7 145 -10 415 -10 270 0 415 3 415 10 0 7 -145 10
-415 10 -270 0 -415 -3 -415 -10z"/>
<path d="M910 3080 c-14 -4 1730 -8 3875 -9 2502 0 3905 3 3915 9 18 12 -7753
12 -7790 0z"/>
<path d="M9330 3080 c0 -7 148 -10 425 -10 277 0 425 3 425 10 0 7 -148 10
-425 10 -277 0 -425 -3 -425 -10z"/>
<path d="M770 3040 c-14 -4 1753 -8 3927 -9 2625 -1 3954 2 3958 9 8 12 -7847
12 -7885 0z"/>
<path d="M9285 3040 c4 -6 165 -10 451 -10 289 0 444 3 444 10 0 7 -157 10
-451 10 -297 0 -448 -3 -444 -10z"/>
<path d="M635 3000 c-11 -5 1741 -9 3983 -9 2662 -1 4002 2 4002 9 0 13 -7956
13 -7985 0z"/>
<path d="M9310 3000 c0 -7 153 -10 440 -10 287 0 440 3 440 10 0 7 -153 10
-440 10 -287 0 -440 -3 -440 -10z"/>
<path d="M465 2960 c-11 -5 1772 -9 4052 -9 2704 -1 4074 2 4078 9 8 13 -8101
13 -8130 0z"/>
<path d="M9270 2960 c-10 -6 149 -10 458 -10 308 0 472 3 472 10 0 13 -909 13
-930 0z"/>
<path d="M430 2920 c0 -14 8116 -14 8125 0 4 7 -1352 10 -4059 10 -2704 0
-4066 -3 -4066 -10z"/>
<path d="M9245 2920 c-4 -7 155 -10 469 -10 311 0 476 3 476 10 0 7 -163 10
-469 10 -303 0 -472 -4 -476 -10z"/>
<path d="M430 2880 c0 -7 1038 -10 3095 -10 2057 0 3095 3 3095 10 0 7 -1038
10 -3095 10 -2057 0 -3095 -3 -3095 -10z"/>
<path d="M6695 2880 c4 -7 320 -10 915 -10 595 0 911 3 915 10 4 7 -303 10
-915 10 -612 0 -919 -3 -915 -10z"/>
<path d="M9230 2880 c0 -7 165 -10 475 -10 310 0 475 3 475 10 0 7 -165 10
-475 10 -310 0 -475 -3 -475 -10z"/>
<path d="M430 2840 c0 -7 1044 -10 3111 -10 2071 0 3108 3 3104 10 -4 7 -1052
10 -3111 10 -2063 0 -3104 -3 -3104 -10z"/>
<path d="M6695 2840 c-4 -7 295 -10 889 -10 586 0 897 3 901 10 4 7 -295 10
-889 10 -586 0 -897 -3 -901 -10z"/>
<path d="M9200 2840 c0 -7 170 -10 490 -10 320 0 490 3 490 10 0 7 -170 10
-490 10 -320 0 -490 -3 -490 -10z"/>
<path d="M430 2800 c0 -7 1341 -10 4004 -10 2659 0 4007 3 4011 10 4 7 -1333
10 -4004 10 -2667 0 -4011 -3 -4011 -10z"/>
<path d="M9200 2800 c0 -7 170 -10 490 -10 320 0 490 3 490 10 0 7 -170 10
-490 10 -320 0 -490 -3 -490 -10z"/>
<path d="M430 2760 c0 -7 1335 -10 3985 -10 2650 0 3985 3 3985 10 0 7 -1335
10 -3985 10 -2650 0 -3985 -3 -3985 -10z"/>
<path d="M9195 2760 c-4 -7 160 -10 484 -10 321 0 491 3 491 10 0 7 -168 10
-484 10 -313 0 -487 -4 -491 -10z"/>
<path d="M430 2720 c0 -7 1332 -10 3975 -10 2643 0 3975 3 3975 10 0 7 -1332
10 -3975 10 -2643 0 -3975 -3 -3975 -10z"/>
<path d="M9080 2720 c0 -7 185 -10 534 -10 346 0 537 4 541 10 4 7 -177 10
-534 10 -354 0 -541 -3 -541 -10z"/>
<path d="M430 2680 c0 -7 1332 -10 3975 -10 2643 0 3975 3 3975 10 0 7 -1332
10 -3975 10 -2643 0 -3975 -3 -3975 -10z"/>
<path d="M9080 2680 c0 -7 182 -10 525 -10 343 0 525 3 525 10 0 7 -182 10
-525 10 -343 0 -525 -3 -525 -10z"/>
<path d="M430 2640 c0 -7 1326 -10 3959 -10 2629 0 3962 3 3966 10 4 7 -1318
10 -3959 10 -2637 0 -3966 -3 -3966 -10z"/>
<path d="M9080 2640 c0 -7 178 -10 515 -10 337 0 515 3 515 10 0 7 -178 10
-515 10 -337 0 -515 -3 -515 -10z"/>
<path d="M430 2600 c0 -13 7856 -13 7885 0 11 5 -1719 9 -3932 9 -2629 1
-3953 -2 -3953 -9z"/>
<path d="M9040 2600 c0 -7 181 -10 524 -10 339 0 527 4 531 10 4 7 -173 10
-524 10 -347 0 -531 -3 -531 -10z"/>
<path d="M430 2560 c0 -7 1308 -10 3905 -10 2597 0 3905 3 3905 10 0 7 -1308
10 -3905 10 -2597 0 -3905 -3 -3905 -10z"/>
<path d="M9030 2560 c0 -7 180 -10 519 -10 336 0 522 4 526 10 4 7 -172 10
-519 10 -344 0 -526 -3 -526 -10z"/>
<path d="M420 2520 c0 -13 7756 -13 7785 0 11 5 -1697 9 -3882 9 -2596 1
-3903 -2 -3903 -9z"/>
<path d="M9030 2520 c0 -7 173 -10 499 -10 323 0 502 4 506 10 4 7 -165 10
-499 10 -331 0 -506 -3 -506 -10z"/>
<path d="M415 2480 c-4 -7 1292 -10 3879 -10 2584 0 3886 3 3886 10 0 7 -1300
10 -3879 10 -2576 0 -3882 -3 -3886 -10z"/>
<path d="M9030 2480 c0 -7 163 -10 469 -10 303 0 472 4 476 10 4 7 -155 10
-469 10 -311 0 -476 -3 -476 -10z"/>
<path d="M410 2440 c0 -14 7689 -14 7710 0 10 6 -1350 10 -3847 10 -2569 0
-3863 -3 -3863 -10z"/>
<path d="M8975 2440 c-12 -5 184 -9 462 -9 311 -1 484 3 488 9 8 13 -921 13
-950 0z"/>
<path d="M400 2400 c0 -7 1286 -10 3839 -10 2549 0 3842 3 3846 10 4 7 -1278
10 -3839 10 -2557 0 -3846 -3 -3846 -10z"/>
<path d="M8950 2400 c0 -7 160 -10 459 -10 296 0 462 4 466 10 4 7 -152 10
-459 10 -304 0 -466 -3 -466 -10z"/>
<path d="M390 2360 c0 -7 1288 -10 3845 -10 2557 0 3845 3 3845 10 0 7 -1288
10 -3845 10 -2557 0 -3845 -3 -3845 -10z"/>
<path d="M8950 2360 c0 -7 151 -10 434 -10 279 0 437 4 441 10 4 7 -143 10
-434 10 -287 0 -441 -3 -441 -10z"/>
<path d="M385 2320 c-4 -7 1273 -10 3824 -10 2542 0 3832 3 3836 10 4 7 -1273
10 -3824 10 -2542 0 -3832 -3 -3836 -10z"/>
<path d="M8935 2320 c-4 -7 140 -10 424 -10 276 0 432 4 436 10 4 7 -140 10
-424 10 -276 0 -432 -4 -436 -10z"/>
<path d="M375 2280 c-4 -7 1271 -10 3819 -10 2539 0 3827 3 3831 10 4 7 -1271
10 -3819 10 -2539 0 -3827 -3 -3831 -10z"/>
<path d="M8855 2280 c-4 -7 146 -10 444 -10 289 0 452 4 456 10 4 7 -146 10
-444 10 -289 0 -452 -4 -456 -10z"/>
<path d="M370 2240 c0 -7 1275 -10 3804 -10 2526 0 3807 3 3811 10 4 7 -1267
10 -3804 10 -2534 0 -3811 -3 -3811 -10z"/>
<path d="M8845 2240 c-4 -7 145 -10 439 -10 291 0 446 3 446 10 0 7 -153 10
-439 10 -283 0 -442 -4 -446 -10z"/>
<path d="M370 2200 c0 -14 7569 -14 7590 0 10 6 -1329 10 -3787 10 -2529 0
-3803 -3 -3803 -10z"/>
<path d="M8835 2200 c4 -6 162 -10 441 -10 283 0 434 3 434 10 0 7 -154 10
-441 10 -291 0 -438 -3 -434 -10z"/>
<path d="M370 2160 c0 -7 1265 -10 3774 -10 2506 0 3777 3 3781 10 4 7 -1257
10 -3774 10 -2514 0 -3781 -3 -3781 -10z"/>
<path d="M8830 2160 c0 -7 148 -10 424 -10 273 0 427 4 431 10 4 7 -140 10
-424 10 -281 0 -431 -3 -431 -10z"/>
<path d="M370 2120 c0 -7 1258 -10 3754 -10 2493 0 3757 3 3761 10 4 7 -1250
10 -3754 10 -2501 0 -3761 -3 -3761 -10z"/>
<path d="M8785 2120 c-4 -7 141 -10 429 -10 279 0 437 4 441 10 4 7 -141 10
-429 10 -279 0 -437 -4 -441 -10z"/>
<path d="M370 2080 c0 -14 7466 -14 7475 0 4 7 -1243 10 -3734 10 -2487 0
-3741 -3 -3741 -10z"/>
<path d="M8780 2080 c0 -7 146 -10 419 -10 269 0 422 4 426 10 4 7 -138 10
-419 10 -277 0 -426 -3 -426 -10z"/>
<path d="M370 2040 c0 -14 7436 -14 7445 0 4 7 -1238 10 -3719 10 -2477 0
-3726 -3 -3726 -10z"/>
<path d="M8740 2040 c-10 -6 133 -10 412 -10 274 0 429 4 433 10 8 13 -824 13
-845 0z"/>
<path d="M370 2000 c0 -7 1240 -10 3699 -10 2456 0 3702 3 3706 10 4 7 -1232
10 -3699 10 -2464 0 -3706 -3 -3706 -10z"/>
<path d="M8740 2000 c0 -6 140 -10 399 -10 256 0 402 4 406 10 4 7 -132 10
-399 10 -264 0 -406 -3 -406 -10z"/>
<path d="M370 1960 c0 -7 1235 -10 3685 -10 2450 0 3685 3 3685 10 0 7 -1235
10 -3685 10 -2450 0 -3685 -3 -3685 -10z"/>
<path d="M8670 1960 c-19 -4 162 -8 402 -9 287 -1 439 2 443 9 7 12 -787 12
-845 0z"/>
<path d="M370 1920 c0 -7 1233 -10 3679 -10 2443 0 3682 3 3686 10 4 7 -1225
10 -3679 10 -2451 0 -3686 -3 -3686 -10z"/>
<path d="M8630 1920 c0 -7 148 -10 424 -10 273 0 427 4 431 10 4 7 -140 10
-424 10 -281 0 -431 -3 -431 -10z"/>
<path d="M370 1880 c0 -7 1228 -10 3664 -10 2433 0 3667 3 3671 10 4 7 -1220
10 -3664 10 -2441 0 -3671 -3 -3671 -10z"/>
<path d="M8625 1880 c-4 -7 136 -10 414 -10 269 0 422 4 426 10 4 7 -136 10
-414 10 -269 0 -422 -4 -426 -10z"/>
<path d="M370 1840 c0 -14 7276 -14 7285 0 4 7 -1212 10 -3639 10 -2424 0
-3646 -3 -3646 -10z"/>
<path d="M8565 1840 c-4 -7 143 -10 434 -10 287 0 441 3 441 10 0 7 -151 10
-434 10 -279 0 -437 -4 -441 -10z"/>
<path d="M370 1800 c0 -7 1217 -10 3630 -10 2413 0 3630 3 3630 10 0 7 -1217
10 -3630 10 -2413 0 -3630 -3 -3630 -10z"/>
<path d="M8580 1800 c0 -7 147 -10 420 -10 273 0 420 3 420 10 0 7 -147 10
-420 10 -273 0 -420 -3 -420 -10z"/>
<path d="M370 1760 c0 -14 7216 -14 7225 0 4 7 -1202 10 -3609 10 -2404 0
-3616 -3 -3616 -10z"/>
<path d="M8565 1760 c-4 -7 137 -10 414 -10 274 0 421 3 421 10 0 7 -145 10
-414 10 -266 0 -417 -4 -421 -10z"/>
<path d="M370 1720 c0 -7 1207 -10 3600 -10 2393 0 3600 3 3600 10 0 7 -1207
10 -3600 10 -2393 0 -3600 -3 -3600 -10z"/>
<path d="M8540 1720 c0 -7 148 -10 425 -10 277 0 425 3 425 10 0 7 -148 10
-425 10 -277 0 -425 -3 -425 -10z"/>
<path d="M365 1680 c-4 -7 1193 -10 3584 -10 2382 0 3592 3 3596 10 4 7 -1193
10 -3584 10 -2382 0 -3592 -3 -3596 -10z"/>
<path d="M7660 1680 c0 -5 7 -10 15 -10 8 0 15 5 15 10 0 6 -7 10 -15 10 -8 0
-15 -4 -15 -10z"/>
<path d="M8530 1680 c0 -7 148 -10 425 -10 277 0 425 3 425 10 0 7 -148 10
-425 10 -277 0 -425 -3 -425 -10z"/>
<path d="M8468 1673 c7 -3 16 -2 19 1 4 3 -2 6 -13 5 -11 0 -14 -3 -6 -6z"/>
<path d="M360 1640 c0 -7 1215 -10 3626 -10 2414 0 3623 3 3619 10 -4 7 -1223
10 -3626 10 -2406 0 -3619 -3 -3619 -10z"/>
<path d="M8445 1640 c-4 -7 155 -10 469 -10 311 0 476 3 476 10 0 7 -163 10
-469 10 -303 0 -472 -4 -476 -10z"/>
<path d="M360 1600 c0 -14 7216 -14 7225 0 4 7 -1202 10 -3609 10 -2404 0
-3616 -3 -3616 -10z"/>
<path d="M8365 1600 c-4 -7 168 -10 509 -10 337 0 516 3 516 10 0 7 -176 10
-509 10 -329 0 -512 -4 -516 -10z"/>
<path d="M350 1560 c0 -14 7176 -14 7185 0 4 7 -1195 10 -3589 10 -2391 0
-3596 -3 -3596 -10z"/>
<path d="M8295 1560 c-4 -7 182 -10 549 -10 364 0 556 3 556 10 0 7 -190 10
-549 10 -356 0 -552 -4 -556 -10z"/>
<path d="M350 1520 c0 -14 7166 -14 7175 0 4 7 -1206 10 -3584 10 -2394 0
-3591 -3 -3591 -10z"/>
<path d="M8265 1520 c-4 -7 187 -10 564 -10 374 0 571 3 571 10 0 7 -195 10
-564 10 -366 0 -567 -4 -571 -10z"/>
<path d="M350 1480 c0 -7 1182 -10 3556 -10 2348 0 3553 4 3549 10 -9 14
-7105 14 -7105 0z"/>
<path d="M8205 1480 c-4 -6 215 -10 594 -10 402 0 601 3 601 10 0 14 -1187 13
-1195 0z"/>
<path d="M350 1440 c0 -7 1190 -10 3553 -9 1990 0 3543 4 3532 9 -29 13 -7085
13 -7085 0z"/>
<path d="M8190 1440 c-10 -6 198 -10 598 -10 401 0 612 3 612 10 0 13 -1189
13 -1210 0z"/>
<path d="M350 1400 c0 -14 7087 -14 7095 0 4 7 -1206 10 -3544 10 -2374 0
-3551 -3 -3551 -10z"/>
<path d="M8140 1400 c0 -7 218 -10 635 -10 417 0 635 3 635 10 0 7 -218 10
-635 10 -417 0 -635 -3 -635 -10z"/>
<path d="M350 1360 c0 -14 7016 -14 7025 0 4 7 -1168 10 -3509 10 -2337 0
-3516 -3 -3516 -10z"/>
<path d="M7398 1363 c6 -2 18 -2 25 0 6 3 1 5 -13 5 -14 0 -19 -2 -12 -5z"/>
<path d="M8025 1360 c-11 -5 283 -9 688 -9 465 -1 707 2 707 9 0 13 -1366 13
-1395 0z"/>
<path d="M350 1320 c0 -7 1173 -10 3499 -10 2323 0 3502 3 3506 10 4 7 -1165
10 -3499 10 -2331 0 -3506 -3 -3506 -10z"/>
<path d="M7995 1320 c-4 -7 238 -10 720 -10 482 0 724 3 720 10 -4 7 -255 10
-720 10 -465 0 -716 -3 -720 -10z"/>
<path d="M360 1280 c0 -14 6929 -14 6950 0 10 6 -1215 10 -3467 10 -2316 0
-3483 -3 -3483 -10z"/>
<path d="M7910 1280 c0 -7 264 -10 771 -10 511 0 768 3 764 10 -4 7 -272 10
-771 10 -503 0 -764 -3 -764 -10z"/>
<path d="M375 1240 c8 -14 6854 -14 6875 0 10 6 -1203 10 -3433 10 -2296 0
-3446 -3 -3442 -10z"/>
<path d="M7590 1240 c0 -5 9 -10 20 -10 11 0 20 5 20 10 0 6 -9 10 -20 10 -11
0 -20 -4 -20 -10z"/>
<path d="M7850 1240 c0 -6 300 -10 805 -10 541 0 805 3 805 10 0 7 -263 10
-805 10 -504 -1 -805 -4 -805 -10z"/>
<path d="M380 1200 c0 -7 930 -10 2770 -10 1840 0 2770 3 2770 10 0 7 -930 10
-2770 10 -1840 0 -2770 -3 -2770 -10z"/>
<path d="M5960 1200 c0 -7 218 -10 635 -10 417 0 635 3 635 10 0 7 -218 10
-635 10 -417 0 -635 -3 -635 -10z"/>
<path d="M7855 1200 c-4 -7 268 -10 809 -10 537 0 816 3 816 10 0 7 -276 10
-809 10 -529 0 -812 -3 -816 -10z"/>
<path d="M380 1160 c0 -7 925 -10 2755 -10 1830 0 2755 3 2755 10 0 7 -925 10
-2755 10 -1830 0 -2755 -3 -2755 -10z"/>
<path d="M5940 1160 c0 -7 223 -10 650 -10 427 0 650 3 650 10 0 7 -223 10
-650 10 -427 0 -650 -3 -650 -10z"/>
<path d="M7725 1160 c-11 -5 370 -9 883 -9 600 -1 901 2 897 9 -8 13 -1751 13
-1780 0z"/>
<path d="M385 1120 c4 -7 928 -10 2740 -10 1812 0 2736 3 2740 10 4 7 -912 10
-2740 10 -1828 0 -2744 -3 -2740 -10z"/>
<path d="M5955 1120 c4 -6 222 -10 621 -10 408 0 613 3 609 10 -4 6 -222 10
-621 10 -408 0 -613 -3 -609 -10z"/>
<path d="M7240 1120 c0 -5 7 -10 15 -10 8 0 15 5 15 10 0 6 -7 10 -15 10 -8 0
-15 -4 -15 -10z"/>
<path d="M7665 1120 c-11 -5 390 -9 928 -9 630 -1 946 2 942 9 -8 13 -1841 13
-1870 0z"/>
<path d="M400 1080 c0 -7 1149 -10 3446 -10 2281 0 3443 3 3439 10 -9 14
-6885 14 -6885 0z"/>
<path d="M7595 1080 c-4 -7 328 -10 990 -10 662 0 994 3 990 10 -9 14 -1971
14 -1980 0z"/>
<path d="M410 1040 c0 -7 1163 -10 3470 -10 2307 0 3470 3 3470 10 0 7 -1163
10 -3470 10 -2307 0 -3470 -3 -3470 -10z"/>
<path d="M7395 1040 c-4 -7 372 -10 1120 -10 748 0 1124 3 1120 10 -4 7 -388
10 -1120 10 -732 0 -1116 -3 -1120 -10z"/>
<path d="M410 1000 c0 -7 1165 -10 3475 -10 2310 0 3475 3 3475 10 0 7 -1165
10 -3475 10 -2310 0 -3475 -3 -3475 -10z"/>
<path d="M7390 1000 c0 -7 394 -10 1163 -10 754 0 1157 4 1147 10 -21 14
-2310 14 -2310 0z"/>
<path d="M420 960 c0 -7 1562 -10 4666 -10 3107 0 4663 3 4659 10 -9 14 -9325
14 -9325 0z"/>
<path d="M420 920 c0 -7 1569 -10 4686 -10 3121 0 4683 3 4679 10 -9 14 -9365
14 -9365 0z"/>
<path d="M430 880 c0 -7 842 -10 2505 -10 1663 0 2505 3 2505 10 0 7 -842 10
-2505 10 -1663 0 -2505 -3 -2505 -10z"/>
<path d="M5480 880 c0 -7 734 -10 2183 -10 1412 0 2177 4 2167 10 -21 14
-4350 14 -4350 0z"/>
<path d="M430 840 c0 -7 1580 -10 4720 -10 3140 0 4720 3 4720 10 0 7 -1580
10 -4720 10 -3140 0 -4720 -3 -4720 -10z"/>
<path d="M430 800 c0 -7 1587 -10 4741 -10 3157 0 4738 3 4734 10 -9 14 -9475
14 -9475 0z"/>
<path d="M430 760 c0 -7 1597 -10 4773 -10 3084 0 4767 4 4757 10 -21 14
-9530 14 -9530 0z"/>
<path d="M430 720 c0 -7 1605 -10 4796 -10 3194 0 4793 3 4789 10 -9 14 -9585
14 -9585 0z"/>
<path d="M430 680 c0 -7 1610 -10 4811 -10 3204 0 4808 3 4804 10 -9 14 -9615
14 -9615 0z"/>
<path d="M430 640 c0 -7 1617 -10 4831 -10 3217 0 4828 3 4824 10 -9 14 -9655
14 -9655 0z"/>
<path d="M430 600 c0 -14 9656 -14 9665 0 4 7 -1608 10 -4829 10 -3217 0
-4836 -3 -4836 -10z"/>
<path d="M430 560 c0 -7 1615 -10 4825 -10 3210 0 4825 3 4825 10 0 7 -1615
10 -4825 10 -3210 0 -4825 -3 -4825 -10z"/>
<path d="M430 520 c0 -7 1613 -10 4820 -10 3207 0 4820 3 4820 10 0 7 -1613
10 -4820 10 -3207 0 -4820 -3 -4820 -10z"/>
<path d="M430 480 c0 -7 1613 -10 4820 -10 3207 0 4820 3 4820 10 0 7 -1613
10 -4820 10 -3207 0 -4820 -3 -4820 -10z"/>
<path d="M430 440 c0 -12 4974 -12 5060 0 30 4 -1096 8 -2502 9 -1700 1 -2558
-2 -2558 -9z"/>
<path d="M7695 439 c484 -11 2375 -10 2375 1 0 7 -450 9 -1332 8 -794 -1
-1216 -5 -1043 -9z"/>
<path d="M430 400 c0 -12 37 -12 65 0 15 7 10 9 -22 9 -24 1 -43 -3 -43 -9z"/>
<path d="M1355 399 c416 -8 1090 -8 1280 1 83 3 -244 6 -725 6 -615 0 -780 -2
-555 -7z"/>
<path d="M3525 400 c26 -11 1604 -11 1630 0 11 5 -341 9 -815 9 -474 0 -826
-4 -815 -9z"/>
</g>
</svg>
