<?xml version="1.0" standalone="no"?>
<!DOCTYPE svg PUBLIC "-//W3C//DTD SVG 20010904//EN"
 "http://www.w3.org/TR/2001/REC-SVG-20010904/DTD/svg10.dtd">
<svg version="1.0" xmlns="http://www.w3.org/2000/svg"
 width="6400.000000pt" height="4000.000000pt" viewBox="0 0 6400.000000 4000.000000"
 preserveAspectRatio="xMidYMid meet">
<metadata>
Created by potrace 1.12, written by Peter Selinger 2001-2015
</metadata>
<g transform="translate(0.000000,0.000000) scale(1.00000, 1.00000)"
fill="#000000" stroke="none">
<path d="M1201 3254 c-29 -26 -71 -74 -95 -108 -51 -72 -172 -283 -187 -324
-6 -18 -23 -35 -46 -46 -19 -9 -33 -19 -30 -22 3 -3 18 3 33 12 l27 18 -6 -24
c-16 -59 -16 -72 -1 -30 9 25 18 46 19 48 1 1 27 -9 58 -24 l57 -25 0 -48 c0
-173 141 -321 226 -236 34 34 30 76 -9 89 -21 8 -31 6 -44 -7 -19 -19 -10 -47
18 -55 8 -2 5 2 -5 10 -23 18 -15 48 12 48 44 0 55 -45 19 -78 -76 -71 -193
48 -205 207 l-5 71 29 0 c25 0 124 49 100 50 -5 0 -24 -9 -42 -21 -19 -11 -44
-19 -56 -17 -20 3 -23 8 -20 38 4 42 46 167 114 342 34 87 57 134 75 148 14
11 24 23 21 25 -3 3 -29 -15 -57 -41z m-37 -95 c-49 -120 -124 -344 -124 -372
0 -39 -25 -44 -76 -16 -24 13 -44 25 -44 26 0 41 250 446 266 430 2 -2 -8 -33
-22 -68z"/>
<path d="M3101 3249 c-14 -11 -35 -34 -47 -50 -20 -28 -28 -31 -86 -32 -52 -2
-73 -7 -106 -29 -58 -39 -97 -109 -97 -175 0 -70 25 -97 117 -127 16 -5 15
-10 -3 -78 -11 -40 -36 -106 -55 -147 -28 -60 -37 -72 -52 -66 -33 15 -83 17
-112 5 -50 -21 -52 -77 -4 -98 42 -20 65 -14 104 27 l37 38 57 -38 c62 -42
119 -55 196 -46 71 9 118 37 193 116 115 122 127 228 43 397 -53 107 -117 172
-198 202 l-52 19 52 52 c51 51 58 68 13 30z m-81 -101 c-1 -7 -9 -29 -19 -48
-17 -32 -22 -34 -60 -31 -34 2 -46 -2 -71 -27 -47 -47 -33 -111 26 -126 22 -6
25 -11 19 -34 -3 -15 -9 -30 -13 -34 -10 -9 -79 16 -102 37 -26 24 -35 78 -21
127 14 47 74 116 116 134 40 17 125 18 125 2z m84 -19 c79 -37 122 -83 173
-186 45 -91 48 -100 48 -177 0 -96 -15 -133 -88 -212 -66 -73 -122 -105 -197
-111 -75 -7 -131 8 -192 52 l-47 35 30 67 c17 38 41 104 54 148 21 74 25 80
51 83 35 4 70 35 95 84 27 52 24 84 -10 118 l-28 29 20 45 c11 25 26 46 33 46
8 0 34 -9 58 -21z m-132 -74 c5 -5 -38 -123 -48 -134 -2 -2 -17 2 -33 9 -75
31 -37 128 50 130 14 0 28 -2 31 -5z m47 -41 c12 -15 21 -35 21 -46 0 -24 -26
-76 -53 -105 -23 -26 -67 -31 -67 -9 0 24 61 186 70 186 5 0 18 -12 29 -26z
m-247 -482 c15 -15 -27 -70 -59 -79 -60 -14 -107 49 -61 82 25 18 101 16 120
-3z"/>
<path d="M4710 3256 c0 -5 11 -23 24 -40 55 -73 86 -169 86 -264 0 -51 -17
-137 -50 -261 l-22 -80 -22 41 c-39 74 -123 99 -186 56 -123 -84 -63 -268 83
-255 71 6 120 49 129 113 3 27 20 101 37 164 54 200 51 314 -10 430 -32 59
-68 111 -69 96z m-23 -567 c47 -44 65 -112 42 -162 -14 -32 -78 -67 -120 -67
-65 0 -129 65 -129 130 0 32 26 75 62 105 27 21 41 25 76 22 27 -3 53 -14 69
-28z"/>
<path d="M4364 3035 c-5 -12 -10 -13 -20 -4 -8 6 -21 9 -29 5 -23 -8 -18 -52
10 -83 l25 -28 20 24 c23 27 35 64 26 86 -7 19 -25 19 -32 0z m26 -16 c0 -23
-30 -79 -42 -79 -13 0 -38 44 -38 67 0 29 14 29 34 2 l15 -22 7 27 c7 31 24
35 24 5z"/>
<path d="M3935 2886 c-23 -24 -36 -32 -46 -25 -44 28 -95 -9 -86 -63 4 -29 1
-35 -27 -48 -42 -20 -56 -62 -34 -100 16 -29 16 -29 -12 -35 -16 -3 -34 -13
-40 -21 -18 -20 -4 -59 25 -72 25 -11 25 -13 11 -34 -37 -53 -7 -103 56 -95
36 5 38 4 32 -19 -7 -28 19 -74 41 -74 9 0 24 6 35 12 17 11 22 9 35 -10 20
-27 56 -28 80 -2 10 11 24 20 32 20 28 0 73 31 79 55 5 19 13 25 34 25 30 0
60 27 60 55 0 10 -10 29 -21 41 l-21 23 33 14 c74 31 90 89 33 117 l-30 16 18
29 c22 37 23 64 2 94 -13 18 -23 22 -45 17 -27 -5 -29 -4 -29 29 0 67 -53 85
-101 34 -27 -29 -29 -30 -29 -9 0 30 -18 60 -37 60 -8 0 -30 -15 -48 -34z m70
1 c3 -12 5 -58 3 -102 l-3 -80 -31 -3 c-30 -3 -31 -2 -43 54 -16 82 -14 102
14 129 30 31 53 32 60 2z m123 -9 c30 -30 1 -117 -56 -172 -34 -31 -70 -30
-57 2 4 9 11 43 15 76 12 83 62 130 98 94z m-236 -30 c13 -11 38 -105 38 -144
0 -7 -9 -18 -21 -24 -26 -15 -54 8 -80 65 -32 69 -21 115 26 115 12 0 28 -6
37 -12z m332 -81 c16 -44 -17 -94 -81 -125 l-52 -26 -20 25 c-11 13 -20 26
-20 29 -1 3 26 33 59 68 66 71 97 79 114 29z m-393 -49 c13 -18 31 -39 41 -46
17 -12 17 -15 3 -35 -12 -17 -23 -21 -57 -19 -74 5 -104 70 -52 111 35 27 39
27 65 -11z m209 -58 c72 -51 35 -159 -60 -175 -47 -8 -74 5 -95 45 -25 49 -19
88 20 127 31 31 40 35 70 30 20 -3 49 -15 65 -27z m201 -20 c44 -24 2 -93 -66
-106 -52 -9 -85 8 -85 45 0 24 7 31 48 49 53 24 75 26 103 12z m-383 -66 c3
-28 -1 -32 -38 -44 -48 -16 -107 -5 -124 23 -9 15 -6 22 13 38 19 16 36 19 85
17 60 -3 61 -3 64 -34z m18 -101 c-21 -41 -49 -63 -90 -70 -42 -7 -66 9 -66
41 0 29 35 66 63 66 12 1 36 7 52 14 26 11 32 11 43 -5 10 -15 10 -23 -2 -46z
m249 53 c66 -23 98 -83 56 -106 -34 -18 -54 -11 -97 31 -42 41 -42 42 -26 65
20 28 17 27 67 10z m-201 -49 c18 -13 18 -16 0 -73 -27 -90 -54 -113 -89 -77
-23 22 -14 62 24 102 17 18 31 39 31 47 0 18 11 18 34 1z m171 -50 c22 -31 19
-53 -11 -76 -47 -37 -58 -29 -73 50 -11 59 -11 73 0 80 15 9 60 -20 84 -54z
m-95 -16 c16 -75 8 -109 -27 -117 -19 -5 -30 -2 -40 11 -17 25 -17 47 4 112
23 75 46 72 63 -6z"/>
<path d="M1322 2798 c-28 -28 -2 -108 32 -95 9 4 16 12 15 19 0 10 -2 10 -6 1
-8 -22 -32 -14 -39 11 -13 54 8 75 62 62 38 -10 57 -66 52 -151 -8 -120 -60
-201 -105 -163 -14 11 -16 11 -11 -2 8 -25 51 -23 76 3 28 29 52 113 52 182
l1 50 29 -34 c29 -34 100 -189 100 -217 0 -8 4 -14 10 -14 10 0 2 61 -10 70
-3 3 -22 39 -42 80 -32 68 -71 125 -127 188 -22 24 -69 30 -89 10z"/>
<path d="M1792 2798 c-28 -28 -2 -108 32 -95 9 4 16 12 15 19 0 10 -2 10 -6 1
-8 -22 -32 -14 -39 11 -13 54 8 75 62 62 38 -10 57 -66 52 -151 -8 -120 -60
-201 -105 -163 -14 11 -16 11 -11 -2 8 -25 51 -23 76 3 28 29 52 113 52 182
l1 50 29 -34 c29 -34 100 -189 100 -217 0 -8 4 -14 10 -14 10 0 2 61 -10 70
-3 3 -22 39 -42 80 -32 68 -71 125 -127 188 -22 24 -69 30 -89 10z"/>
<path d="M4310 2765 c-17 -20 -8 -49 15 -52 17 -2 17 -1 2 3 -22 7 -19 33 6
48 22 14 49 -2 61 -36 7 -20 1 -44 -29 -114 -48 -112 -55 -164 -26 -193 11
-11 30 -21 41 -21 19 0 41 28 39 52 0 7 -4 3 -9 -10 -13 -31 -37 -38 -60 -17
-29 26 -25 68 16 165 20 47 39 98 41 113 10 53 -65 101 -97 62z"/>
<path d="M3413 2750 c-40 -24 -52 -63 -28 -90 23 -25 37 -25 59 -1 22 24 17
55 -9 59 -20 4 -20 3 -1 -11 12 -9 17 -20 13 -31 -18 -45 -75 -20 -63 28 6 25
50 56 80 56 22 0 46 -40 46 -78 0 -18 -13 -59 -30 -92 -33 -66 -36 -91 -14
-135 8 -16 12 -21 8 -10 -18 60 -15 83 15 143 17 34 31 77 31 95 0 26 6 36 25
45 14 7 34 12 44 12 22 0 51 -30 51 -53 0 -17 -29 -37 -54 -37 -19 0 -21 27
-3 33 7 2 6 3 -3 3 -21 -2 -19 -40 3 -44 25 -5 67 25 67 46 0 10 -11 29 -25
42 -23 22 -29 23 -67 13 -38 -10 -44 -9 -56 8 -17 24 -48 24 -89 -1z"/>
<path d="M1646 2725 c-26 -28 -44 -81 -51 -151 -4 -40 -2 -36 10 19 22 106 65
165 102 141 31 -19 39 -42 24 -66 -13 -21 -13 -22 2 -9 23 18 21 47 -3 71 -27
27 -56 25 -84 -5z"/>
<path d="M2116 2725 c-26 -28 -44 -81 -51 -151 -4 -40 -2 -36 10 19 22 106 65
165 102 141 31 -19 39 -42 24 -66 -13 -21 -13 -22 2 -9 23 18 21 47 -3 71 -27
27 -56 25 -84 -5z"/>
<path d="M840 2585 c-35 -107 -106 -168 -175 -151 -16 4 -27 16 -31 33 -14 54
44 106 76 68 16 -19 -2 -44 -34 -46 -16 -1 -17 -2 -4 -6 45 -12 79 45 39 67
-30 15 -48 12 -71 -12 -40 -44 -15 -118 42 -118 42 0 95 27 119 61 26 37 71
147 66 163 -2 6 -14 -20 -27 -59z"/>
<path d="M4796 2557 c-10 -7 -17 -22 -14 -33 4 -21 35 -31 51 -15 7 7 3 8 -11
4 -26 -6 -43 24 -21 38 24 15 75 10 92 -9 24 -26 21 -47 -9 -71 -45 -35 -96
-25 -122 24 -6 11 -12 14 -12 7 0 -22 48 -62 75 -62 39 0 84 27 91 56 14 54
-71 97 -120 61z"/>
</g>
</svg>
