<?xml version="1.0" standalone="no"?>
<!DOCTYPE svg PUBLIC "-//W3C//DTD SVG 20010904//EN"
 "http://www.w3.org/TR/2001/REC-SVG-20010904/DTD/svg10.dtd">
<svg version="1.0" xmlns="http://www.w3.org/2000/svg"
 width="5000.000000pt" height="5000.000000pt" viewBox="0 0 5000.000000 5000.000000"
 preserveAspectRatio="xMidYMid meet">
<g transform="translate(0.000000,0.000000) scale(1.00000,1.00000)"
fill="#000000" stroke="none">
<path d="M2245 4840 c-22 -4 154 -7 390 -7 241 0 408 3 380 7 -62 10 -715 10
-770 0z"/>
<path d="M2040 4800 c-14 -4 256 -8 600 -8 344 0 614 4 600 8 -14 4 -284 8
-600 8 -316 0 -586 -4 -600 -8z"/>
<path d="M1905 4760 l-20 -9 20 1 c11 0 34 4 50 8 l30 8 -30 0 c-16 0 -39 -3
-50 -8z"/>
<path d="M3020 4760 c8 -5 95 -9 195 -9 110 0 172 4 160 9 -29 12 -374 12
-355 0z"/>
<path d="M3110 4720 c8 -5 98 -10 200 -10 123 0 180 4 170 10 -8 5 -98 10
-200 10 -123 0 -180 -4 -170 -10z"/>
<path d="M3205 4680 c29 -12 374 -12 355 0 -8 5 -95 9 -195 9 -110 0 -172 -4
-160 -9z"/>
<path d="M1670 4640 c-8 -5 -10 -10 -5 -10 6 0 17 5 25 10 8 5 11 10 5 10 -5
0 -17 -5 -25 -10z"/>
<path d="M3290 4640 c8 -5 92 -10 185 -10 113 0 165 4 155 10 -8 5 -91 10
-185 10 -113 0 -165 -4 -155 -10z"/>
<path d="M1615 4600 c-3 -5 1 -10 9 -10 8 0 18 5 21 10 3 6 -1 10 -9 10 -8 0
-18 -4 -21 -10z"/>
<path d="M3375 4600 c4 -6 70 -10 166 -10 104 0 158 3 154 10 -4 6 -70 10
-166 10 -104 0 -158 -3 -154 -10z"/>
<path d="M1565 4560 c-3 -5 3 -10 14 -10 11 0 23 5 26 10 3 6 -3 10 -14 10
-11 0 -23 -4 -26 -10z"/>
<path d="M3450 4560 c20 -13 303 -13 295 0 -4 6 -67 10 -158 10 -102 0 -147
-4 -137 -10z"/>
<path d="M1525 4520 c-4 -6 5 -10 19 -10 14 0 26 5 26 10 0 6 -9 10 -19 10
-11 0 -23 -4 -26 -10z"/>
<path d="M3520 4520 c20 -13 283 -13 275 0 -4 6 -64 10 -148 10 -95 0 -137 -3
-127 -10z"/>
<path d="M1485 4480 c-4 -6 7 -10 24 -10 17 0 31 5 31 10 0 6 -11 10 -24 10
-14 0 -28 -4 -31 -10z"/>
<path d="M3580 4480 c20 -13 263 -13 255 0 -4 6 -61 10 -138 10 -89 0 -127 -3
-117 -10z"/>
<path d="M1450 4440 c0 -5 13 -10 29 -10 17 0 33 5 36 10 4 6 -8 10 -29 10
-20 0 -36 -4 -36 -10z"/>
<path d="M3640 4440 c20 -13 243 -13 235 0 -4 6 -57 10 -128 10 -82 0 -117 -3
-107 -10z"/>
<path d="M1420 4400 c0 -5 16 -10 35 -10 19 0 35 5 35 10 0 6 -16 10 -35 10
-19 0 -35 -4 -35 -10z"/>
<path d="M3695 4400 c3 -6 52 -10 111 -10 63 0 104 4 104 10 0 6 -44 10 -111
10 -71 0 -108 -4 -104 -10z"/>
<path d="M1390 4360 c0 -5 18 -10 40 -10 22 0 40 5 40 10 0 6 -18 10 -40 10
-22 0 -40 -4 -40 -10z"/>
<path d="M3740 4360 c20 -13 200 -13 200 0 0 6 -42 10 -107 10 -74 0 -103 -3
-93 -10z"/>
<path d="M1365 4320 c-4 -6 12 -10 39 -10 25 0 46 5 46 10 0 6 -18 10 -39 10
-22 0 -43 -4 -46 -10z"/>
<path d="M3785 4320 c3 -5 46 -10 96 -10 53 0 89 4 89 10 0 6 -39 10 -96 10
-61 0 -93 -4 -89 -10z"/>
<path d="M1340 4280 c0 -5 20 -10 44 -10 25 0 48 5 51 10 4 6 -13 10 -44 10
-28 0 -51 -4 -51 -10z"/>
<path d="M3825 4280 c3 -5 44 -10 91 -10 54 0 83 4 79 10 -3 6 -44 10 -91 10
-54 0 -83 -4 -79 -10z"/>
<path d="M1320 4240 c0 -5 23 -10 50 -10 28 0 50 5 50 10 0 6 -22 10 -50 10
-27 0 -50 -4 -50 -10z"/>
<path d="M3855 4240 c3 -5 42 -10 86 -10 51 0 78 4 74 10 -3 6 -42 10 -86 10
-51 0 -78 -4 -74 -10z"/>
<path d="M1300 4200 c0 -5 22 -10 49 -10 28 0 53 5 56 10 4 6 -15 10 -49 10
-31 0 -56 -4 -56 -10z"/>
<path d="M3885 4200 c3 -5 40 -10 81 -10 48 0 73 4 69 10 -3 6 -40 10 -81 10
-48 0 -73 -4 -69 -10z"/>
<path d="M1280 4160 c0 -5 25 -10 55 -10 30 0 55 5 55 10 0 6 -25 10 -55 10
-30 0 -55 -4 -55 -10z"/>
<path d="M3915 4160 c3 -5 38 -10 76 -10 44 0 68 4 64 10 -3 6 -38 10 -76 10
-44 0 -68 -4 -64 -10z"/>
<path d="M1265 4120 c-4 -6 17 -10 54 -10 34 0 61 4 61 10 0 6 -24 10 -54 10
-30 0 -58 -4 -61 -10z"/>
<path d="M3940 4120 c0 -6 29 -10 66 -10 41 0 63 4 59 10 -3 6 -33 10 -66 10
-33 0 -59 -4 -59 -10z"/>
<path d="M1250 4080 c0 -6 27 -10 60 -10 33 0 60 4 60 10 0 6 -27 10 -60 10
-33 0 -60 -4 -60 -10z"/>
<path d="M3955 4080 c3 -5 33 -10 66 -10 33 0 59 4 59 10 0 6 -29 10 -66 10
-41 0 -63 -4 -59 -10z"/>
<path d="M1235 4040 c-4 -6 18 -10 59 -10 36 0 68 5 71 10 4 6 -18 10 -59 10
-36 0 -68 -4 -71 -10z"/>
<path d="M3970 4040 c0 -6 27 -10 60 -10 33 0 60 4 60 10 0 6 -27 10 -60 10
-33 0 -60 -4 -60 -10z"/>
<path d="M1220 4000 c0 -6 30 -10 70 -10 40 0 70 4 70 10 0 6 -30 10 -70 10
-40 0 -70 -4 -70 -10z"/>
<path d="M3980 4000 c0 -6 27 -10 60 -10 33 0 60 4 60 10 0 6 -27 10 -60 10
-33 0 -60 -4 -60 -10z"/>
<path d="M1210 3960 c0 -6 30 -10 70 -10 40 0 70 4 70 10 0 6 -30 10 -70 10
-40 0 -70 -4 -70 -10z"/>
<path d="M3990 3960 c0 -6 27 -10 60 -10 33 0 60 4 60 10 0 6 -27 10 -60 10
-33 0 -60 -4 -60 -10z"/>
<path d="M1200 3920 c0 -6 32 -10 75 -10 43 0 75 4 75 10 0 6 -32 10 -75 10
-43 0 -75 -4 -75 -10z"/>
<path d="M3990 3920 c0 -6 30 -10 71 -10 44 0 68 4 64 10 -3 6 -35 10 -71 10
-36 0 -64 -4 -64 -10z"/>
<path d="M1190 3880 c0 -6 32 -10 75 -10 43 0 75 4 75 10 0 6 -32 10 -75 10
-43 0 -75 -4 -75 -10z"/>
<path d="M3980 3880 c0 -6 34 -10 81 -10 51 0 78 4 74 10 -3 6 -40 10 -81 10
-43 0 -74 -4 -74 -10z"/>
<path d="M1180 3840 c0 -6 33 -10 80 -10 47 0 80 4 80 10 0 6 -33 10 -80 10
-47 0 -80 -4 -80 -10z"/>
<path d="M2310 3840 c-58 -3 57 -6 255 -6 236 0 320 2 245 6 -136 9 -354 8
-500 0z"/>
<path d="M3965 3840 c-4 -6 28 -10 90 -10 62 0 94 4 90 10 -3 6 -44 10 -90 10
-46 0 -87 -4 -90 -10z"/>
<path d="M1170 3800 c0 -6 33 -10 80 -10 47 0 80 4 80 10 0 6 -33 10 -80 10
-47 0 -80 -4 -80 -10z"/>
<path d="M1900 3800 c-19 -4 280 -7 665 -7 385 0 678 3 650 7 -63 10 -1268 10
-1315 0z"/>
<path d="M3950 3800 c0 -6 42 -10 105 -10 63 0 105 4 105 10 0 6 -42 10 -105
10 -63 0 -105 -4 -105 -10z"/>
<path d="M1160 3760 c0 -6 35 -10 85 -10 50 0 85 4 85 10 0 6 -35 10 -85 10
-50 0 -85 -4 -85 -10z"/>
<path d="M1680 3760 c-19 -4 402 -7 935 -7 534 0 945 3 915 7 -71 10 -1804 10
-1850 0z"/>
<path d="M3930 3760 c0 -6 47 -10 120 -10 73 0 120 4 120 10 0 6 -47 10 -120
10 -73 0 -120 -4 -120 -10z"/>
<path d="M1150 3720 c0 -6 37 -10 90 -10 53 0 90 4 90 10 0 6 -37 10 -90 10
-53 0 -90 -4 -90 -10z"/>
<path d="M1465 3720 c-16 -4 588 -8 1343 -9 909 -1 1372 2 1372 9 0 12 -2668
12 -2715 0z"/>
<path d="M1145 3680 c-4 -7 505 -10 1519 -10 1011 0 1526 3 1526 10 0 14
-3036 14 -3045 0z"/>
<path d="M1135 3640 c-4 -7 508 -10 1529 -10 1017 0 1536 3 1536 10 0 14
-3056 14 -3065 0z"/>
<path d="M1120 3600 c0 -7 522 -10 1545 -10 1023 0 1545 3 1545 10 0 7 -522
10 -1545 10 -1023 0 -1545 -3 -1545 -10z"/>
<path d="M1105 3560 c-7 -12 1319 -12 1405 0 30 4 -272 8 -672 9 -475 1 -729
-2 -733 -9z"/>
<path d="M2720 3560 c170 -12 1500 -12 1500 0 0 7 -273 9 -802 8 -442 -1 -756
-5 -698 -8z"/>
<path d="M1090 3520 c0 -7 217 -10 631 -10 417 0 628 3 624 10 -4 6 -225 10
-631 10 -409 0 -624 -3 -624 -10z"/>
<path d="M3035 3520 c-11 -5 239 -9 588 -9 398 -1 607 2 607 9 0 13 -1166 13
-1195 0z"/>
<path d="M1075 3480 c-4 -7 212 -10 639 -10 424 0 646 3 646 10 0 7 -220 10
-639 10 -416 0 -642 -4 -646 -10z"/>
<path d="M2995 3480 c-4 -7 207 -10 625 -10 418 0 629 3 625 10 -4 6 -223 10
-625 10 -402 0 -621 -4 -625 -10z"/>
<path d="M1060 3440 c0 -7 225 -10 655 -10 430 0 655 3 655 10 0 7 -225 10
-655 10 -430 0 -655 -3 -655 -10z"/>
<path d="M2985 3440 c-4 -7 208 -10 629 -10 417 0 636 3 636 10 0 7 -216 10
-629 10 -409 0 -632 -4 -636 -10z"/>
<path d="M1045 3400 c-4 -7 213 -10 644 -10 422 0 652 3 656 10 4 7 -213 10
-644 10 -422 0 -652 -3 -656 -10z"/>
<path d="M2695 3400 c17 -4 64 -8 105 -8 54 0 67 3 45 8 -16 4 -64 8 -105 8
-54 0 -67 -3 -45 -8z"/>
<path d="M2965 3400 c-4 -7 213 -10 644 -10 427 0 651 3 651 10 0 7 -221 10
-644 10 -419 0 -647 -4 -651 -10z"/>
<path d="M1030 3360 c0 -7 218 -10 634 -10 413 0 637 4 641 10 4 7 -210 10
-634 10 -421 0 -641 -3 -641 -10z"/>
<path d="M2920 3360 c104 -12 1350 -12 1350 0 0 7 -241 9 -707 8 -390 0 -679
-4 -643 -8z"/>
<path d="M1020 3320 c0 -13 1237 -14 1245 0 4 7 -202 10 -619 10 -398 0 -626
-4 -626 -10z"/>
<path d="M3000 3320 c0 -7 220 -10 640 -10 420 0 640 3 640 10 0 7 -220 10
-640 10 -420 0 -640 -3 -640 -10z"/>
<path d="M1020 3280 c0 -6 46 -10 119 -10 69 0 122 4 126 10 4 6 -38 10 -119
10 -77 0 -126 -4 -126 -10z"/>
<path d="M1320 3280 c0 -7 156 -10 449 -10 289 0 452 4 456 10 4 7 -148 10
-449 10 -297 0 -456 -3 -456 -10z"/>
<path d="M3060 3280 c21 -13 950 -13 950 0 0 7 -167 10 -482 10 -316 0 -478
-4 -468 -10z"/>
<path d="M4035 3280 c4 -6 58 -10 131 -10 76 0 124 4 124 10 0 6 -50 10 -131
10 -84 0 -128 -4 -124 -10z"/>
<path d="M1020 3240 c0 -6 45 -10 115 -10 70 0 115 4 115 10 0 6 -45 10 -115
10 -70 0 -115 -4 -115 -10z"/>
<path d="M1325 3240 c4 -6 158 -10 430 -10 272 0 426 4 430 10 4 7 -142 10
-430 10 -288 0 -434 -3 -430 -10z"/>
<path d="M3120 3240 c21 -13 877 -13 885 0 4 7 -147 10 -447 10 -296 0 -448
-4 -438 -10z"/>
<path d="M4060 3240 c0 -6 45 -10 115 -10 70 0 115 4 115 10 0 6 -45 10 -115
10 -70 0 -115 -4 -115 -10z"/>
<path d="M1045 3200 c3 -6 48 -10 101 -10 56 0 94 4 94 10 0 6 -40 10 -101 10
-64 0 -98 -4 -94 -10z"/>
<path d="M1330 3200 c0 -6 140 -10 399 -10 256 0 402 4 406 10 4 7 -132 10
-399 10 -264 0 -406 -3 -406 -10z"/>
<path d="M3180 3200 c21 -13 820 -13 820 0 0 7 -146 10 -417 10 -274 0 -413
-4 -403 -10z"/>
<path d="M4060 3200 c0 -6 42 -10 105 -10 63 0 105 4 105 10 0 6 -42 10 -105
10 -63 0 -105 -4 -105 -10z"/>
<path d="M1085 3160 c3 -5 40 -10 81 -10 43 0 74 4 74 10 0 6 -34 10 -81 10
-51 0 -78 -4 -74 -10z"/>
<path d="M1340 3160 c0 -6 130 -10 369 -10 236 0 372 4 376 10 4 7 -122 10
-369 10 -244 0 -376 -4 -376 -10z"/>
<path d="M3235 3160 c4 -6 142 -10 381 -10 243 0 374 4 374 10 0 6 -134 10
-381 10 -251 0 -378 -3 -374 -10z"/>
<path d="M4060 3160 c0 -6 38 -10 95 -10 57 0 95 4 95 10 0 6 -38 10 -95 10
-57 0 -95 -4 -95 -10z"/>
<path d="M1135 3120 c3 -5 28 -10 56 -10 27 0 49 5 49 10 0 6 -25 10 -56 10
-34 0 -53 -4 -49 -10z"/>
<path d="M1350 3120 c0 -6 121 -10 344 -10 219 0 347 4 351 10 4 7 -113 10
-344 10 -227 0 -351 -4 -351 -10z"/>
<path d="M3290 3120 c21 -13 690 -13 690 0 0 6 -124 10 -352 10 -232 0 -348
-4 -338 -10z"/>
<path d="M4060 3120 c0 -6 45 -10 116 -10 74 0 113 4 109 10 -4 6 -53 10 -116
10 -66 0 -109 -4 -109 -10z"/>
<path d="M925 3080 c-4 -7 50 -10 154 -10 101 0 161 4 161 10 0 6 -58 10 -154
10 -93 0 -157 -4 -161 -10z"/>
<path d="M1360 3080 c0 -13 619 -13 640 0 10 6 -97 10 -312 10 -212 0 -328 -4
-328 -10z"/>
<path d="M3345 3080 c4 -6 120 -10 316 -10 199 0 309 4 309 10 0 6 -112 10
-316 10 -207 0 -313 -3 -309 -10z"/>
<path d="M4060 3080 c0 -6 52 -10 136 -10 87 0 133 4 129 10 -4 6 -60 10 -136
10 -79 0 -129 -4 -129 -10z"/>
<path d="M910 3040 c0 -13 70 -13 90 0 11 7 0 10 -37 10 -29 0 -53 -4 -53 -10z"/>
<path d="M1125 3040 c3 -5 31 -10 61 -10 30 0 54 5 54 10 0 6 -27 10 -61 10
-37 0 -58 -4 -54 -10z"/>
<path d="M1370 3040 c0 -6 103 -10 289 -10 183 0 292 4 296 10 4 7 -95 10
-289 10 -191 0 -296 -4 -296 -10z"/>
<path d="M3405 3040 c4 -6 108 -10 281 -10 176 0 274 4 274 10 0 6 -100 10
-281 10 -184 0 -278 -3 -274 -10z"/>
<path d="M4060 3040 c0 -6 41 -10 104 -10 59 0 108 4 111 10 4 6 -33 10 -104
10 -67 0 -111 -4 -111 -10z"/>
<path d="M910 3000 c0 -5 9 -10 19 -10 11 0 23 5 26 10 4 6 -5 10 -19 10 -14
0 -26 -4 -26 -10z"/>
<path d="M1150 3000 c0 -5 20 -10 45 -10 25 0 45 5 45 10 0 6 -20 10 -45 10
-25 0 -45 -4 -45 -10z"/>
<path d="M1380 3000 c0 -6 93 -10 259 -10 163 0 262 4 266 10 4 7 -85 10 -259
10 -171 0 -266 -4 -266 -10z"/>
<path d="M3460 3000 c21 -13 490 -13 490 0 0 6 -91 10 -252 10 -167 0 -248 -4
-238 -10z"/>
<path d="M4060 3000 c0 -6 36 -10 89 -10 50 0 93 5 96 10 4 6 -28 10 -89 10
-57 0 -96 -4 -96 -10z"/>
<path d="M910 2960 c0 -5 5 -10 10 -10 6 0 10 5 10 10 0 6 -4 10 -10 10 -5 0
-10 -4 -10 -10z"/>
<path d="M1165 2960 c3 -5 22 -10 41 -10 19 0 34 5 34 10 0 6 -18 10 -41 10
-24 0 -38 -4 -34 -10z"/>
<path d="M1390 2960 c0 -6 83 -10 229 -10 143 0 232 4 236 10 4 7 -75 10 -229
10 -151 0 -236 -4 -236 -10z"/>
<path d="M3520 2960 c20 -13 417 -13 425 0 4 7 -71 10 -217 10 -148 0 -218 -4
-208 -10z"/>
<path d="M4060 2960 c0 -6 33 -10 79 -10 44 0 83 5 86 10 4 6 -25 10 -79 10
-51 0 -86 -4 -86 -10z"/>
<path d="M4370 2960 c0 -5 7 -10 16 -10 8 0 12 5 9 10 -3 6 -10 10 -16 10 -5
0 -9 -4 -9 -10z"/>
<path d="M1175 2920 c3 -5 19 -10 36 -10 16 0 29 5 29 10 0 6 -16 10 -36 10
-21 0 -33 -4 -29 -10z"/>
<path d="M1400 2920 c0 -13 380 -13 400 0 10 6 -55 10 -192 10 -132 0 -208 -4
-208 -10z"/>
<path d="M3580 2920 c20 -13 360 -13 360 0 0 6 -69 10 -187 10 -125 0 -183 -4
-173 -10z"/>
<path d="M4060 2920 c0 -6 33 -10 80 -10 47 0 80 4 80 10 0 6 -33 10 -80 10
-47 0 -80 -4 -80 -10z"/>
<path d="M4370 2920 c0 -5 14 -10 31 -10 17 0 28 4 24 10 -3 6 -17 10 -31 10
-13 0 -24 -4 -24 -10z"/>
<path d="M1180 2880 c0 -5 14 -10 30 -10 17 0 30 5 30 10 0 6 -13 10 -30 10
-16 0 -30 -4 -30 -10z"/>
<path d="M1405 2880 c8 -13 305 -13 325 0 10 6 -43 10 -158 10 -113 0 -171 -3
-167 -10z"/>
<path d="M3645 2880 c4 -6 65 -10 151 -10 89 0 144 4 144 10 0 6 -57 10 -151
10 -97 0 -148 -4 -144 -10z"/>
<path d="M4060 2880 c0 -6 32 -10 75 -10 43 0 75 4 75 10 0 6 -32 10 -75 10
-43 0 -75 -4 -75 -10z"/>
<path d="M4370 2880 c0 -5 18 -10 40 -10 22 0 40 5 40 10 0 6 -18 10 -40 10
-22 0 -40 -4 -40 -10z"/>
<path d="M1190 2840 c0 -5 11 -10 25 -10 14 0 25 5 25 10 0 6 -11 10 -25 10
-14 0 -25 -4 -25 -10z"/>
<path d="M1410 2840 c0 -13 220 -13 240 0 10 7 -26 10 -112 10 -79 0 -128 -4
-128 -10z"/>
<path d="M3705 2840 c4 -6 57 -10 126 -10 73 0 119 4 119 10 0 6 -49 10 -126
10 -81 0 -123 -4 -119 -10z"/>
<path d="M4060 2840 c0 -6 32 -10 75 -10 43 0 75 4 75 10 0 6 -32 10 -75 10
-43 0 -75 -4 -75 -10z"/>
<path d="M4370 2840 c0 -5 25 -10 56 -10 34 0 53 4 49 10 -3 6 -28 10 -56 10
-27 0 -49 -4 -49 -10z"/>
<path d="M830 2800 c-24 -8 -23 -8 8 -9 17 -1 32 4 32 9 0 11 -5 11 -40 0z"/>
<path d="M1190 2800 c0 -5 14 -10 30 -10 17 0 30 5 30 10 0 6 -13 10 -30 10
-16 0 -30 -4 -30 -10z"/>
<path d="M1410 2801 c0 -4 24 -6 53 -4 77 7 81 11 10 12 -35 1 -63 -3 -63 -8z"/>
<path d="M3765 2800 c4 -6 95 -10 231 -10 131 0 223 4 220 9 -3 5 -107 9 -231
10 -145 0 -224 -3 -220 -9z"/>
<path d="M4370 2800 c0 -6 29 -10 66 -10 41 0 63 4 59 10 -3 6 -33 10 -66 10
-33 0 -59 -4 -59 -10z"/>
<path d="M740 2760 c0 -6 27 -10 60 -10 33 0 60 4 60 10 0 6 -27 10 -60 10
-33 0 -60 -4 -60 -10z"/>
<path d="M1190 2760 c0 -5 16 -10 36 -10 21 0 33 4 29 10 -3 6 -19 10 -36 10
-16 0 -29 -4 -29 -10z"/>
<path d="M3830 2760 c20 -13 390 -13 390 0 0 6 -74 10 -202 10 -135 0 -198 -4
-188 -10z"/>
<path d="M4370 2760 c0 -6 30 -10 70 -10 40 0 70 4 70 10 0 6 -30 10 -70 10
-40 0 -70 -4 -70 -10z"/>
<path d="M740 2720 c0 -6 27 -10 60 -10 33 0 60 4 60 10 0 6 -27 10 -60 10
-33 0 -60 -4 -60 -10z"/>
<path d="M1190 2720 c0 -5 16 -10 35 -10 19 0 35 5 35 10 0 6 -16 10 -35 10
-19 0 -35 -4 -35 -10z"/>
<path d="M3895 2720 c4 -6 70 -10 166 -10 99 0 159 4 159 10 0 6 -62 10 -166
10 -107 0 -163 -3 -159 -10z"/>
<path d="M4370 2720 c0 -6 33 -10 80 -10 47 0 80 4 80 10 0 6 -33 10 -80 10
-47 0 -80 -4 -80 -10z"/>
<path d="M740 2680 c0 -6 27 -10 60 -10 33 0 60 4 60 10 0 6 -27 10 -60 10
-33 0 -60 -4 -60 -10z"/>
<path d="M1190 2680 c0 -5 18 -10 40 -10 22 0 40 5 40 10 0 6 -18 10 -40 10
-22 0 -40 -4 -40 -10z"/>
<path d="M3955 2680 c4 -6 60 -10 136 -10 79 0 129 4 129 10 0 6 -52 10 -136
10 -87 0 -133 -4 -129 -10z"/>
<path d="M4370 2680 c0 -6 37 -10 91 -10 57 0 88 4 84 10 -3 6 -44 10 -91 10
-49 0 -84 -4 -84 -10z"/>
<path d="M2648 2673 c6 -2 18 -2 25 0 6 3 1 5 -13 5 -14 0 -19 -2 -12 -5z"/>
<path d="M740 2640 c0 -6 27 -10 60 -10 33 0 60 4 60 10 0 6 -27 10 -60 10
-33 0 -60 -4 -60 -10z"/>
<path d="M1190 2640 c0 -5 21 -10 46 -10 27 0 43 4 39 10 -3 6 -24 10 -46 10
-21 0 -39 -4 -39 -10z"/>
<path d="M2455 2640 c-12 -5 70 -9 205 -9 149 -1 220 3 210 9 -19 12 -387 12
-415 0z"/>
<path d="M3170 2638 c0 -4 21 -8 48 -7 52 1 48 6 -10 11 -21 2 -38 0 -38 -4z"/>
<path d="M4015 2640 c3 -6 50 -10 106 -10 59 0 99 4 99 10 0 6 -42 10 -106 10
-67 0 -103 -4 -99 -10z"/>
<path d="M4370 2640 c0 -6 39 -10 96 -10 61 0 93 4 89 10 -3 6 -46 10 -96 10
-53 0 -89 -4 -89 -10z"/>
<path d="M740 2600 c0 -6 28 -10 65 -10 37 0 65 4 65 10 0 6 -28 10 -65 10
-37 0 -65 -4 -65 -10z"/>
<path d="M1190 2600 c0 -5 23 -10 50 -10 28 0 50 5 50 10 0 6 -22 10 -50 10
-27 0 -50 -4 -50 -10z"/>
<path d="M2365 2600 c-4 -7 97 -10 297 -10 199 0 298 4 288 10 -21 13 -577 13
-585 0z"/>
<path d="M3170 2600 c0 -6 39 -10 96 -10 61 0 93 4 89 10 -3 6 -46 10 -96 10
-53 0 -89 -4 -89 -10z"/>
<path d="M4020 2600 c0 -6 40 -10 100 -10 60 0 100 4 100 10 0 6 -40 10 -100
10 -60 0 -100 -4 -100 -10z"/>
<path d="M4370 2600 c0 -6 37 -10 90 -10 53 0 90 4 90 10 0 6 -37 10 -90 10
-53 0 -90 -4 -90 -10z"/>
<path d="M740 2560 c0 -6 30 -10 71 -10 44 0 68 4 64 10 -3 6 -35 10 -71 10
-36 0 -64 -4 -64 -10z"/>
<path d="M1190 2560 c0 -6 27 -10 60 -10 33 0 60 4 60 10 0 6 -27 10 -60 10
-33 0 -60 -4 -60 -10z"/>
<path d="M2300 2560 c-10 -6 114 -10 360 -10 246 0 370 4 360 10 -9 6 -154 10
-360 10 -206 0 -351 -4 -360 -10z"/>
<path d="M3170 2560 c0 -6 49 -10 126 -10 81 0 123 4 119 10 -4 6 -57 10 -126
10 -73 0 -119 -4 -119 -10z"/>
<path d="M4020 2560 c0 -6 40 -10 100 -10 60 0 100 4 100 10 0 6 -40 10 -100
10 -60 0 -100 -4 -100 -10z"/>
<path d="M4370 2560 c0 -6 35 -10 84 -10 47 0 88 5 91 10 4 6 -27 10 -84 10
-54 0 -91 -4 -91 -10z"/>
<path d="M740 2520 c0 -6 30 -10 70 -10 40 0 70 4 70 10 0 6 -30 10 -70 10
-40 0 -70 -4 -70 -10z"/>
<path d="M1190 2520 c0 -6 32 -10 76 -10 47 0 73 4 69 10 -3 6 -37 10 -76 10
-39 0 -69 -4 -69 -10z"/>
<path d="M2245 2520 c-4 -7 138 -10 420 -10 282 0 424 3 420 10 -4 6 -155 10
-420 10 -265 0 -416 -4 -420 -10z"/>
<path d="M3170 2520 c0 -6 55 -10 146 -10 94 0 143 4 139 10 -4 6 -63 10 -146
10 -86 0 -139 -4 -139 -10z"/>
<path d="M4020 2520 c0 -6 40 -10 100 -10 60 0 100 4 100 10 0 6 -40 10 -100
10 -60 0 -100 -4 -100 -10z"/>
<path d="M4370 2520 c0 -6 33 -10 80 -10 47 0 80 4 80 10 0 6 -33 10 -80 10
-47 0 -80 -4 -80 -10z"/>
<path d="M800 2480 c20 -13 90 -13 90 0 0 6 -24 10 -52 10 -38 0 -49 -3 -38
-10z"/>
<path d="M1190 2480 c0 -6 32 -10 75 -10 43 0 75 4 75 10 0 6 -32 10 -75 10
-43 0 -75 -4 -75 -10z"/>
<path d="M2195 2480 c-4 -7 157 -10 475 -10 318 0 479 3 475 10 -4 6 -173 10
-475 10 -302 0 -471 -4 -475 -10z"/>
<path d="M3170 2482 c0 -4 75 -9 166 -11 118 -2 164 0 160 8 -8 13 -326 16
-326 3z"/>
<path d="M4020 2480 c0 -6 42 -10 106 -10 67 0 103 4 99 10 -3 6 -50 10 -106
10 -59 0 -99 -4 -99 -10z"/>
<path d="M4370 2480 c0 -6 30 -10 70 -10 40 0 70 4 70 10 0 6 -30 10 -70 10
-40 0 -70 -4 -70 -10z"/>
<path d="M830 2440 c0 -5 14 -10 30 -10 17 0 30 5 30 10 0 6 -13 10 -30 10
-16 0 -30 -4 -30 -10z"/>
<path d="M1165 2440 c-4 -6 27 -10 84 -10 54 0 91 4 91 10 0 6 -35 10 -84 10
-47 0 -88 -4 -91 -10z"/>
<path d="M2145 2440 c-4 -7 167 -10 504 -10 334 0 511 3 511 10 0 7 -175 10
-504 10 -326 0 -507 -4 -511 -10z"/>
<path d="M3240 2440 c20 -13 293 -13 285 0 -4 6 -66 10 -153 10 -99 0 -142 -3
-132 -10z"/>
<path d="M4020 2440 c0 -6 42 -10 105 -10 63 0 105 4 105 10 0 6 -42 10 -105
10 -63 0 -105 -4 -105 -10z"/>
<path d="M4370 2440 c0 -5 24 -10 54 -10 30 0 58 5 61 10 4 6 -17 10 -54 10
-34 0 -61 -4 -61 -10z"/>
<path d="M840 2400 c0 -5 14 -10 30 -10 17 0 30 5 30 10 0 6 -13 10 -30 10
-16 0 -30 -4 -30 -10z"/>
<path d="M1150 2400 c0 -6 37 -10 90 -10 53 0 90 4 90 10 0 6 -37 10 -90 10
-53 0 -90 -4 -90 -10z"/>
<path d="M2105 2400 c-7 -12 363 -12 410 0 17 4 -65 8 -187 9 -135 1 -219 -3
-223 -9z"/>
<path d="M2805 2400 c46 -12 395 -12 395 0 0 6 -77 10 -212 9 -120 -1 -200 -5
-183 -9z"/>
<path d="M3290 2400 c0 -6 52 -10 136 -10 87 0 133 4 129 10 -4 6 -60 10 -136
10 -79 0 -129 -4 -129 -10z"/>
<path d="M4010 2400 c0 -6 45 -10 116 -10 74 0 113 4 109 10 -4 6 -53 10 -116
10 -66 0 -109 -4 -109 -10z"/>
<path d="M4370 2400 c0 -5 20 -10 44 -10 25 0 48 5 51 10 4 6 -13 10 -44 10
-28 0 -51 -4 -51 -10z"/>
<path d="M850 2360 c0 -5 11 -10 25 -10 14 0 25 5 25 10 0 6 -11 10 -25 10
-14 0 -25 -4 -25 -10z"/>
<path d="M1140 2360 c0 -6 38 -10 95 -10 57 0 95 4 95 10 0 6 -38 10 -95 10
-57 0 -95 -4 -95 -10z"/>
<path d="M2065 2360 c-8 -12 301 -12 330 0 12 5 -47 9 -152 9 -105 1 -174 -3
-178 -9z"/>
<path d="M2920 2360 c20 -13 320 -13 320 0 0 6 -62 10 -167 10 -112 0 -163 -4
-153 -10z"/>
<path d="M3325 2360 c4 -6 60 -10 136 -10 84 0 128 4 124 10 -4 6 -60 10 -136
10 -84 0 -128 -4 -124 -10z"/>
<path d="M4010 2360 c0 -6 45 -10 115 -10 70 0 115 4 115 10 0 6 -45 10 -115
10 -70 0 -115 -4 -115 -10z"/>
<path d="M4370 2360 c0 -5 15 -10 34 -10 19 0 38 5 41 10 4 6 -10 10 -34 10
-23 0 -41 -4 -41 -10z"/>
<path d="M860 2320 c0 -5 9 -10 20 -10 11 0 20 5 20 10 0 6 -9 10 -20 10 -11
0 -20 -4 -20 -10z"/>
<path d="M1140 2320 c0 -6 37 -10 90 -10 53 0 90 4 90 10 0 6 -37 10 -90 10
-53 0 -90 -4 -90 -10z"/>
<path d="M2025 2320 c-4 -6 46 -10 144 -10 89 0 152 4 156 10 4 6 -46 10 -144
10 -89 0 -152 -4 -156 -10z"/>
<path d="M2985 2320 c4 -6 63 -10 146 -10 86 0 139 4 139 10 0 6 -55 10 -146
10 -94 0 -143 -4 -139 -10z"/>
<path d="M3360 2320 c0 -6 50 -10 131 -10 84 0 128 4 124 10 -4 6 -58 10 -131
10 -76 0 -124 -4 -124 -10z"/>
<path d="M4000 2320 c0 -6 48 -10 125 -10 77 0 125 4 125 10 0 6 -48 10 -125
10 -77 0 -125 -4 -125 -10z"/>
<path d="M4370 2320 c0 -5 14 -10 30 -10 17 0 30 5 30 10 0 6 -13 10 -30 10
-16 0 -30 -4 -30 -10z"/>
<path d="M1130 2280 c0 -6 38 -10 95 -10 57 0 95 4 95 10 0 6 -38 10 -95 10
-57 0 -95 -4 -95 -10z"/>
<path d="M1995 2280 c-4 -6 41 -10 129 -10 79 0 137 4 141 10 4 6 -41 10 -129
10 -79 0 -137 -4 -141 -10z"/>
<path d="M3035 2280 c4 -6 62 -10 141 -10 83 0 134 4 134 10 0 6 -54 10 -141
10 -91 0 -138 -4 -134 -10z"/>
<path d="M3400 2280 c0 -6 41 -10 104 -10 59 0 108 4 111 10 4 6 -33 10 -104
10 -67 0 -111 -4 -111 -10z"/>
<path d="M4000 2280 c0 -6 52 -10 136 -10 87 0 133 4 129 10 -4 6 -60 10 -136
10 -79 0 -129 -4 -129 -10z"/>
<path d="M4350 2280 c-11 -7 -4 -10 28 -10 23 0 42 5 42 10 0 13 -50 13 -70 0z"/>
<path d="M1130 2240 c0 -6 37 -10 90 -10 53 0 90 4 90 10 0 6 -37 10 -90 10
-53 0 -90 -4 -90 -10z"/>
<path d="M1955 2240 c-4 -6 38 -10 119 -10 72 0 127 4 131 10 4 6 -38 10 -119
10 -72 0 -127 -4 -131 -10z"/>
<path d="M3065 2240 c4 -6 64 -10 146 -10 91 0 138 4 134 10 -4 6 -64 10 -146
10 -91 0 -138 -4 -134 -10z"/>
<path d="M3440 2240 c8 -5 62 -9 120 -9 68 0 98 3 85 9 -29 12 -224 12 -205 0z"/>
<path d="M3990 2240 c0 -6 76 -10 209 -10 129 0 212 4 216 10 4 7 -68 10 -209
10 -137 0 -216 -4 -216 -10z"/>
<path d="M1115 2200 c-4 -6 30 -10 94 -10 61 0 101 4 101 10 0 6 -38 10 -94
10 -53 0 -98 -4 -101 -10z"/>
<path d="M1925 2200 c-4 -6 35 -10 109 -10 66 0 117 4 121 10 4 6 -35 10 -109
10 -66 0 -117 -4 -121 -10z"/>
<path d="M3095 2200 c4 -6 65 -10 151 -10 94 0 143 4 139 10 -4 6 -65 10 -151
10 -94 0 -143 -4 -139 -10z"/>
<path d="M3470 2200 c0 -6 35 -10 85 -10 50 0 85 4 85 10 0 6 -35 10 -85 10
-50 0 -85 -4 -85 -10z"/>
<path d="M3980 2200 c0 -6 78 -10 215 -10 137 0 215 4 215 10 0 6 -78 10 -215
10 -137 0 -215 -4 -215 -10z"/>
<path d="M900 2160 c0 -5 7 -10 15 -10 8 0 15 5 15 10 0 6 -7 10 -15 10 -8 0
-15 -4 -15 -10z"/>
<path d="M1075 2160 c-4 -6 37 -10 114 -10 74 0 121 4 121 10 0 6 -45 10 -114
10 -66 0 -117 -4 -121 -10z"/>
<path d="M1885 2160 c-4 -6 33 -10 104 -10 62 0 112 4 116 10 4 6 -33 10 -104
10 -62 0 -112 -4 -116 -10z"/>
<path d="M3115 2161 c8 -13 355 -15 355 -3 0 5 -81 10 -181 11 -126 2 -179 -1
-174 -8z"/>
<path d="M3485 2160 c3 -5 40 -10 81 -10 48 0 73 4 69 10 -3 6 -40 10 -81 10
-48 0 -73 -4 -69 -10z"/>
<path d="M3970 2160 c0 -6 80 -10 220 -10 140 0 220 4 220 10 0 6 -80 10 -220
10 -140 0 -220 -4 -220 -10z"/>
<path d="M875 2120 c-3 -5 3 -10 14 -10 11 0 23 5 26 10 3 6 -3 10 -14 10 -11
0 -23 -4 -26 -10z"/>
<path d="M1030 2120 c-10 -6 35 -10 138 -10 95 0 152 4 152 10 0 13 -270 13
-290 0z"/>
<path d="M1855 2120 c-4 -6 31 -10 99 -10 59 0 108 4 111 10 4 6 -31 10 -99
10 -59 0 -108 -4 -111 -10z"/>
<path d="M3135 2120 c4 -6 74 -10 176 -10 111 0 168 3 164 10 -4 6 -74 10
-176 10 -111 0 -168 -3 -164 -10z"/>
<path d="M3527 2118 c7 -12 893 -10 893 2 0 6 -157 9 -449 7 -247 -1 -447 -5
-444 -9z"/>
<path d="M855 2080 c-3 -5 3 -10 14 -10 11 0 23 5 26 10 3 6 -3 10 -14 10 -11
0 -23 -4 -26 -10z"/>
<path d="M985 2080 c-4 -7 57 -10 174 -10 114 0 181 4 181 10 0 6 -65 10 -174
10 -106 0 -177 -4 -181 -10z"/>
<path d="M1825 2080 c-4 -6 28 -10 89 -10 52 0 98 4 101 10 4 6 -28 10 -89 10
-52 0 -98 -4 -101 -10z"/>
<path d="M3150 2080 c0 -6 69 -10 186 -10 121 0 183 3 179 10 -4 6 -77 10
-186 10 -113 0 -179 -4 -179 -10z"/>
<path d="M3550 2080 c0 -7 153 -10 440 -10 287 0 440 3 440 10 0 7 -153 10
-440 10 -287 0 -440 -3 -440 -10z"/>
<path d="M830 2040 c0 -5 9 -10 19 -10 11 0 23 5 26 10 4 6 -5 10 -19 10 -14
0 -26 -4 -26 -10z"/>
<path d="M955 2040 c-4 -7 68 -10 210 -10 142 0 214 3 210 10 -4 6 -85 10
-210 10 -125 0 -206 -4 -210 -10z"/>
<path d="M1795 2040 c-8 -13 155 -13 175 0 10 7 -14 10 -77 10 -51 0 -95 -4
-98 -10z"/>
<path d="M3160 2040 c0 -6 70 -10 189 -10 116 0 192 4 196 10 4 7 -62 10 -189
10 -124 0 -196 -4 -196 -10z"/>
<path d="M3600 2040 c0 -6 30 -10 70 -10 40 0 70 4 70 10 0 6 -30 10 -70 10
-40 0 -70 -4 -70 -10z"/>
<path d="M3905 2040 c-4 -7 88 -10 269 -10 177 0 276 4 276 10 0 6 -96 10
-269 10 -169 0 -272 -4 -276 -10z"/>
<path d="M805 2000 c-3 -5 3 -10 14 -10 11 0 23 5 26 10 3 6 -3 10 -14 10 -11
0 -23 -4 -26 -10z"/>
<path d="M925 2001 c-3 -6 92 -10 246 -11 168 0 248 3 244 10 -8 13 -481 14
-490 1z"/>
<path d="M1760 2000 c0 -6 33 -10 79 -10 44 0 83 5 86 10 4 6 -25 10 -79 10
-51 0 -86 -4 -86 -10z"/>
<path d="M3170 2000 c0 -6 72 -10 196 -10 127 0 193 3 189 10 -4 6 -80 10
-196 10 -119 0 -189 -4 -189 -10z"/>
<path d="M3595 2001 c-3 -6 163 -10 435 -11 295 0 440 3 440 10 0 13 -866 14
-875 1z"/>
<path d="M780 1960 c0 -5 9 -10 19 -10 11 0 23 5 26 10 4 6 -5 10 -19 10 -14
0 -26 -4 -26 -10z"/>
<path d="M885 1960 c-4 -6 3 -10 14 -10 25 0 27 6 6 13 -8 4 -17 2 -20 -3z"/>
<path d="M945 1960 c-13 -6 16 -9 83 -9 66 -1 101 3 97 9 -7 12 -152 12 -180
0z"/>
<path d="M1345 1960 c28 -12 105 -12 105 0 0 6 -27 10 -62 9 -45 0 -57 -3 -43
-9z"/>
<path d="M1725 1960 c-4 -6 21 -10 69 -10 41 0 78 5 81 10 4 6 -21 10 -69 10
-41 0 -78 -4 -81 -10z"/>
<path d="M3175 1960 c4 -6 89 -10 221 -10 141 0 213 3 209 10 -4 6 -89 10
-221 10 -141 0 -213 -3 -209 -10z"/>
<path d="M3685 1960 c25 -11 381 -11 415 0 14 5 -75 8 -205 8 -137 0 -222 -3
-210 -8z"/>
<path d="M4170 1960 c0 -6 62 -10 166 -10 107 0 163 3 159 10 -4 6 -70 10
-166 10 -99 0 -159 -4 -159 -10z"/>
<path d="M760 1920 c0 -5 6 -10 14 -10 8 0 18 5 21 10 3 6 -3 10 -14 10 -12 0
-21 -4 -21 -10z"/>
<path d="M855 1920 c-4 -6 47 -10 145 -10 98 0 149 4 145 10 -4 6 -63 10 -145
10 -82 0 -141 -4 -145 -10z"/>
<path d="M1415 1920 c3 -5 22 -10 41 -10 21 0 33 4 29 10 -3 6 -22 10 -41 10
-21 0 -33 -4 -29 -10z"/>
<path d="M1695 1920 c-8 -13 115 -13 135 0 10 7 -7 10 -57 10 -39 0 -75 -4
-78 -10z"/>
<path d="M3180 1920 c0 -6 82 -10 225 -10 143 0 225 4 225 10 0 6 -82 10 -225
10 -143 0 -225 -4 -225 -10z"/>
<path d="M3780 1920 c0 -13 190 -13 210 0 10 7 -21 10 -97 10 -69 0 -113 -4
-113 -10z"/>
<path d="M4170 1920 c0 -6 65 -10 176 -10 114 0 173 3 169 10 -4 6 -73 10
-176 10 -106 0 -169 -4 -169 -10z"/>
<path d="M740 1880 c0 -5 6 -10 14 -10 8 0 18 5 21 10 3 6 -3 10 -14 10 -12 0
-21 -4 -21 -10z"/>
<path d="M805 1880 c-4 -7 58 -10 179 -10 117 0 186 4 186 10 0 6 -66 10 -179
10 -109 0 -182 -4 -186 -10z"/>
<path d="M1465 1880 c3 -5 15 -10 26 -10 10 0 19 5 19 10 0 6 -12 10 -26 10
-14 0 -23 -4 -19 -10z"/>
<path d="M1655 1880 c-4 -6 16 -10 54 -10 33 0 63 5 66 10 4 6 -16 10 -54 10
-33 0 -63 -4 -66 -10z"/>
<path d="M3180 1880 c0 -6 87 -10 241 -10 157 0 238 3 234 10 -4 6 -95 10
-241 10 -149 0 -234 -4 -234 -10z"/>
<path d="M3755 1880 c-4 -6 25 -10 79 -10 47 0 88 5 91 10 4 6 -25 10 -79 10
-47 0 -88 -4 -91 -10z"/>
<path d="M4160 1880 c0 -6 70 -10 190 -10 120 0 190 4 190 10 0 6 -70 10 -190
10 -120 0 -190 -4 -190 -10z"/>
<path d="M725 1840 c-4 -7 56 -10 174 -10 109 0 182 4 186 10 4 7 -56 10 -174
10 -109 0 -182 -4 -186 -10z"/>
<path d="M1105 1840 c-4 -6 8 -10 29 -10 19 0 38 5 41 10 4 6 -8 10 -29 10
-19 0 -38 -4 -41 -10z"/>
<path d="M1505 1840 c3 -5 8 -10 11 -10 2 0 4 5 4 10 0 6 -5 10 -11 10 -5 0
-7 -4 -4 -10z"/>
<path d="M1615 1840 c-8 -13 65 -13 85 0 11 7 2 10 -32 10 -26 0 -50 -4 -53
-10z"/>
<path d="M3190 1840 c0 -6 90 -10 251 -10 164 0 248 3 244 10 -4 6 -98 10
-251 10 -156 0 -244 -4 -244 -10z"/>
<path d="M3725 1840 c-4 -6 21 -10 69 -10 41 0 78 5 81 10 4 6 -21 10 -69 10
-41 0 -78 -4 -81 -10z"/>
<path d="M4180 1840 c0 -5 11 -10 25 -10 14 0 25 5 25 10 0 6 -11 10 -25 10
-14 0 -25 -4 -25 -10z"/>
<path d="M4285 1840 c4 -6 62 -10 141 -10 83 0 134 4 134 10 0 6 -54 10 -141
10 -91 0 -138 -4 -134 -10z"/>
<path d="M710 1800 c0 -13 310 -13 330 0 10 6 -42 10 -157 10 -109 0 -173 -4
-173 -10z"/>
<path d="M1070 1800 c0 -5 18 -10 39 -10 22 0 43 5 46 10 4 6 -12 10 -39 10
-25 0 -46 -4 -46 -10z"/>
<path d="M1180 1800 c-12 -8 -11 -10 8 -10 12 0 22 5 22 10 0 13 -11 13 -30 0z"/>
<path d="M1575 1800 c-7 -12 2 -12 30 0 19 8 19 9 -2 9 -12 1 -25 -3 -28 -9z"/>
<path d="M3190 1800 c0 -6 117 -10 330 -10 213 0 330 4 330 10 0 6 -117 10
-330 10 -213 0 -330 -4 -330 -10z"/>
<path d="M4105 1800 c-3 -5 1 -10 9 -10 9 0 16 5 16 10 0 6 -4 10 -9 10 -6 0
-13 -4 -16 -10z"/>
<path d="M4210 1800 c0 -5 7 -10 16 -10 8 0 12 5 9 10 -3 6 -10 10 -16 10 -5
0 -9 -4 -9 -10z"/>
<path d="M4320 1800 c0 -6 50 -10 130 -10 80 0 130 4 130 10 0 6 -50 10 -130
10 -80 0 -130 -4 -130 -10z"/>
<path d="M695 1760 c-4 -6 46 -10 144 -10 89 0 152 4 156 10 4 6 -46 10 -144
10 -89 0 -152 -4 -156 -10z"/>
<path d="M1040 1760 c0 -6 30 -10 69 -10 39 0 73 5 76 10 4 6 -22 10 -69 10
-44 0 -76 -4 -76 -10z"/>
<path d="M3190 1760 c0 -6 115 -10 325 -10 210 0 325 4 325 10 0 6 -115 10
-325 10 -210 0 -325 -4 -325 -10z"/>
<path d="M4065 1760 c-3 -5 1 -10 9 -10 9 0 16 5 16 10 0 6 -4 10 -9 10 -6 0
-13 -4 -16 -10z"/>
<path d="M4350 1760 c0 -6 47 -10 120 -10 73 0 120 4 120 10 0 6 -47 10 -120
10 -73 0 -120 -4 -120 -10z"/>
<path d="M685 1720 c-4 -6 31 -10 99 -10 59 0 108 4 111 10 4 6 -31 10 -99 10
-59 0 -108 -4 -111 -10z"/>
<path d="M930 1719 c0 -5 5 -7 10 -4 6 3 10 8 10 11 0 2 -4 4 -10 4 -5 0 -10
-5 -10 -11z"/>
<path d="M1010 1720 c0 -5 4 -10 9 -10 6 0 13 5 16 10 3 6 -1 10 -9 10 -9 0
-16 -4 -16 -10z"/>
<path d="M1065 1720 c-4 -6 10 -10 34 -10 22 0 43 5 46 10 4 6 -10 10 -34 10
-22 0 -43 -4 -46 -10z"/>
<path d="M1205 1720 c-3 -5 3 -10 14 -10 11 0 23 5 26 10 3 6 -3 10 -14 10
-11 0 -23 -4 -26 -10z"/>
<path d="M3190 1720 c0 -6 120 -10 341 -10 224 0 338 3 334 10 -4 6 -128 10
-341 10 -216 0 -334 -4 -334 -10z"/>
<path d="M4085 1720 c3 -5 14 -10 23 -10 15 0 15 2 2 10 -20 13 -33 13 -25 0z"/>
<path d="M4325 1720 c-12 -5 36 -9 128 -9 92 -1 147 3 147 9 0 12 -246 12
-275 0z"/>
<path d="M680 1680 c0 -6 35 -10 84 -10 47 0 88 5 91 10 4 6 -27 10 -84 10
-54 0 -91 -4 -91 -10z"/>
<path d="M1045 1680 c-4 -6 6 -10 24 -10 16 0 33 5 36 10 4 6 -6 10 -24 10
-16 0 -33 -4 -36 -10z"/>
<path d="M1165 1680 c-3 -6 5 -10 19 -10 14 0 28 5 31 10 3 6 -5 10 -19 10
-14 0 -28 -4 -31 -10z"/>
<path d="M3190 1680 c0 -6 127 -10 361 -10 237 0 358 3 354 10 -4 6 -135 10
-361 10 -229 0 -354 -4 -354 -10z"/>
<path d="M4120 1680 c0 -5 7 -10 16 -10 8 0 12 5 9 10 -3 6 -10 10 -16 10 -5
0 -9 -4 -9 -10z"/>
<path d="M4237 1679 c7 -7 15 -10 18 -7 3 3 -2 9 -12 12 -14 6 -15 5 -6 -5z"/>
<path d="M4365 1680 c4 -6 55 -10 121 -10 69 0 114 4 114 10 0 6 -47 10 -121
10 -77 0 -118 -4 -114 -10z"/>
<path d="M670 1640 c0 -6 33 -10 80 -10 47 0 80 4 80 10 0 6 -33 10 -80 10
-47 0 -80 -4 -80 -10z"/>
<path d="M1025 1640 c-3 -5 3 -10 14 -10 11 0 23 5 26 10 3 6 -3 10 -14 10
-11 0 -23 -4 -26 -10z"/>
<path d="M1125 1640 c-3 -6 5 -10 19 -10 14 0 28 5 31 10 3 6 -5 10 -19 10
-14 0 -28 -4 -31 -10z"/>
<path d="M3190 1640 c0 -6 137 -10 393 -10 257 0 387 4 377 10 -21 13 -770 13
-770 0z"/>
<path d="M4155 1640 c3 -5 13 -10 21 -10 8 0 14 5 14 10 0 6 -9 10 -21 10 -11
0 -17 -4 -14 -10z"/>
<path d="M4285 1640 c4 -6 68 -10 161 -10 96 0 154 4 154 10 0 6 -60 10 -161
10 -104 0 -158 -3 -154 -10z"/>
<path d="M670 1600 c0 -6 32 -10 75 -10 43 0 75 4 75 10 0 6 -32 10 -75 10
-43 0 -75 -4 -75 -10z"/>
<path d="M1010 1599 c0 -5 5 -7 10 -4 6 3 10 8 10 11 0 2 -4 4 -10 4 -5 0 -10
-5 -10 -11z"/>
<path d="M1090 1600 c0 -5 11 -10 24 -10 14 0 28 5 31 10 4 6 -7 10 -24 10
-17 0 -31 -4 -31 -10z"/>
<path d="M2628 1603 c12 -2 32 -2 45 0 12 2 2 4 -23 4 -25 0 -35 -2 -22 -4z"/>
<path d="M3190 1600 c0 -7 147 -10 423 -10 276 0 417 4 407 10 -21 13 -830 13
-830 0z"/>
<path d="M4185 1600 c3 -5 15 -10 26 -10 10 0 19 5 19 10 0 6 -12 10 -26 10
-14 0 -23 -4 -19 -10z"/>
<path d="M4285 1600 c-3 -5 3 -10 14 -10 12 0 21 5 21 10 0 6 -6 10 -14 10 -8
0 -18 -4 -21 -10z"/>
<path d="M4380 1600 c0 -6 43 -10 110 -10 67 0 110 4 110 10 0 6 -43 10 -110
10 -67 0 -110 -4 -110 -10z"/>
<path d="M665 1560 c-4 -6 22 -10 69 -10 44 0 76 4 76 10 0 6 -30 10 -69 10
-39 0 -73 -4 -76 -10z"/>
<path d="M1060 1560 c0 -5 9 -10 19 -10 11 0 23 5 26 10 4 6 -5 10 -19 10 -14
0 -26 -4 -26 -10z"/>
<path d="M3200 1562 c0 -5 206 -9 457 -9 273 -1 451 2 442 8 -18 11 -899 12
-899 1z"/>
<path d="M4220 1560 c0 -5 11 -10 25 -10 14 0 25 5 25 10 0 6 -11 10 -25 10
-14 0 -25 -4 -25 -10z"/>
<path d="M4310 1560 c0 -5 5 -10 11 -10 5 0 7 5 4 10 -3 6 -8 10 -11 10 -2 0
-4 -4 -4 -10z"/>
<path d="M4380 1560 c0 -6 43 -10 110 -10 67 0 110 4 110 10 0 6 -43 10 -110
10 -67 0 -110 -4 -110 -10z"/>
<path d="M660 1520 c0 -6 30 -10 70 -10 40 0 70 4 70 10 0 6 -30 10 -70 10
-40 0 -70 -4 -70 -10z"/>
<path d="M1058 1523 c7 -3 16 -2 19 1 4 3 -2 6 -13 5 -11 0 -14 -3 -6 -6z"/>
<path d="M3228 1523 c6 -2 18 -2 25 0 6 3 1 5 -13 5 -14 0 -19 -2 -12 -5z"/>
<path d="M3885 1520 c29 -12 324 -12 305 0 -8 5 -85 9 -170 9 -96 0 -147 -4
-135 -9z"/>
<path d="M4230 1520 c0 -13 70 -13 90 0 11 7 0 10 -37 10 -29 0 -53 -4 -53
-10z"/>
<path d="M4385 1520 c-4 -6 33 -10 104 -10 67 0 111 4 111 10 0 6 -41 10 -104
10 -59 0 -108 -4 -111 -10z"/>
<path d="M670 1480 c0 -6 28 -10 65 -10 37 0 65 4 65 10 0 6 -28 10 -65 10
-37 0 -65 -4 -65 -10z"/>
<path d="M1165 1480 c-3 -5 -2 -10 4 -10 5 0 13 5 16 10 3 6 2 10 -4 10 -5 0
-13 -4 -16 -10z"/>
<path d="M3970 1480 c20 -13 293 -13 285 0 -4 6 -66 10 -153 10 -99 0 -142 -3
-132 -10z"/>
<path d="M4365 1480 c-4 -6 37 -10 114 -10 74 0 121 4 121 10 0 6 -45 10 -114
10 -66 0 -117 -4 -121 -10z"/>
<path d="M2668 1473 c18 -2 45 -2 60 0 15 2 0 4 -33 4 -33 0 -45 -2 -27 -4z"/>
<path d="M670 1440 c0 -6 28 -10 65 -10 37 0 65 4 65 10 0 6 -28 10 -65 10
-37 0 -65 -4 -65 -10z"/>
<path d="M1125 1440 c-3 -5 3 -10 14 -10 12 0 21 5 21 10 0 6 -6 10 -14 10 -8
0 -18 -4 -21 -10z"/>
<path d="M2550 1440 c-10 -6 36 -10 138 -10 100 0 151 3 147 10 -8 13 -265 13
-285 0z"/>
<path d="M4025 1440 c8 -13 575 -13 575 0 0 6 -111 9 -290 9 -186 0 -289 -3
-285 -9z"/>
<path d="M680 1400 c0 -6 27 -10 60 -10 33 0 60 4 60 10 0 6 -27 10 -60 10
-33 0 -60 -4 -60 -10z"/>
<path d="M1100 1400 c0 -5 6 -10 14 -10 8 0 18 5 21 10 3 6 -3 10 -14 10 -12
0 -21 -4 -21 -10z"/>
<path d="M2515 1400 c-4 -7 58 -10 180 -10 122 0 184 3 180 10 -4 6 -75 10
-180 10 -105 0 -176 -4 -180 -10z"/>
<path d="M4065 1400 c4 -6 105 -10 271 -10 169 0 264 4 264 10 0 6 -97 10
-271 10 -177 0 -268 -3 -264 -10z"/>
<path d="M690 1360 c0 -5 25 -10 55 -10 30 0 55 5 55 10 0 6 -25 10 -55 10
-30 0 -55 -4 -55 -10z"/>
<path d="M1075 1360 c-3 -5 3 -10 14 -10 11 0 23 5 26 10 3 6 -3 10 -14 10
-11 0 -23 -4 -26 -10z"/>
<path d="M2485 1360 c-4 -7 67 -10 205 -10 138 0 209 3 205 10 -4 6 -83 10
-205 10 -122 0 -201 -4 -205 -10z"/>
<path d="M4095 1360 c4 -6 100 -10 256 -10 159 0 249 4 249 10 0 6 -92 10
-256 10 -167 0 -253 -3 -249 -10z"/>
<path d="M700 1320 c0 -5 23 -10 50 -10 28 0 50 5 50 10 0 6 -22 10 -50 10
-27 0 -50 -4 -50 -10z"/>
<path d="M1055 1320 c-3 -5 3 -10 14 -10 11 0 23 5 26 10 3 6 -3 10 -14 10
-11 0 -23 -4 -26 -10z"/>
<path d="M2465 1320 c-4 -7 73 -10 224 -10 147 0 231 4 231 10 0 6 -81 10
-224 10 -139 0 -227 -4 -231 -10z"/>
<path d="M4125 1320 c4 -6 95 -10 241 -10 149 0 234 4 234 10 0 6 -87 10 -241
10 -157 0 -238 -3 -234 -10z"/>
<path d="M715 1280 c3 -5 24 -10 46 -10 21 0 39 5 39 10 0 6 -21 10 -46 10
-27 0 -43 -4 -39 -10z"/>
<path d="M1030 1280 c0 -5 11 -10 25 -10 14 0 25 5 25 10 0 6 -11 10 -25 10
-14 0 -25 -4 -25 -10z"/>
<path d="M2445 1280 c-4 -7 80 -10 245 -10 165 0 249 3 245 10 -4 6 -97 10
-245 10 -148 0 -241 -4 -245 -10z"/>
<path d="M4145 1280 c4 -6 92 -10 231 -10 143 0 224 4 224 10 0 6 -84 10 -231
10 -151 0 -228 -3 -224 -10z"/>
<path d="M730 1240 c0 -5 16 -10 35 -10 19 0 35 5 35 10 0 6 -16 10 -35 10
-19 0 -35 -4 -35 -10z"/>
<path d="M1010 1240 c0 -5 14 -10 30 -10 17 0 30 5 30 10 0 6 -13 10 -30 10
-16 0 -30 -4 -30 -10z"/>
<path d="M2430 1240 c0 -6 93 -10 260 -10 167 0 260 4 260 10 0 6 -93 10 -260
10 -167 0 -260 -4 -260 -10z"/>
<path d="M4160 1240 c0 -6 80 -10 220 -10 140 0 220 4 220 10 0 6 -80 10 -220
10 -140 0 -220 -4 -220 -10z"/>
<path d="M755 1200 c3 -5 15 -10 26 -10 10 0 19 5 19 10 0 6 -12 10 -26 10
-14 0 -23 -4 -19 -10z"/>
<path d="M990 1200 c0 -5 16 -10 35 -10 19 0 35 5 35 10 0 6 -16 10 -35 10
-19 0 -35 -4 -35 -10z"/>
<path d="M2410 1200 c0 -6 100 -10 280 -10 180 0 280 4 280 10 0 6 -100 10
-280 10 -180 0 -280 -4 -280 -10z"/>
<path d="M4170 1200 c0 -6 76 -10 209 -10 129 0 212 4 216 10 4 7 -68 10 -209
10 -137 0 -216 -4 -216 -10z"/>
<path d="M775 1160 c3 -5 13 -10 21 -10 8 0 12 5 9 10 -3 6 -13 10 -21 10 -8
0 -12 -4 -9 -10z"/>
<path d="M965 1160 c-4 -6 12 -10 39 -10 25 0 46 5 46 10 0 6 -18 10 -39 10
-22 0 -43 -4 -46 -10z"/>
<path d="M2395 1160 c-4 -7 95 -10 289 -10 191 0 296 4 296 10 0 6 -103 10
-289 10 -183 0 -292 -4 -296 -10z"/>
<path d="M4180 1160 c0 -6 70 -10 189 -10 116 0 192 4 196 10 4 7 -62 10 -189
10 -124 0 -196 -4 -196 -10z"/>
<path d="M795 1120 c3 -5 13 -10 21 -10 8 0 14 5 14 10 0 6 -9 10 -21 10 -11
0 -17 -4 -14 -10z"/>
<path d="M940 1120 c0 -5 22 -10 49 -10 28 0 53 5 56 10 4 6 -15 10 -49 10
-31 0 -56 -4 -56 -10z"/>
<path d="M1730 1120 c-15 -5 41 -8 135 -8 94 0 148 4 130 8 -40 10 -233 10
-265 0z"/>
<path d="M2375 1120 c-4 -7 102 -10 309 -10 204 0 316 4 316 10 0 6 -110 10
-309 10 -196 0 -312 -4 -316 -10z"/>
<path d="M3385 1120 c-13 -5 24 -8 100 -8 75 0 111 3 95 8 -34 11 -170 11
-195 0z"/>
<path d="M4190 1120 c0 -6 63 -10 169 -10 103 0 172 4 176 10 4 7 -55 10 -169
10 -111 0 -176 -4 -176 -10z"/>
<path d="M825 1080 c3 -5 13 -10 21 -10 8 0 12 5 9 10 -3 6 -13 10 -21 10 -8
0 -12 -4 -9 -10z"/>
<path d="M900 1080 c-10 -7 9 -10 63 -10 45 0 77 4 77 10 0 13 -120 13 -140 0z"/>
<path d="M1640 1080 c-10 -7 15 -10 80 -10 52 0 102 5 110 10 10 7 -15 10 -80
10 -52 0 -102 -5 -110 -10z"/>
<path d="M1930 1080 c20 -13 297 -13 305 0 4 7 -51 10 -157 10 -109 0 -158 -4
-148 -10z"/>
<path d="M2350 1080 c0 -6 118 -10 335 -10 217 0 335 4 335 10 0 6 -118 10
-335 10 -217 0 -335 -4 -335 -10z"/>
<path d="M3265 1080 c-13 -6 14 -9 78 -9 58 -1 97 3 97 9 0 12 -147 12 -175 0z"/>
<path d="M3500 1080 c0 -6 35 -10 86 -10 54 0 83 4 79 10 -3 6 -42 10 -86 10
-46 0 -79 -4 -79 -10z"/>
<path d="M4190 1080 c0 -6 58 -10 154 -10 93 0 157 4 161 10 4 7 -50 10 -154
10 -101 0 -161 -4 -161 -10z"/>
<path d="M845 1040 c3 -6 48 -10 101 -10 56 0 94 4 94 10 0 6 -40 10 -101 10
-64 0 -98 -4 -94 -10z"/>
<path d="M1585 1040 c-4 -6 16 -10 54 -10 33 0 63 5 66 10 4 6 -16 10 -54 10
-33 0 -63 -4 -66 -10z"/>
<path d="M1730 1040 c0 -6 41 -10 105 -10 58 0 105 4 105 8 0 5 -47 9 -105 10
-65 1 -105 -2 -105 -8z"/>
<path d="M2010 1040 c20 -13 157 -13 165 0 4 6 -27 10 -87 10 -64 0 -88 -3
-78 -10z"/>
<path d="M2325 1040 c-4 -7 118 -10 360 -10 242 0 364 3 360 10 -4 6 -135 10
-360 10 -225 0 -356 -4 -360 -10z"/>
<path d="M3125 1040 c4 -6 69 -10 171 -9 98 0 162 4 159 10 -4 5 -80 9 -171 9
-110 0 -163 -3 -159 -10z"/>
<path d="M3485 1040 c-4 -6 37 -10 115 -10 78 0 119 4 115 10 -4 6 -53 10
-115 10 -62 0 -111 -4 -115 -10z"/>
<path d="M4190 1040 c0 -6 55 -10 145 -10 90 0 145 4 145 10 0 6 -55 10 -145
10 -90 0 -145 -4 -145 -10z"/>
<path d="M870 1000 c0 -6 35 -10 85 -10 50 0 85 4 85 10 0 6 -35 10 -85 10
-50 0 -85 -4 -85 -10z"/>
<path d="M1555 1000 c-4 -6 15 -10 49 -10 30 0 58 5 61 10 4 6 -15 10 -49 10
-30 0 -58 -4 -61 -10z"/>
<path d="M1715 1000 c-4 -6 41 -10 127 -9 84 0 126 4 113 9 -28 12 -232 12
-240 0z"/>
<path d="M2045 1000 c28 -12 115 -12 115 0 0 6 -29 10 -67 9 -47 0 -62 -3 -48
-9z"/>
<path d="M2270 1000 c-19 -12 1039 -14 1059 -1 8 5 -210 9 -515 10 -333 1
-535 -3 -544 -9z"/>
<path d="M3375 1000 c-4 -7 60 -10 184 -10 121 0 191 4 191 10 0 6 -68 10
-184 10 -113 0 -187 -4 -191 -10z"/>
<path d="M4190 1000 c0 -6 50 -10 129 -10 76 0 132 4 136 10 4 6 -42 10 -129
10 -84 0 -136 -4 -136 -10z"/>
<path d="M895 960 c3 -5 37 -10 76 -10 39 0 69 4 69 10 0 6 -32 10 -76 10 -47
0 -73 -4 -69 -10z"/>
<path d="M1535 960 c-4 -7 75 -10 229 -10 151 0 236 4 236 10 0 6 -83 10 -229
10 -143 0 -232 -4 -236 -10z"/>
<path d="M2060 960 c0 -6 224 -10 620 -10 411 0 620 3 620 10 0 7 -209 10
-620 10 -395 0 -620 -4 -620 -10z"/>
<path d="M3350 960 c0 -6 79 -10 216 -10 141 0 213 3 209 10 -4 6 -87 10 -216
10 -133 0 -209 -4 -209 -10z"/>
<path d="M4190 960 c0 -6 46 -10 119 -10 69 0 122 4 126 10 4 6 -38 10 -119
10 -77 0 -126 -4 -126 -10z"/>
<path d="M915 920 c3 -5 33 -10 66 -10 33 0 59 4 59 10 0 6 -29 10 -66 10 -41
0 -63 -4 -59 -10z"/>
<path d="M1520 920 c0 -6 46 -10 119 -10 69 0 122 4 126 10 4 6 -38 10 -119
10 -77 0 -126 -4 -126 -10z"/>
<path d="M1865 920 c9 -14 1425 -14 1425 0 0 7 -245 10 -716 10 -474 0 -713
-3 -709 -10z"/>
<path d="M3335 920 c-4 -7 75 -10 230 -10 155 0 234 3 230 10 -4 6 -92 10
-230 10 -138 0 -226 -4 -230 -10z"/>
<path d="M4190 920 c0 -6 43 -10 110 -10 67 0 110 4 110 10 0 6 -43 10 -110
10 -67 0 -110 -4 -110 -10z"/>
<path d="M935 880 c3 -5 28 -10 56 -10 27 0 49 5 49 10 0 6 -25 10 -56 10 -34
0 -53 -4 -49 -10z"/>
<path d="M1520 880 c0 -6 45 -10 115 -10 70 0 115 4 115 10 0 6 -45 10 -115
10 -70 0 -115 -4 -115 -10z"/>
<path d="M1900 880 c0 -7 238 -10 695 -10 457 0 695 3 695 10 0 7 -238 10
-695 10 -457 0 -695 -3 -695 -10z"/>
<path d="M3320 880 c0 -6 89 -10 246 -10 161 0 243 3 239 10 -4 6 -97 10 -246
10 -153 0 -239 -4 -239 -10z"/>
<path d="M4190 880 c0 -6 40 -10 100 -10 60 0 100 4 100 10 0 6 -40 10 -100
10 -60 0 -100 -4 -100 -10z"/>
<path d="M950 840 c0 -5 20 -10 45 -10 25 0 45 5 45 10 0 6 -20 10 -45 10 -25
0 -45 -4 -45 -10z"/>
<path d="M1520 840 c0 -5 16 -10 35 -10 19 0 35 5 35 10 0 6 -16 10 -35 10
-19 0 -35 -4 -35 -10z"/>
<path d="M1650 840 c0 -5 23 -10 50 -10 28 0 50 5 50 10 0 6 -22 10 -50 10
-27 0 -50 -4 -50 -10z"/>
<path d="M1875 840 c-4 -6 27 -10 85 -10 58 0 89 4 85 10 -3 6 -42 10 -85 10
-43 0 -82 -4 -85 -10z"/>
<path d="M2085 840 c-4 -7 198 -10 599 -10 397 0 606 3 606 10 0 7 -206 10
-599 10 -389 0 -602 -4 -606 -10z"/>
<path d="M3310 840 c0 -6 90 -10 250 -10 160 0 250 4 250 10 0 6 -90 10 -250
10 -160 0 -250 -4 -250 -10z"/>
<path d="M4180 840 c0 -6 38 -10 94 -10 53 0 98 4 101 10 4 6 -30 10 -94 10
-61 0 -101 -4 -101 -10z"/>
<path d="M970 800 c0 -5 16 -10 35 -10 19 0 35 5 35 10 0 6 -16 10 -35 10 -19
0 -35 -4 -35 -10z"/>
<path d="M1520 800 c0 -5 24 -10 53 -10 37 0 48 3 37 10 -20 13 -90 13 -90 0z"/>
<path d="M1665 800 c29 -12 108 -12 100 0 -3 6 -32 10 -63 9 -41 0 -51 -3 -37
-9z"/>
<path d="M1835 800 c-4 -7 240 -10 724 -10 481 0 731 3 731 10 0 14 -1446 14
-1455 0z"/>
<path d="M3310 800 c0 -6 90 -10 250 -10 160 0 250 4 250 10 0 6 -90 10 -250
10 -160 0 -250 -4 -250 -10z"/>
<path d="M4175 800 c-4 -6 28 -10 89 -10 57 0 96 4 96 10 0 6 -36 10 -89 10
-50 0 -93 -4 -96 -10z"/>
<path d="M980 760 c0 -5 14 -10 30 -10 17 0 30 5 30 10 0 6 -13 10 -30 10 -16
0 -30 -4 -30 -10z"/>
<path d="M1535 760 c3 -5 26 -10 51 -10 24 0 44 5 44 10 0 6 -23 10 -51 10
-31 0 -48 -4 -44 -10z"/>
<path d="M1690 760 c0 -6 379 -9 1055 -10 684 0 1055 4 1055 10 0 6 -371 10
-1055 10 -676 0 -1055 -3 -1055 -10z"/>
<path d="M4165 760 c-4 -6 26 -10 84 -10 49 0 93 5 96 10 4 6 -26 10 -84 10
-49 0 -93 -4 -96 -10z"/>
<path d="M995 720 c3 -5 17 -10 31 -10 14 0 22 4 19 10 -3 6 -17 10 -31 10
-14 0 -22 -4 -19 -10z"/>
<path d="M1555 720 c3 -5 35 -10 71 -10 36 0 64 4 64 10 0 6 -30 10 -71 10
-44 0 -68 -4 -64 -10z"/>
<path d="M1705 720 c8 -13 245 -13 265 0 10 7 -32 10 -128 10 -93 0 -141 -4
-137 -10z"/>
<path d="M2025 720 c-4 -6 13 -10 44 -10 27 0 53 5 56 10 4 6 -13 10 -44 10
-27 0 -53 -4 -56 -10z"/>
<path d="M2200 720 c0 -7 193 -10 559 -10 363 0 562 4 566 10 4 7 -185 10
-559 10 -371 0 -566 -3 -566 -10z"/>
<path d="M3345 720 c8 -13 295 -13 315 0 10 6 -41 10 -153 10 -110 0 -166 -3
-162 -10z"/>
<path d="M3695 720 c-4 -6 13 -10 44 -10 28 0 51 5 51 10 0 6 -20 10 -44 10
-25 0 -48 -4 -51 -10z"/>
<path d="M4150 720 c0 -6 37 -10 90 -10 53 0 90 4 90 10 0 6 -37 10 -90 10
-53 0 -90 -4 -90 -10z"/>
<path d="M1010 680 c0 -5 11 -10 25 -10 14 0 25 5 25 10 0 6 -11 10 -25 10
-14 0 -25 -4 -25 -10z"/>
<path d="M1595 680 c7 -12 313 -12 320 1 4 5 -61 9 -160 9 -104 0 -164 -4
-160 -10z"/>
<path d="M1995 680 c-4 -6 11 -10 39 -10 25 0 48 5 51 10 4 6 -11 10 -39 10
-25 0 -48 -4 -51 -10z"/>
<path d="M2210 680 c0 -7 195 -10 566 -10 374 0 563 3 559 10 -9 14 -1125 14
-1125 0z"/>
<path d="M3385 680 c3 -6 52 -10 110 -10 58 0 107 4 110 10 4 6 -35 10 -110
10 -75 0 -114 -4 -110 -10z"/>
<path d="M3665 680 c-4 -6 13 -10 44 -10 27 0 53 5 56 10 4 6 -13 10 -44 10
-27 0 -53 -4 -56 -10z"/>
<path d="M4140 680 c0 -6 35 -10 85 -10 50 0 85 4 85 10 0 6 -35 10 -85 10
-50 0 -85 -4 -85 -10z"/>
<path d="M1020 640 c0 -5 16 -10 36 -10 21 0 33 4 29 10 -3 6 -19 10 -36 10
-16 0 -29 -4 -29 -10z"/>
<path d="M1651 639 c19 -12 370 -11 389 1 10 6 -56 9 -194 9 -127 0 -204 -4
-195 -10z"/>
<path d="M2225 640 c8 -13 1271 -13 1300 0 11 5 -264 9 -643 9 -440 1 -661 -2
-657 -9z"/>
<path d="M3620 640 c-11 -7 3 -10 47 -10 34 0 65 5 68 10 8 13 -95 13 -115 0z"/>
<path d="M4115 640 c-4 -6 26 -10 84 -10 49 0 93 5 96 10 4 6 -26 10 -84 10
-49 0 -93 -4 -96 -10z"/>
<path d="M1040 600 c0 -5 18 -10 41 -10 24 0 38 4 34 10 -3 6 -22 10 -41 10
-19 0 -34 -4 -34 -10z"/>
<path d="M1796 599 c29 -5 78 -5 110 0 54 8 49 9 -51 9 -95 0 -103 -2 -59 -9z"/>
<path d="M2245 600 c4 -6 168 -10 460 -10 292 0 456 4 460 10 4 7 -152 10
-460 10 -308 0 -464 -3 -460 -10z"/>
<path d="M3330 600 c8 -5 87 -10 175 -10 88 0 167 5 175 10 10 6 -49 10 -175
10 -126 0 -185 -4 -175 -10z"/>
<path d="M4095 600 c-4 -6 26 -10 84 -10 49 0 93 5 96 10 4 6 -26 10 -84 10
-49 0 -93 -4 -96 -10z"/>
<path d="M1055 560 c3 -5 29 -10 56 -10 31 0 48 4 44 10 -3 6 -29 10 -56 10
-31 0 -48 -4 -44 -10z"/>
<path d="M2265 560 c8 -14 842 -14 850 0 4 7 -140 10 -425 10 -285 0 -429 -3
-425 -10z"/>
<path d="M3460 560 c25 -4 65 -4 90 0 37 6 28 8 -45 8 -73 0 -82 -2 -45 -8z"/>
<path d="M4065 560 c-4 -6 26 -10 84 -10 49 0 93 5 96 10 4 6 -26 10 -84 10
-49 0 -93 -4 -96 -10z"/>
<path d="M1080 520 c0 -6 31 -10 73 -10 50 0 67 3 57 10 -20 13 -130 13 -130
0z"/>
<path d="M2310 520 c0 -6 133 -10 379 -10 243 0 382 4 386 10 4 7 -125 10
-379 10 -251 0 -386 -4 -386 -10z"/>
<path d="M4025 520 c-4 -6 28 -10 89 -10 52 0 98 4 101 10 4 6 -28 10 -89 10
-52 0 -98 -4 -101 -10z"/>
<path d="M1105 480 c3 -6 47 -10 98 -10 63 0 87 3 77 10 -20 13 -183 13 -175
0z"/>
<path d="M2285 480 c-4 -7 125 -10 379 -10 251 0 386 4 386 10 0 6 -133 10
-379 10 -243 0 -382 -4 -386 -10z"/>
<path d="M3965 480 c-4 -6 33 -10 104 -10 62 0 112 4 116 10 4 6 -33 10 -104
10 -62 0 -112 -4 -116 -10z"/>
<path d="M1145 440 c4 -6 56 -10 123 -10 79 0 112 3 102 10 -20 13 -233 13
-225 0z"/>
<path d="M2255 440 c-4 -7 132 -10 399 -10 264 0 406 3 406 10 0 6 -140 10
-399 10 -256 0 -402 -4 -406 -10z"/>
<path d="M3885 440 c-13 -5 29 -9 112 -9 78 -1 134 3 138 9 8 12 -221 12 -250
0z"/>
<path d="M1190 400 c8 -5 87 -9 175 -9 95 1 150 4 135 9 -37 12 -328 12 -310
0z"/>
<path d="M2205 400 c-4 -7 145 -10 440 -10 295 0 444 3 440 10 -8 14 -872 14
-880 0z"/>
<path d="M3730 400 c-20 -4 43 -8 150 -9 105 0 192 4 200 9 18 12 -295 12
-350 0z"/>
<path d="M1260 360 c9 -6 122 -9 275 -8 167 0 239 4 200 8 -93 12 -493 12
-475 0z"/>
<path d="M2115 360 c-11 -5 389 -9 925 -9 594 0 951 3 960 9 19 12 -1856 12
-1885 0z"/>
<path d="M1340 320 c19 -12 2537 -12 2565 0 11 5 -546 9 -1280 9 -843 1 -1295
-3 -1285 -9z"/>
<path d="M1445 280 c26 -11 2304 -11 2330 0 11 5 -495 9 -1165 9 -670 0 -1176
-4 -1165 -9z"/>
</g>
</svg>
